<svg width="51" height="46" viewBox="0 0 51 46" fill="none" xmlns="http://www.w3.org/2000/svg">
<path d="M41.7564 15.854V34.3277C41.7564 37.5423 40.7529 40.2016 39.0283 42.0479C37.3108 43.8867 34.804 44.9999 31.6282 44.9999H12.0235C8.84798 44.9999 6.34743 43.8869 4.63579 42.049C2.91667 40.2031 1.91797 37.5437 1.91797 34.3277V15.854C1.91797 12.6394 2.9215 9.98043 4.6437 8.13446C6.35873 6.29616 8.85989 5.18408 12.0235 5.18408H31.6282C34.8041 5.18408 37.3109 6.29681 39.0284 8.13499C40.7529 9.98078 41.7564 12.6394 41.7564 15.854Z" stroke="#737F85" stroke-width="2" stroke-linecap="round" stroke-linejoin="round"/>
<path d="M6.65479 35.1905L10.1179 31.5348C11.3214 30.2588 13.3272 30.1976 14.6055 31.3988C14.644 31.4373 16.7291 33.5564 16.7291 33.5564C17.987 34.837 20.0426 34.8574 21.3232 33.6018C21.407 33.5202 26.613 27.2059 26.613 27.2059C27.9548 25.5763 30.364 25.3429 31.9958 26.6869C32.1046 26.7775 37.0228 31.8249 37.0228 31.8249" stroke="#737F85" stroke-width="2" stroke-linecap="round" stroke-linejoin="round"/>
<path fill-rule="evenodd" clip-rule="evenodd" d="M18.0581 18.6506C18.0581 20.8468 16.2789 22.626 14.0828 22.626C11.8866 22.626 10.1074 20.8468 10.1074 18.6506C10.1074 16.4544 11.8866 14.6753 14.0828 14.6753C16.2789 14.6776 18.0581 16.4544 18.0581 18.6506Z" stroke="#737F85" stroke-width="2" stroke-linecap="round" stroke-linejoin="round"/>
<circle cx="40.6679" cy="9.41444" r="8.91444" fill="#737F85" stroke="#737F85"/>
<path d="M43.7937 10.0811H41.3733V12.4805C41.3733 12.8668 41.0573 13.18 40.6676 13.18C40.2779 13.18 39.962 12.8668 39.962 12.4805V10.0811H37.5416C37.1781 10.0438 36.9019 9.74009 36.9019 9.3778C36.9019 9.01551 37.1781 8.71184 37.5416 8.67453H39.9544V6.28264C39.9921 5.92228 40.2984 5.64844 40.6638 5.64844C41.0293 5.64844 41.3356 5.92228 41.3733 6.28264V8.67453H43.7937C44.1572 8.71184 44.4334 9.01551 44.4334 9.3778C44.4334 9.74009 44.1572 10.0438 43.7937 10.0811Z" fill="white"/>
</svg>
