<svg width="181" height="340" viewBox="0 0 181 340" fill="none" xmlns="http://www.w3.org/2000/svg" xmlns:xlink="http://www.w3.org/1999/xlink">
<path d="M162.899 0H18.1009C8.10406 0 0 8.05912 0 18.0005V321.999C0 331.941 8.10406 340 18.1009 340H162.899C172.896 340 181 331.941 181 321.999V18.0005C181 8.05912 172.896 0 162.899 0Z" fill="#737F85"/>
<path d="M172.951 37.3354H8.03955V302.665H172.951V37.3354Z" fill="white" stroke="#737F85" stroke-width="1.33739" stroke-miterlimit="10"/>
<rect x="8" y="37" width="165" height="266" fill="url(#pattern0)"/>
<path d="M108.429 18.7599H72.5621C71.9148 18.7599 71.294 18.5041 70.8362 18.0489C70.3785 17.5937 70.1213 16.9763 70.1213 16.3326C70.1213 15.6888 70.3785 15.0714 70.8362 14.6162C71.294 14.161 71.9148 13.9053 72.5621 13.9053H108.429C109.076 13.9053 109.697 14.161 110.155 14.6162C110.612 15.0714 110.869 15.6888 110.869 16.3326C110.869 16.9763 110.612 17.5937 110.155 18.0489C109.697 18.5041 109.076 18.7599 108.429 18.7599Z" fill="#BFC8CD" stroke="#737F85" stroke-width="1.33739" stroke-linecap="round" stroke-linejoin="round"/>
<path d="M100.277 317.653C100.279 315.728 99.7064 313.846 98.6323 312.245C97.5581 310.644 96.0305 309.396 94.2428 308.658C92.455 307.921 90.4875 307.727 88.5891 308.102C86.6908 308.478 84.947 309.404 83.5784 310.765C82.2098 312.126 81.278 313.86 80.9009 315.748C80.5238 317.636 80.7182 319.593 81.4598 321.371C82.2013 323.149 83.4565 324.668 85.0665 325.736C86.6765 326.804 88.569 327.373 90.5045 327.371C93.0955 327.369 95.5797 326.344 97.4119 324.522C99.2441 322.7 100.274 320.23 100.277 317.653Z" fill="#BFC8CD"/>
<defs>
<pattern id="pattern0" patternContentUnits="objectBoundingBox" width="1" height="1">
<use xlink:href="#image0_949_34393" transform="translate(0 -0.00037382) scale(0.00138889 0.000861411)"/>
</pattern>
</defs>
</svg>
