<svg width="160" height="160" viewBox="0 0 160 160" fill="none" xmlns="http://www.w3.org/2000/svg">
<path opacity="0.9" d="M75.8261 148.36C146.387 148.776 165.563 63.439 136.55 34.304C107.538 5.169 75.6482 46.9154 44.9097 53.1757C-18.2069 66.0303 5.26554 147.944 75.8261 148.36Z" fill="url(#paint0_linear_155_255)"/>
<path d="M8.68946 69.6493C7.91334 67.7917 8.79007 65.6566 10.6477 64.8805L59.4654 44.4843C60.4203 44.0853 61.4946 44.082 62.452 44.4751C63.4094 44.8683 64.1714 45.6256 64.5703 46.5805L93.8989 116.778C94.2979 117.732 94.3012 118.807 93.908 119.764C93.5149 120.722 92.7576 121.484 91.8026 121.883L42.985 142.279C41.1273 143.055 38.9923 142.178 38.2161 140.32L8.68946 69.6493Z" fill="#12476C"/>
<path d="M10.0206 66.9869C9.2445 65.1293 10.1212 62.9942 11.9789 62.2181L60.7965 41.8219C61.7515 41.4229 62.8258 41.4196 63.7832 41.8127C64.7405 42.2058 65.5025 42.9632 65.9015 43.9181L95.2301 114.115C95.629 115.07 95.6323 116.144 95.2392 117.102C94.8461 118.059 94.0887 118.821 93.1338 119.22L44.3161 139.616C42.4585 140.392 40.3234 139.516 39.5473 137.658L10.0206 66.9869Z" fill="#0370C0"/>
<path opacity="0.5" fill-rule="evenodd" clip-rule="evenodd" d="M61.265 42.9431L12.4473 63.3393C11.2089 63.8568 10.6244 65.2801 11.1418 66.5186L40.6685 137.19C41.1859 138.428 42.6093 139.013 43.8477 138.495L92.6654 118.099C93.3229 117.824 93.8445 117.3 94.1152 116.64C94.3859 115.981 94.3836 115.241 94.1089 114.584L64.7803 44.3867C64.5056 43.7291 63.9809 43.2076 63.3216 42.9369C62.6624 42.6661 61.9226 42.6684 61.265 42.9431ZM11.9789 62.2182C10.1212 62.9943 9.2445 65.1294 10.0206 66.987L39.5473 137.658C40.3234 139.516 42.4585 140.393 44.3161 139.616L93.1338 119.22C94.0887 118.821 94.8461 118.059 95.2392 117.102C95.6323 116.145 95.629 115.07 95.2301 114.115L65.9015 43.9182C65.5025 42.9633 64.7405 42.206 63.7832 41.8128C62.8258 41.4197 61.7515 41.423 60.7965 41.822L11.9789 62.2182Z" fill="#1D2D36"/>
<path d="M63.0076 102.147C62.159 102.801 61.2286 103.343 60.2399 103.757C58.6797 104.415 57.0015 104.748 55.3081 104.735C53.6147 104.722 51.9418 104.364 50.3918 103.682C47.1889 102.296 44.651 99.7178 43.3152 96.4935C40.4761 89.7478 43.4448 82.0409 49.9278 79.3119C51.4857 78.6518 53.1619 78.3165 54.8539 78.3263C56.5459 78.3361 58.2181 78.691 59.7683 79.3691C62.9594 80.7754 65.4912 83.3499 66.844 86.5641C68.1967 89.7783 68.2678 93.3884 67.0427 96.6534C66.2296 98.8213 64.8332 100.722 63.0076 102.147ZM47.7455 81.635C43.5482 84.8767 41.9274 90.8239 44.1626 96.1347C45.4098 99.1408 47.7758 101.545 50.7616 102.84C52.1949 103.474 53.7426 103.808 55.3098 103.822C56.8769 103.836 58.4303 103.529 59.8746 102.921C61.3189 102.312 62.6235 101.415 63.7084 100.284C64.7932 99.1527 65.6354 97.8119 66.1831 96.3435C67.3444 93.3036 67.278 89.9313 65.9978 86.9395C64.7565 83.9319 62.3957 81.5238 59.4133 80.223C57.9787 79.5923 56.4309 79.2601 54.8639 79.2467C53.2969 79.2332 51.7435 79.5386 50.2983 80.1445C49.3905 80.5267 48.5361 81.0249 47.7564 81.6266L47.7455 81.635Z" fill="#6FB9FA"/>
<path d="M43.2621 95.6471L43.6183 96.4927L66.4492 86.8765L66.0931 86.0309L43.2621 95.6471Z" fill="#6FB9FA"/>
<path d="M49.3898 80.049L59.3206 103.638L60.1662 103.282L50.2354 79.693L49.3898 80.049Z" fill="#6FB9FA"/>
<path d="M60.1083 103.609L59.2545 103.254C60.8245 99.6878 61.5704 96.7583 61.6026 94.038C61.5861 90.6104 60.354 87.2998 58.1257 84.6953C55.9589 82.3401 52.7327 81.18 49.8882 80.1539L50.1953 79.2907C53.1431 80.3529 56.4855 81.5508 58.8006 84.0755C61.2054 86.8388 62.5324 90.3771 62.5377 94.0404C62.4888 97.7822 61.1281 101.297 60.1083 103.609Z" fill="#6FB9FA"/>
<path d="M59.6067 103.898C56.6038 102.959 53.4594 101.747 50.8781 99.2833C48.2601 96.7165 46.6562 93.2913 46.361 89.6369C46.1742 86.2278 47.803 82.6627 49.1096 79.7987L49.9436 80.1805C48.6816 82.9522 47.1034 86.4028 47.2761 89.5909C47.5719 93.0078 49.0737 96.2081 51.5129 98.6192C53.9602 100.955 56.9837 102.115 59.8825 103.024L59.6067 103.898Z" fill="#6FB9FA"/>
<path d="M58.6616 83.3251C54.1121 86.834 48.5684 88.8125 42.8253 88.9768L42.8022 88.0614C49.5971 87.8627 56.05 85.0359 60.8028 80.1758L61.4653 80.8235C60.5916 81.7231 59.6546 82.5591 58.6616 83.3251Z" fill="#6FB9FA"/>
<path d="M67.2022 95.0287C59.6841 95.224 52.9145 97.8671 48.6192 102.28L47.953 101.635C52.4027 97.0393 59.4169 94.3001 67.1744 94.0995L67.2022 95.0287Z" fill="#6FB9FA"/>
<path d="M33.015 72.0567C33.409 72.9871 33.0255 73.834 32.0266 74.2519L31.3871 74.5197L31.8382 75.5915L30.801 76.0274L29.0767 71.9334L30.7477 71.2225C31.7494 70.8083 32.6219 71.1198 33.015 72.0567ZM31.9706 72.4982C31.9421 72.4104 31.894 72.3303 31.83 72.2638C31.7661 72.1973 31.6879 72.1462 31.6013 72.1143C31.5147 72.0824 31.422 72.0705 31.3302 72.0796C31.2384 72.0887 31.1498 72.1185 31.0712 72.1668L30.4974 72.407L31.0035 73.6102L31.5782 73.3635C31.6669 73.3415 31.7495 73.2997 31.8198 73.2412C31.89 73.1827 31.9461 73.1091 31.9839 73.0259C32.0217 72.9426 32.0401 72.8519 32.0378 72.7605C32.0355 72.6691 32.0125 72.5794 31.9706 72.4982Z" fill="#6FB9FA"/>
<path d="M36.5429 72.6767L34.994 73.3281L35.04 74.2432L33.9854 74.6867L33.8794 69.911L34.8992 69.4828L38.2417 72.8949L37.1663 73.3488L36.5429 72.6767ZM35.8811 71.9474L34.8596 70.835L34.937 72.3461L35.8811 71.9474Z" fill="#6FB9FA"/>
<path d="M38.128 72.5075L38.1085 71.514C38.5679 71.6191 39.0486 71.5815 39.4861 71.4064C39.9221 71.2204 40.0294 71.0215 39.944 70.8209C39.6706 70.1741 37.7865 71.5249 37.1447 70.0034C36.8398 69.2709 37.1109 68.4586 38.225 68.0097C38.6882 67.8024 39.2012 67.7321 39.7032 67.8071L39.7204 68.7676C39.3395 68.709 38.9499 68.7502 38.5898 68.8873C38.1538 69.0733 38.0633 69.2939 38.1535 69.5083C38.4165 70.1341 40.2998 68.7897 40.9332 70.3004C41.2342 71.0128 40.9642 71.8415 39.8565 72.2912C39.3166 72.5402 38.7127 72.6158 38.128 72.5075Z" fill="#6FB9FA"/>
<path d="M41.516 71.0852L41.4973 70.0853C41.9566 70.1919 42.4377 70.1543 42.8749 69.9777C43.3109 69.7917 43.4146 69.5957 43.3292 69.395C43.0557 68.7483 41.1753 70.0963 40.5335 68.5747C40.2249 67.845 40.4997 67.0299 41.5961 66.5657C42.0608 66.3634 42.5723 66.2933 43.0743 66.3631L43.1168 67.3563C42.7307 67.2901 42.334 67.3284 41.9677 67.4671C41.5317 67.6531 41.4412 67.8737 41.535 68.0852C41.7981 68.711 43.6777 67.3695 44.3147 68.8773C44.612 69.5925 44.3457 70.4185 43.2381 70.8682C42.6999 71.1155 42.0987 71.1913 41.516 71.0852Z" fill="#6FB9FA"/>
<path d="M47.5299 65.9474C47.9175 66.877 47.5376 67.7211 46.5351 68.1418L45.902 68.4104L46.3531 69.4823L45.3159 69.9181L43.5887 65.8206L45.2598 65.1096C46.2615 64.6954 47.1368 65.0106 47.5299 65.9474ZM46.5008 66.3713C46.4725 66.2837 46.4247 66.2037 46.3608 66.1374C46.297 66.0711 46.2189 66.0203 46.1325 65.9887C46.0461 65.9571 45.9536 65.9456 45.862 65.9551C45.7705 65.9646 45.6824 65.9948 45.6043 66.0435L45.0268 66.2866L45.5338 67.4833L46.1076 67.2431C46.1968 67.2206 46.2797 67.1783 46.3503 67.1193C46.4208 67.0603 46.4771 66.9861 46.5149 66.9022C46.5528 66.8184 46.5711 66.7271 46.5687 66.6351C46.5662 66.5432 46.543 66.453 46.5008 66.3713Z" fill="#6FB9FA"/>
<path d="M48.1282 66.3319C47.9781 65.9255 47.9507 65.484 48.0494 65.0621C48.148 64.6403 48.3684 64.2567 48.6832 63.9591C48.998 63.6614 49.3932 63.4628 49.8199 63.3878C50.2466 63.3129 50.6859 63.3649 51.0833 63.5375C51.4807 63.71 51.8186 63.9955 52.0551 64.3584C52.2917 64.7214 52.4164 65.1459 52.4137 65.5791C52.4111 66.0123 52.2813 66.4352 52.0404 66.7953C51.7996 67.1553 51.4582 67.4367 51.0588 67.6045C50.7839 67.7228 50.4876 67.7836 50.1883 67.7831C49.889 67.7826 49.593 67.7208 49.3184 67.6016C49.0439 67.4824 48.7967 67.3083 48.592 67.0899C48.3873 66.8715 48.2295 66.6136 48.1282 66.3319ZM51.1503 65.0586C51.0386 64.8851 50.8798 64.747 50.6924 64.6604C50.5051 64.5738 50.297 64.5423 50.0924 64.5696C49.8879 64.5969 49.6953 64.6818 49.5372 64.8145C49.3792 64.9472 49.2621 65.1221 49.1998 65.3188C49.1374 65.5156 49.1323 65.726 49.1851 65.9255C49.2379 66.125 49.3464 66.3054 49.4979 66.4455C49.6494 66.5856 49.8377 66.6797 50.0407 66.7169C50.2437 66.754 50.4531 66.7326 50.6444 66.6551C50.788 66.5886 50.9161 66.4928 51.0205 66.3738C51.1248 66.2548 51.2031 66.1153 51.2502 65.9642C51.2974 65.8131 51.3123 65.6538 51.2942 65.4966C51.276 65.3394 51.2251 65.1877 51.1447 65.0513L51.1503 65.0586Z" fill="#6FB9FA"/>
<path d="M54.7427 64.6663L54.179 64.9046L54.6376 65.9938L53.6004 66.4296L51.8769 62.3293L53.5443 61.6212C54.544 61.1968 55.4157 61.5148 55.8125 62.4489C55.9375 62.7043 55.9874 62.9899 55.9563 63.2726C55.9252 63.5552 55.8144 63.8232 55.6368 64.0453L56.959 65.0066L55.8489 65.4756L54.7427 64.6663ZM53.8743 62.5662L53.2968 62.8093L53.8038 64.0061L54.3776 63.7658C54.4611 63.7361 54.5376 63.6897 54.6026 63.6294C54.6675 63.5692 54.7195 63.4963 54.7553 63.4152C54.7911 63.3342 54.81 63.2467 54.8109 63.1581C54.8117 63.0695 54.7944 62.9816 54.7602 62.8999C54.7259 62.8182 54.6753 62.7443 54.6115 62.6829C54.5477 62.6214 54.472 62.5735 54.3891 62.5423C54.3061 62.5111 54.2177 62.4971 54.1292 62.5012C54.0407 62.5053 53.9539 62.5274 53.8743 62.5662Z" fill="#6FB9FA"/>
<path d="M56.87 61.319L55.7462 61.7928L55.357 60.8761L58.641 59.4991L59.0302 60.4158L57.91 60.8868L59.2479 64.0676L58.2108 64.5035L56.87 61.319Z" fill="#6FB9FA"/>
<path d="M76.5952 84.4642C76.6696 84.9609 76.6438 85.4674 76.5193 85.9539C76.3949 86.4405 76.1743 86.8972 75.8705 87.2971C75.5668 87.697 75.186 88.0321 74.7507 88.2825C74.3154 88.533 73.8343 88.6937 73.3359 88.7552C73.3359 88.7552 72.9818 85.0695 76.5952 84.4642Z" fill="#6FB9FA"/>
<path d="M76.9576 90.0447C76.8692 90.4748 76.6956 90.8828 76.4471 91.2448C76.1985 91.6067 75.88 91.9153 75.5103 92.1522C75.1406 92.3891 74.7272 92.5496 74.2945 92.6242C73.8618 92.6988 73.4185 92.686 72.9909 92.5866C72.9909 92.5866 73.7982 89.459 76.9576 90.0447Z" fill="#6FB9FA"/>
<path d="M75.9211 94.8045C75.7053 95.2205 75.4086 95.5892 75.0482 95.8889C74.6879 96.1885 74.2712 96.4131 73.8228 96.5493C73.3744 96.6855 72.9033 96.7306 72.4371 96.6821C71.971 96.6335 71.5193 96.4922 71.1086 96.2664C71.1086 96.2664 72.8586 93.286 75.9211 94.8045Z" fill="#6FB9FA"/>
<path d="M70.1495 88.0747C70.5876 88.1008 71.016 88.2144 71.4096 88.4088C71.8031 88.6031 72.1538 88.8742 72.4409 89.2061C72.728 89.538 72.9459 89.924 73.0815 90.3414C73.2172 90.7588 73.2679 91.1991 73.2308 91.6364C73.2308 91.6364 70.0103 91.2718 70.1495 88.0747Z" fill="#6FB9FA"/>
<path d="M71.0442 91.7773C71.0442 91.7773 73.0866 92.9882 71.7834 95.3162C71.7834 95.3162 69.7634 93.9317 71.0442 91.7773Z" fill="#6FB9FA"/>
<path d="M73.7187 81.2427C73.9105 81.5916 74.0305 81.9754 74.0718 82.3714C74.1131 82.7674 74.0747 83.1677 73.959 83.5487C73.8434 83.9297 73.6527 84.2837 73.3982 84.5899C73.1437 84.8961 72.8306 85.1483 72.4772 85.3318C72.4772 85.3318 71.2122 82.7032 73.7187 81.2427Z" fill="#6FB9FA"/>
<path d="M68.5696 80.31C68.5696 80.31 71.2462 80.3006 71.3826 83.3892C71.3826 83.3892 68.6189 83.2109 68.5696 80.31Z" fill="#6FB9FA"/>
<path d="M68.7977 84.6958C69.2425 84.5695 69.7081 84.534 70.1669 84.5913C70.6257 84.6485 71.0683 84.7975 71.4684 85.0292C71.8686 85.2609 72.218 85.5706 72.496 85.9401C72.7741 86.3095 72.975 86.731 73.0869 87.1797C73.0869 87.1797 69.7617 87.9103 68.7977 84.6958Z" fill="#6FB9FA"/>
<path d="M69.3304 97.9642L69.4647 97.8605C69.5555 97.7904 69.6862 97.6894 69.8532 97.5604C70.3083 97.1758 70.7257 96.7486 71.0997 96.2847C71.6532 95.5907 72.1112 94.8257 72.4614 94.0099C72.6701 93.5319 72.8437 93.0394 72.981 92.5362L73.0818 92.1338L73.1303 91.934L73.1696 91.7297L73.2463 91.3111C73.2645 91.1695 73.2763 91.0271 73.2981 90.8828L73.3189 90.6696L73.3333 90.4556C73.3414 90.316 73.3532 90.1736 73.3585 90.0304L73.3599 89.6119L73.3598 89.4091L73.3468 89.2047L73.3237 88.7994L73.2823 88.4082L73.2585 88.2121C73.2538 88.1461 73.242 88.0857 73.2309 88.0189L73.1642 87.6473C73.0037 86.7752 72.7371 85.9259 72.3705 85.1185C72.122 84.5766 71.8302 84.0557 71.4978 83.5608C71.3688 83.3938 71.2679 83.2631 71.2006 83.1759L71.122 83.0743C71.1144 83.0628 71.106 83.0519 71.0968 83.0416L71.2006 83.1759C71.2679 83.2631 71.3688 83.3938 71.4978 83.5608C71.8332 84.0567 72.1293 84.5781 72.3834 85.1202C72.7509 85.9303 73.0192 86.7818 73.1827 87.6562L73.2458 88.0306L73.2769 88.221C73.2852 88.2842 73.2898 88.3502 73.3008 88.4171L73.3449 88.8119L73.3681 89.2172L73.3783 89.418C73.3821 89.4905 73.3766 89.5584 73.3776 89.6273L73.379 90.0493L73.3538 90.4746L73.3394 90.6886L73.3149 90.9046L73.2603 91.3293L73.1901 91.7487L73.1472 91.9558L73.0986 92.1556L72.9978 92.558C72.8591 93.0643 72.6839 93.5599 72.4737 94.041C72.1199 94.8554 71.6589 95.619 71.1028 96.3113C70.7265 96.7769 70.3046 97.2037 69.8435 97.5853C69.6765 97.7143 69.5458 97.8153 69.455 97.8854L69.3207 97.9892L69.3304 97.9642Z" fill="#6FB9FA"/>
<path d="M35.0968 101.937C35.3998 102.337 35.7799 102.673 36.2148 102.924C36.6496 103.175 37.1303 103.337 37.6286 103.399C38.1269 103.462 38.6326 103.424 39.116 103.288C39.5994 103.152 40.0507 102.92 40.4432 102.607C40.4432 102.607 38.0494 99.7778 35.0968 101.937Z" fill="#6FB9FA"/>
<path d="M38.8472 106.094C39.2165 106.332 39.6295 106.493 40.0621 106.568C40.4946 106.644 40.9379 106.632 41.3657 106.533C41.7936 106.434 42.1973 106.251 42.5532 105.994C42.909 105.737 43.2098 105.411 43.4378 105.036C43.4378 105.036 40.6218 103.431 38.8472 106.094Z" fill="#6FB9FA"/>
<path d="M42.9626 108.683C43.4109 108.82 43.882 108.865 44.3481 108.817C44.8142 108.769 45.266 108.628 45.6768 108.402C46.0876 108.177 46.4492 107.871 46.7402 107.504C47.0313 107.137 47.2459 106.715 47.3716 106.264C47.3716 106.264 44.0234 105.441 42.9626 108.683Z" fill="#6FB9FA"/>
<path d="M42.1807 99.8507C41.8931 100.183 41.6748 100.569 41.5386 100.987C41.4025 101.404 41.3513 101.845 41.388 102.283C41.4247 102.721 41.5486 103.147 41.7524 103.536C41.9562 103.925 42.2358 104.269 42.5748 104.549C42.5748 104.549 44.5619 101.988 42.1807 99.8507Z" fill="#6FB9FA"/>
<path d="M44.2056 103.08C44.2056 103.08 43.659 105.375 46.2209 106.08C46.2125 106.069 46.642 103.668 44.2056 103.08Z" fill="#6FB9FA"/>
<path d="M34.7992 97.6333C34.915 98.0141 35.1058 98.3679 35.3605 98.6739C35.6152 98.9798 35.9286 99.2316 36.2822 99.4145C36.6358 99.5974 37.0224 99.7076 37.4192 99.7387C37.8161 99.7699 38.2151 99.7212 38.5929 99.5956C38.5929 99.5956 37.5786 96.8488 34.7992 97.6333Z" fill="#6FB9FA"/>
<path d="M37.7311 93.2939C37.7311 93.2939 35.8504 95.2044 37.9681 97.4584C37.9681 97.4584 39.7718 95.3581 37.7311 93.2939Z" fill="#6FB9FA"/>
<path d="M40.7078 96.525C40.3093 96.755 39.9608 97.0625 39.6829 97.4293C39.405 97.796 39.2033 98.2147 39.0897 98.6606C38.976 99.1065 38.9527 99.5706 39.0211 100.026C39.0895 100.481 39.2483 100.917 39.488 101.31C39.488 101.31 42.3322 99.4613 40.7078 96.525Z" fill="#6FB9FA"/>
<path d="M49.826 106.177L49.7829 106.181L49.6565 106.198C49.5466 106.213 49.3828 106.241 49.1747 106.257C48.5799 106.318 47.9803 106.319 47.3853 106.259C46.504 106.17 45.6385 105.963 44.8119 105.644C44.3263 105.46 43.8536 105.245 43.3969 104.998L43.0444 104.789L42.8649 104.684C42.8074 104.647 42.7509 104.604 42.6935 104.567C42.636 104.53 42.459 104.406 42.3414 104.329L41.9991 104.066L41.8293 103.936L41.6676 103.794C41.5581 103.705 41.4494 103.609 41.3434 103.517L41.0475 103.224C41.0054 103.17 40.9452 103.129 40.8987 103.084L40.7725 102.921C40.6912 102.815 40.5889 102.72 40.4967 102.624C40.4045 102.527 40.3368 102.417 40.2555 102.311C40.1742 102.206 40.177 102.21 40.1377 102.159C40.0985 102.108 40.0564 102.054 40.0172 102.003C39.9779 101.952 39.8629 101.803 39.7872 101.705C39.2819 100.975 38.867 100.185 38.5519 99.355C38.336 98.7989 38.1667 98.2258 38.0459 97.6416L37.9602 97.1629L37.9373 97.0357L37.9149 97.0066L37.9373 97.0357L37.9574 97.1593C37.9755 97.2728 37.9971 97.4358 38.0358 97.6436C38.1543 98.2299 38.3199 98.8057 38.5309 99.3654C38.846 100.196 39.2608 100.985 39.7663 101.715C39.8448 101.817 39.9205 101.915 39.999 102.017C40.0355 102.072 40.0758 102.124 40.1196 102.173C40.1589 102.224 40.1981 102.275 40.2374 102.325C40.2766 102.376 40.4 102.536 40.4813 102.641C40.5627 102.747 40.644 102.852 40.7572 102.938L40.8833 103.102C40.9226 103.153 40.9828 103.193 41.0322 103.242L41.3309 103.539C41.4368 103.631 41.5464 103.72 41.6551 103.816L41.8168 103.958L41.9865 104.087L42.3288 104.35C42.4493 104.431 42.5633 104.511 42.6809 104.589C42.7985 104.666 42.7949 104.669 42.8588 104.706C42.9226 104.744 42.9772 104.777 43.0383 104.811L43.3908 105.02C43.848 105.267 44.322 105.482 44.8094 105.663C45.6381 105.982 46.5063 106.187 47.3901 106.273C47.9869 106.33 48.588 106.326 49.1839 106.261C49.3956 106.243 49.5567 106.211 49.6666 106.196L49.7938 106.173L49.826 106.177Z" fill="#6FB9FA"/>
<path fill-rule="evenodd" clip-rule="evenodd" d="M43.1308 21.5646C43.5213 21.1741 44.1545 21.1741 44.545 21.5646C45.526 22.5456 46.7028 23.3874 47.9787 24.2148C48.4239 24.5034 48.891 24.7962 49.3649 25.0933C50.2097 25.6227 51.0759 26.1657 51.8774 26.7226C52.3309 27.0378 52.4431 27.661 52.1279 28.1145C51.8127 28.568 51.1896 28.6802 50.736 28.365C49.9662 27.83 49.1804 27.338 48.3693 26.8301C47.886 26.5274 47.3938 26.2191 46.8905 25.8928C45.5801 25.0431 44.2624 24.1105 43.1308 22.9788C42.7403 22.5883 42.7403 21.9551 43.1308 21.5646Z" fill="#1C98F2"/>
<path fill-rule="evenodd" clip-rule="evenodd" d="M58.3816 10.8084C58.8892 10.5908 59.4771 10.826 59.6947 11.3336C61.1029 14.6196 62.7351 17.7456 64.4835 20.9094C64.7506 21.3927 64.5753 22.0012 64.092 22.2683C63.6086 22.5354 63.0002 22.3601 62.733 21.8767C60.9716 18.6895 59.3029 15.4968 57.8564 12.1215C57.6388 11.6138 57.874 11.0259 58.3816 10.8084Z" fill="#1C98F2"/>
<path fill-rule="evenodd" clip-rule="evenodd" d="M82.6153 13.9708C83.0748 14.2772 83.199 14.898 82.8927 15.3576C81.3964 17.602 79.7277 19.5853 77.9853 21.6066C77.6246 22.0249 76.9932 22.0717 76.5749 21.711C76.1566 21.3504 76.1098 20.719 76.4704 20.3007C78.2099 18.2829 79.8069 16.3807 81.2286 14.2482C81.5349 13.7886 82.1558 13.6645 82.6153 13.9708Z" fill="#1C98F2"/>
<path fill-rule="evenodd" clip-rule="evenodd" d="M90.8099 86.7758C90.9133 86.9183 90.8817 87.1177 90.7392 87.2211L89.3298 88.2448C89.1873 88.3483 88.9879 88.3167 88.8845 88.1742C88.781 88.0318 88.8126 87.8324 88.9551 87.7289L90.3645 86.7052C90.507 86.6017 90.7064 86.6333 90.8099 86.7758Z" fill="#FAFAFA"/>
<path fill-rule="evenodd" clip-rule="evenodd" d="M136.086 109.832L66.4913 96.7361C59.834 95.4836 55.413 89.012 56.6655 82.3547L63.4977 46.0446C64.7512 39.387 71.2219 34.9663 77.8792 36.2188L147.474 49.315C154.131 50.5675 158.553 57.0389 157.3 63.6955L150.468 100.007C149.215 106.663 142.744 111.085 136.086 109.832Z" fill="#0760A1"/>
<path fill-rule="evenodd" clip-rule="evenodd" d="M134.086 106.832L64.4913 93.7361C57.834 92.4836 53.413 86.012 54.6656 79.3547L61.4978 43.0446C62.7512 36.387 69.2219 31.9663 75.8792 33.2188L145.474 46.315C152.131 47.5675 156.553 54.0389 155.3 60.6955L148.468 97.0065C147.215 103.663 140.744 108.085 134.086 106.832Z" fill="#37A7F9"/>
<path fill-rule="evenodd" clip-rule="evenodd" d="M75.3331 33.116C75.3898 32.8144 75.6803 32.6159 75.982 32.6726L145.577 45.7688C152.536 47.0781 157.156 53.84 155.846 60.7983C155.789 61.0999 155.498 61.2984 155.197 61.2416C154.895 61.1848 154.697 60.8942 154.754 60.5926C155.95 54.2378 151.727 48.0569 145.371 46.8611L145.474 46.3149L145.371 46.8611L75.7764 33.7649C75.4748 33.7082 75.2763 33.4176 75.3331 33.116Z" fill="#0760A1"/>
<path fill-rule="evenodd" clip-rule="evenodd" d="M116.911 72.9088C116.325 75.9603 116.786 78.9773 118.044 81.5818C118.135 81.7794 118.234 81.9666 118.342 82.1603C120.267 85.6946 123.699 88.3858 127.961 89.2054C132.225 90.0245 136.404 88.797 139.499 86.2268C139.671 86.0867 139.828 85.9478 139.991 85.7999C142.123 83.8468 143.672 81.2171 144.26 78.1645C145.71 70.6175 140.762 63.3176 133.215 61.8668C125.661 60.4146 118.361 65.3618 116.911 72.9088Z" fill="#C6EEFF"/>
<path fill-rule="evenodd" clip-rule="evenodd" d="M125.489 72.9895C124.917 75.9649 126.866 78.8409 129.841 79.4125C132.817 79.9851 135.691 78.0358 136.263 75.0605C136.835 72.087 134.887 69.2117 131.911 68.6391C128.936 68.0674 126.06 70.0162 125.489 72.9895Z" fill="#0760A1"/>
<path fill-rule="evenodd" clip-rule="evenodd" d="M118.677 82.7278C120.639 85.9802 123.929 88.43 127.961 89.2051C131.995 89.9799 135.952 88.923 138.98 86.6299C137.354 83.0136 134.041 80.22 129.843 79.4132C125.647 78.6069 121.527 79.9725 118.677 82.7278Z" fill="#0760A1"/>
<path fill-rule="evenodd" clip-rule="evenodd" d="M89.4922 46.0443C89.6424 45.2459 90.4115 44.7204 91.2099 44.8707L126.383 51.4901C127.182 51.6404 127.707 52.4094 127.557 53.2078C127.407 54.0062 126.638 54.5316 125.839 54.3814L90.6657 47.7619C89.8673 47.6117 89.3419 46.8427 89.4922 46.0443Z" fill="#0760A1"/>
<path opacity="0.5" fill-rule="evenodd" clip-rule="evenodd" d="M67.4701 54.3727C67.6203 53.5743 68.3894 53.0489 69.1878 53.1992L108.698 60.6345C109.496 60.7848 110.022 61.5538 109.871 62.3522C109.721 63.1506 108.952 63.676 108.154 63.5258L68.6437 56.0904C67.8453 55.9402 67.3198 55.1711 67.4701 54.3727Z" fill="#0760A1"/>
<path opacity="0.3" fill-rule="evenodd" clip-rule="evenodd" d="M66.5019 62.1729C66.6021 61.6408 67.1146 61.2906 67.6467 61.3908L83.5471 64.3829C84.0792 64.483 84.4294 64.9955 84.3292 65.5276C84.2291 66.0597 83.7166 66.4099 83.1845 66.3098L67.2841 63.3176C66.752 63.2175 66.4018 62.705 66.5019 62.1729Z" fill="#C6EEFF"/>
<path opacity="0.3" fill-rule="evenodd" clip-rule="evenodd" d="M86.7383 65.9813C86.8384 65.4492 87.3509 65.099 87.883 65.1991L103.784 68.191C104.316 68.2912 104.667 68.8037 104.566 69.3358C104.466 69.8679 103.954 70.2181 103.422 70.1179L87.5204 67.126C86.9883 67.0259 86.6381 66.5134 86.7383 65.9813Z" fill="#C6EEFF"/>
<path opacity="0.5" fill-rule="evenodd" clip-rule="evenodd" d="M65.2323 68.9188C65.3324 68.3867 65.8449 68.0365 66.377 68.1367L77.4589 70.222C77.991 70.3222 78.3412 70.8347 78.2411 71.3668C78.1409 71.8989 77.6284 72.2491 77.0963 72.1489L66.0144 70.0636C65.4823 69.9634 65.1321 69.4509 65.2323 68.9188Z" fill="#0760A1"/>
<path opacity="0.5" fill-rule="evenodd" clip-rule="evenodd" d="M81.1322 71.9107C81.2323 71.3786 81.7448 71.0284 82.2769 71.1285L107.332 75.8434C107.864 75.9435 108.215 76.456 108.115 76.9881C108.014 77.5202 107.502 77.8704 106.97 77.7703L81.9143 73.0554C81.3822 72.9553 81.0321 72.4428 81.1322 71.9107Z" fill="#0760A1"/>
<path opacity="0.3" fill-rule="evenodd" clip-rule="evenodd" d="M63.3895 76.0554C63.4897 75.5233 64.0022 75.1732 64.5343 75.2733L73.2076 76.9061C73.7397 77.0063 74.0898 77.5188 73.9896 78.0509C73.8895 78.583 73.3769 78.9332 72.8448 78.833L64.1716 77.2002C63.6395 77.1 63.2893 76.5875 63.3895 76.0554Z" fill="#C6EEFF"/>
<path opacity="0.3" fill-rule="evenodd" clip-rule="evenodd" d="M75.918 78.413C76.0182 77.8809 76.5307 77.5308 77.0628 77.6309L92.4812 80.5322C93.0133 80.6323 93.3635 81.1448 93.2633 81.6769C93.1632 82.209 92.6507 82.5592 92.1186 82.4591L76.7002 79.5578C76.1681 79.4577 75.8179 78.9451 75.918 78.413Z" fill="#C6EEFF"/>
<path opacity="0.5" fill-rule="evenodd" clip-rule="evenodd" d="M132.7 101.072L118.86 98.4676C117.896 98.2859 117.256 97.3486 117.436 96.3848L118.228 92.1815C118.409 91.2168 119.347 90.5766 120.311 90.7583L134.15 93.3626C135.115 93.5441 135.756 94.4812 135.574 95.4452L134.784 99.6484C134.601 100.613 133.665 101.253 132.7 101.072Z" fill="#C6EEFF"/>
<defs>
<linearGradient id="paint0_linear_155_255" x1="163.108" y1="71.0787" x2="5.19056" y2="45.7615" gradientUnits="userSpaceOnUse">
<stop offset="0.0647845" stop-color="#1C85E8"/>
<stop offset="1" stop-color="#57C6FF" stop-opacity="0.5"/>
<stop offset="1" stop-color="#57C6FF" stop-opacity="0.5"/>
</linearGradient>
</defs>
</svg>
