<svg width="160" height="160" viewBox="0 0 160 160" fill="none" xmlns="http://www.w3.org/2000/svg">
<path opacity="0.9" d="M116.764 134.589C79.5142 164.063 6.50056 131.474 16.0566 92.1931C25.6127 52.9121 61.1099 85.8802 81.8008 62.818C94.7515 48.3831 109.23 44.5971 116.764 45.0997C156.676 47.6224 154.014 105.116 116.764 134.589Z" fill="url(#paint0_linear_183_2954)"/>
<path d="M83.3324 32.3104L83.4381 32.0352C83.6899 31.0176 84.173 30.2833 84.8874 29.8322C85.6254 29.387 86.361 29.1546 87.0941 29.1351C87.8272 29.1156 88.5334 28.9513 89.2126 28.6422C89.9155 28.339 90.3607 27.8087 90.548 27.0514C90.7413 26.2705 90.6658 25.6114 90.3216 25.0742C90.001 24.5428 89.4029 24.1688 88.5273 23.9521C87.6517 23.7354 86.9658 23.7164 86.4695 23.895C86.0028 24.0557 85.687 24.2664 85.5221 24.527L85.3102 24.9266C84.9449 25.4892 84.5793 25.901 84.2134 26.162C83.8533 26.3994 83.4484 26.4625 82.9987 26.3512C82.5491 26.2399 81.9926 25.9515 81.3293 25.486C80.044 24.5904 79.501 23.7403 79.7001 22.9356C79.7879 22.5807 79.9468 22.2433 80.1766 21.9234C80.4123 21.5799 80.6067 21.3016 80.7599 21.0883C80.919 20.8514 81.2758 20.4751 81.8304 19.9594C82.4086 19.4495 83.0137 19.0341 83.6456 18.7133C84.307 18.3747 85.1697 18.1361 86.2336 17.9976C87.3034 17.8354 88.43 17.9006 89.6132 18.1934C92.1217 18.8141 93.9696 20.1253 95.157 22.1269C96.3444 24.1284 96.6745 26.1941 96.1475 28.324C95.8957 29.3416 95.4722 30.2413 94.8769 31.0232C94.3111 31.7874 93.7064 32.3535 93.0628 32.7216C91.7756 33.4579 90.6413 33.8804 89.6601 33.9892L89.0482 34.0262C88.9487 34.4285 88.8489 34.7303 88.7488 34.9315C88.6725 35.1387 88.5074 35.349 88.2537 35.5624C88.0295 35.7581 87.6897 35.8624 87.2345 35.8753C86.8088 35.8704 86.2527 35.7831 85.5665 35.6132C84.8802 35.4434 84.3387 35.2466 83.942 35.0229C83.569 34.805 83.3348 34.5336 83.2394 34.2086C83.144 33.8837 83.099 33.6088 83.1044 33.3841C83.1392 33.1416 83.2153 32.7837 83.3324 32.3104ZM81.6181 38.6294C81.9011 38.2976 82.2998 38.1074 82.814 38.0589C83.352 38.0162 84.1416 38.1237 85.1829 38.3813C86.2241 38.639 86.911 39.0601 87.2436 39.6446C87.6056 40.2114 87.6227 41.1574 87.2947 42.4826C87.0605 43.4292 86.7665 44.1099 86.4127 44.5247C86.0648 44.9157 85.6219 45.1326 85.0839 45.1753C84.5755 45.2002 83.8125 45.0867 82.7949 44.8349C81.7773 44.5831 81.0578 44.1414 80.6365 43.5097C80.3337 43.0079 80.3024 42.2718 80.5425 41.3016L80.683 40.7336C80.8177 40.1893 80.932 39.7781 81.026 39.5C81.1436 39.2277 81.3409 38.9375 81.6181 38.6294Z" fill="#1C98F2"/>
<path d="M108.566 149.315L102.691 148.798L105.51 117.354L110.958 122.547L108.566 149.315Z" fill="#1D2D36"/>
<path d="M102.691 148.798L94.6745 148.092L97.6449 114.927L105.51 117.354L102.691 148.798Z" fill="#0760A1"/>
<path d="M86.5622 86.508L83.5496 120.736L46.6601 117.49L49.6445 83.5814C49.8527 81.1995 50.5282 78.8819 51.6324 76.7611C52.7366 74.6403 54.2478 72.7579 56.0798 71.2214C57.9117 69.6849 60.0285 68.5244 62.3091 67.8063C64.5897 67.0881 66.9895 66.8264 69.3713 67.036L70.3098 67.1186C75.0362 67.5346 79.4037 69.8111 82.4516 73.4473C85.4996 77.0835 86.9782 81.7816 86.5622 86.508Z" fill="#1C98F2"/>
<path d="M144.951 88.8431L141.691 125.887L83.5467 120.77L86.5592 86.5411C86.9752 81.8147 85.4966 77.1167 82.4487 73.4804C79.4008 69.8442 75.0332 67.5677 70.3069 67.1517L131.234 72.5141C135.216 72.8647 138.897 74.7807 141.469 77.842C144.041 80.9032 145.293 84.8596 144.951 88.8431Z" fill="#84DAFF"/>
<path d="M96.7124 86.7337L93.6385 121.658L91.2646 121.449L94.2772 87.2204C94.693 82.4959 93.2158 77.7997 90.1702 74.164C87.1247 70.5283 82.7601 68.2507 78.0359 67.832L81.0612 68.0983C85.6062 68.4983 89.8067 70.6852 92.741 74.179C95.6753 77.6728 97.1036 82.188 96.7124 86.7337Z" fill="#419CED"/>
<path d="M139.365 90.4878L136.292 125.412L133.918 125.203L136.93 90.9745C137.346 86.25 135.869 81.5537 132.823 77.9181C129.778 74.2824 125.413 72.0048 120.689 71.5861L123.714 71.8523C128.259 72.2524 132.46 74.4393 135.394 77.933C138.328 81.4268 139.757 85.9421 139.365 90.4878Z" fill="#419CED"/>
<path d="M84.6334 87.1839L81.9259 117.945L48.8016 115.03L51.4838 84.5556C51.8639 80.2362 53.9444 76.2448 57.2674 73.4594C60.5905 70.6739 64.884 69.3227 69.2033 69.7028L70.0425 69.7767C74.2857 70.1502 78.2067 72.1939 80.9431 75.4584C83.6794 78.7229 85.0068 82.9407 84.6334 87.1839Z" fill="#0760A1"/>
<path d="M42.2567 120.618L46.6543 117.556L83.5438 120.803L79.5608 123.579C66.7436 132.543 49.698 139.232 39.6834 138.351L37.2764 138.139C27.4414 137.24 26.5884 130.622 42.2567 120.618Z" fill="#0760A1"/>
<path d="M80.8084 120.529L76.8364 123.306C64.0702 132.196 47.101 138.903 37.0695 138.087C27.428 137.139 26.6995 130.498 42.2596 120.585L46.6462 117.522L80.8084 120.529Z" fill="#1C98F2"/>
<path d="M111.671 54.7028L110.903 63.4255L102.92 62.7229L100.037 95.4829C99.9726 96.2149 99.62 96.8915 99.0567 97.3636C98.4935 97.8357 97.7658 98.0647 97.0337 98.0003C96.3016 97.9358 95.6251 97.5832 95.153 97.02C94.6809 96.4568 94.4519 95.729 94.5163 94.997L98.3598 51.328L103.802 52.7083L111.671 54.7028Z" fill="#0760A1"/>
<path d="M97.0337 98.0003L94.8806 97.8108C94.2766 97.7644 93.7134 97.4877 93.3077 97.0378C92.9021 96.5878 92.6848 95.9991 92.7011 95.3935L96.5931 51.1725L98.3598 51.328L94.5163 94.997C94.453 95.7292 94.6808 96.4568 95.1503 97.0222C95.6504 97.5507 96.3138 97.8952 97.0337 98.0003Z" fill="#1D2D36"/>
<g filter="url(#filter0_b_183_2954)">
<path d="M68.0806 73.2443C60.1528 86.9757 42.5944 91.6804 28.863 83.7526C15.1316 75.8247 10.4268 58.2664 18.3547 44.535C26.2825 30.8035 43.8409 26.0988 57.5723 34.0266C71.3037 41.9545 76.0085 59.5128 68.0806 73.2443Z" fill="white" fill-opacity="0.6"/>
</g>
<path d="M26.0302 53.18C25.8109 51.5378 26.9644 50.0286 28.6066 49.8092L54.3778 46.3669C56.02 46.1476 57.5292 47.3011 57.7485 48.9434L59.7345 63.8113C59.9539 65.4536 58.8004 66.9627 57.1581 67.1821L31.387 70.6244C29.7447 70.8437 28.2355 69.6903 28.0162 68.048L26.0302 53.18Z" fill="#80C2FC"/>
<path fill-rule="evenodd" clip-rule="evenodd" d="M39.2928 58.1407C39.502 58.321 39.5254 58.6367 39.3451 58.8459L29.8787 69.8265C29.6984 70.0356 29.3827 70.059 29.1735 69.8787C28.9644 69.6984 28.941 69.3827 29.1213 69.1735L38.5877 58.1929C38.768 57.9838 39.0837 57.9604 39.2928 58.1407Z" fill="#419CED"/>
<path fill-rule="evenodd" clip-rule="evenodd" d="M46.4862 57.1866C46.3291 57.4137 46.3858 57.7251 46.6129 57.8823L58.2155 65.9112C58.4426 66.0683 58.754 66.0116 58.9112 65.7845C59.0683 65.5574 59.0116 65.246 58.7845 65.0889L47.1819 57.06C46.9548 56.9028 46.6434 56.9595 46.4862 57.1866Z" fill="#419CED"/>
<path fill-rule="evenodd" clip-rule="evenodd" d="M26.0697 52.1539L40.201 59.7923C42.1071 60.8226 44.4599 60.5079 46.0283 59.0131L57.4984 48.0805C56.9612 46.9183 55.7135 46.1885 54.3778 46.367L28.6067 49.8093C27.3163 49.9816 26.3277 50.9502 26.0697 52.1539Z" fill="#158AE0"/>
<g filter="url(#filter1_b_183_2954)">
<path fill-rule="evenodd" clip-rule="evenodd" d="M57.9212 34.1981C44.363 26.3703 27.026 31.0157 19.1982 44.574C11.3703 58.1322 16.0157 75.4692 29.574 83.297C37.4211 87.8276 47.551 88.1723 55.7632 84.8622C56.1474 84.7074 56.5843 84.8933 56.7392 85.2775C56.894 85.6616 56.7081 86.0986 56.3239 86.2535C47.7212 89.721 37.1042 89.3766 28.824 84.5961C14.5483 76.354 9.65703 58.0997 17.8991 43.824C26.1412 29.5482 44.3955 24.657 58.6712 32.8991C59.03 33.1062 59.1529 33.5649 58.9458 33.9236C58.7386 34.2823 58.28 34.4053 57.9212 34.1981Z" fill="#0F75C1"/>
</g>
<defs>
<filter id="filter0_b_183_2954" x="10.2369" y="25.9089" width="65.9615" height="65.9615" filterUnits="userSpaceOnUse" color-interpolation-filters="sRGB">
<feFlood flood-opacity="0" result="BackgroundImageFix"/>
<feGaussianBlur in="BackgroundImage" stdDeviation="2.13333"/>
<feComposite in2="SourceAlpha" operator="in" result="effect1_backgroundBlur_183_2954"/>
<feBlend mode="normal" in="SourceGraphic" in2="effect1_backgroundBlur_183_2954" result="shape"/>
</filter>
<filter id="filter1_b_183_2954" x="9.62869" y="24.6287" width="53.6843" height="68.2015" filterUnits="userSpaceOnUse" color-interpolation-filters="sRGB">
<feFlood flood-opacity="0" result="BackgroundImageFix"/>
<feGaussianBlur in="BackgroundImage" stdDeviation="2.13333"/>
<feComposite in2="SourceAlpha" operator="in" result="effect1_backgroundBlur_183_2954"/>
<feBlend mode="normal" in="SourceGraphic" in2="effect1_backgroundBlur_183_2954" result="shape"/>
</filter>
<linearGradient id="paint0_linear_183_2954" x1="6.40076" y1="113.396" x2="125.964" y2="17.5193" gradientUnits="userSpaceOnUse">
<stop stop-color="#57C6FF" stop-opacity="0.5"/>
<stop offset="1" stop-color="#1C85E8"/>
</linearGradient>
</defs>
</svg>
