<svg width="38" height="38" viewBox="0 0 38 38" fill="none" xmlns="http://www.w3.org/2000/svg">
<path d="M36.6478 10.9749V27.5044C36.6478 30.3573 35.7527 32.7087 34.2221 34.3383C32.6983 35.9607 30.4699 36.9481 27.6355 36.9481H9.9966C7.16242 36.9481 4.93971 35.9609 3.42116 34.3393C1.89557 32.7103 1.00464 30.3587 1.00464 27.5044V10.9749C1.00464 8.12205 1.89982 5.77082 3.42821 4.14164C4.94988 2.51962 7.1732 1.5332 9.9966 1.5332H27.6355C30.47 1.5332 32.6984 2.52026 34.2222 4.14217C35.7527 5.77117 36.6478 8.12208 36.6478 10.9749Z" stroke="#737F85" stroke-width="2" stroke-linecap="round" stroke-linejoin="round"/>
<path d="M5.1665 28.2759L8.28237 25.0049C9.36517 23.8632 11.1698 23.8084 12.3199 24.8832C12.3546 24.9177 14.2306 26.8138 14.2306 26.8138C15.3624 27.9596 17.2119 27.9778 18.3641 26.8544C18.4395 26.7814 23.1235 21.1316 23.1235 21.1316C24.3307 19.6735 26.4983 19.4647 27.9665 20.6672C28.0644 20.7483 32.4894 25.2645 32.4894 25.2645" stroke="#737F85" stroke-width="2" stroke-linecap="round" stroke-linejoin="round"/>
<path fill-rule="evenodd" clip-rule="evenodd" d="M15.4259 13.4774C15.4259 15.4424 13.8251 17.0343 11.8492 17.0343C9.87321 17.0343 8.27246 15.4424 8.27246 13.4774C8.27246 11.5123 9.87321 9.92041 11.8492 9.92041C13.8251 9.92244 15.4259 11.5123 15.4259 13.4774Z" stroke="#737F85" stroke-width="2" stroke-linecap="round" stroke-linejoin="round"/>
</svg>
