<svg width="150" height="110" viewBox="0 0 150 110" fill="none" xmlns="http://www.w3.org/2000/svg">
<path opacity="0.9" d="M79.4373 108.144C37.3542 111.027 -3.62169 37.996 22.9491 13.938C49.5198 -10.1199 67.8541 40.6816 94.5572 34.1618C111.271 30.081 123.593 32.6189 128.89 36.7876C157.021 58.7692 121.52 105.262 79.4373 108.144Z" fill="url(#paint0_linear_203_580)"/>
<path d="M56 51C49.6 49.4 45.3333 40 44 35.5L83.5 19.5C84.3333 21.8333 86.2 27.3 87 30.5C87.8 33.7 86 37.8333 85 39.5L79 48.5C77.4 50.9 79.6667 53.1667 81 54C94 53.5 99 59.5 101.5 62.5C103.5 64.9 106 72.1667 107 75.5L69.8398 94.8233C70.1116 95.5825 69.8581 95.4297 69.5 95L69.8398 94.8233C69.4791 93.8159 68.1935 91.2027 65 85.5C58 73 66.5 61.5 69.5 59.5C71.9 57.9 71.1667 54.8333 70.5 53.5L68.5 52.5C67 52.6667 62.4 52.6 56 51Z" fill="#C6EEFF"/>
<path fill-rule="evenodd" clip-rule="evenodd" d="M100.211 7.07076C100.724 7.27481 100.975 7.85627 100.771 8.36947C100.258 9.6586 99.9509 11.0725 99.6962 12.5717C99.6073 13.0948 99.5233 13.6397 99.4381 14.1925C99.2862 15.1778 99.1305 16.1881 98.9363 17.1446C98.8263 17.6859 98.2985 18.0355 97.7572 17.9256C97.216 17.8157 96.8663 17.2878 96.9763 16.7466C97.1628 15.8278 97.3037 14.9115 97.4491 13.9656C97.5357 13.402 97.624 12.8279 97.7244 12.2366C97.9861 10.6969 98.321 9.11766 98.9123 7.63052C99.1163 7.11732 99.6978 6.8667 100.211 7.07076Z" fill="#84DAFF"/>
<path fill-rule="evenodd" clip-rule="evenodd" d="M116.404 13.4721C116.696 13.9411 116.552 14.5577 116.083 14.8493C113.047 16.7367 110.203 18.8213 107.338 21.0266C106.901 21.3635 106.273 21.2819 105.936 20.8443C105.599 20.4067 105.681 19.7788 106.118 19.4419C109.004 17.2203 111.908 15.0895 115.027 13.1507C115.496 12.8592 116.113 13.003 116.404 13.4721Z" fill="#84DAFF"/>
<path fill-rule="evenodd" clip-rule="evenodd" d="M119.81 27.568C119.874 28.1166 119.481 28.6131 118.932 28.6771C116.253 28.9893 113.661 29.0011 110.993 28.9813C110.44 28.9772 109.996 28.5261 110 27.9738C110.004 27.4216 110.455 26.9772 111.007 26.9813C113.671 27.0012 116.155 26.9872 118.701 26.6905C119.249 26.6266 119.746 27.0195 119.81 27.568Z" fill="#84DAFF"/>
<path fill-rule="evenodd" clip-rule="evenodd" d="M117.567 72.5893C116.65 70.9467 115.376 69.4592 114.487 68.5984L115.182 67.88C116.125 68.7926 117.466 70.3559 118.44 72.1017C119.402 73.8229 120.08 75.8517 119.479 77.625L118.532 77.3039C118.99 75.9534 118.498 74.2564 117.567 72.5893Z" fill="#E6F7FF"/>
<path fill-rule="evenodd" clip-rule="evenodd" d="M121.414 70.3082C120.497 68.6657 119.222 67.1782 118.333 66.3173L119.029 65.5989C119.972 66.5116 121.312 68.0749 122.287 69.8206C123.248 71.5419 123.927 73.5707 123.325 75.344L122.378 75.0229C122.836 73.6724 122.345 71.9753 121.414 70.3082Z" fill="#E6F7FF"/>
<path d="M93.4599 97.6669C105.269 92.6476 112.506 83.0833 109.625 76.3044C106.743 69.5255 94.8346 68.099 83.0258 73.1182C71.2169 78.1375 63.9798 87.7018 66.8611 94.4807C69.7424 101.26 81.6511 102.686 93.4599 97.6669Z" fill="#0760A1"/>
<path d="M109.625 76.3044C112.506 83.0841 105.277 92.6608 93.4659 97.6809C81.655 102.701 69.7392 101.262 66.8576 94.4821L68.3155 97.9124C71.1957 104.689 83.102 106.115 94.9094 101.097C106.717 96.0779 113.956 86.5137 111.076 79.7376L109.618 76.3074L109.625 76.3044Z" fill="#1D2D36"/>
<path d="M92.8376 96.2028C81.8729 100.863 70.8907 99.8066 68.3567 93.845C65.8228 87.8833 72.6833 79.2428 83.648 74.5823C94.6128 69.9218 105.599 70.977 108.132 76.9386C110.666 82.9003 103.806 91.5409 92.8376 96.2028ZM83.8062 74.9544C73.0451 79.5284 66.278 87.9303 68.7254 93.6883C71.1728 99.4462 81.9184 100.405 92.6795 95.8306C103.441 91.2567 110.206 82.8513 107.76 77.0968C105.314 71.3424 94.5708 70.379 83.8062 74.9544Z" fill="#84DAFF"/>
<path d="M65.1988 31.1763C54.234 35.8367 43.2503 34.7765 40.7164 28.8149C38.1824 22.8533 45.0429 14.2127 56.0077 9.55224C66.9724 4.89178 77.9581 5.94699 80.4921 11.9086C83.026 17.8702 76.167 26.5143 65.1988 31.1763ZM56.1659 9.92441C45.4047 14.4983 38.6391 22.9038 41.085 28.6582C43.5309 34.4127 54.2795 35.378 65.0406 30.8041C75.8017 26.2302 82.5628 17.8142 80.1199 12.0668C77.677 6.31934 66.9305 5.349 56.1659 9.92441Z" fill="url(#paint1_linear_203_580)"/>
<path d="M107.762 77.1003L107.76 77.0968L108.132 76.9386L107.762 77.1003Z" fill="url(#paint2_linear_203_580)"/>
<path d="M68.3582 93.8484L68.3567 93.8449L68.7289 93.6867L68.3582 93.8484Z" fill="url(#paint3_linear_203_580)"/>
<path d="M108.132 76.9386L107.76 77.0968C105.313 71.3388 94.5708 70.379 83.8062 74.9544C73.0416 79.5298 66.278 87.9303 68.7254 93.6883L68.3743 93.8375L63.5347 82.4514C62.2032 79.346 61.7383 75.9377 62.1894 72.589C62.6405 69.2404 63.9908 66.0766 66.0967 63.4343L70.2851 58.201C70.6572 57.7328 70.8961 57.1728 70.9765 56.5802C71.0569 55.9875 70.9759 55.3841 70.7419 54.8337C70.5079 54.2832 70.1297 53.8061 69.6472 53.4527C69.1647 53.0993 68.5957 52.8827 68.0003 52.8258L61.3258 52.2097C57.9628 51.8963 54.7476 50.6775 52.0218 48.6829C49.296 46.6884 47.1616 43.9926 45.8453 40.8821L40.9207 29.2959L41.314 29.1287L41.3841 29.2938C44.348 34.5213 54.7303 35.1905 65.0244 30.815C75.3186 26.4396 82.0452 18.4984 80.3382 12.7366L80.2856 12.5642L80.6789 12.397L85.6035 23.9832C86.9339 27.0888 87.3979 30.497 86.9459 33.8452C86.4939 37.1935 85.1429 40.3567 83.0365 42.9983L78.8447 48.2331C78.4738 48.7017 78.236 49.2615 78.1563 49.8538C78.0766 50.446 78.1579 51.0488 78.3916 51.5988C78.6254 52.1488 79.003 52.6256 79.4848 52.9792C79.9665 53.3329 80.5346 53.5502 81.1294 53.6083L87.8074 54.2229C94.6935 55.1221 100.62 59.4678 103.281 65.5741L108.132 76.9386ZM83.648 74.5823C93.3032 70.4784 102.968 70.8059 106.872 75.0078L102.921 65.7108C100.319 59.7364 94.5141 55.4802 87.7752 54.6055L81.1057 53.9915C80.438 53.9268 79.8 53.6833 79.259 53.2866C78.7181 52.8899 78.294 52.3547 78.0316 51.7373C77.7692 51.1199 77.6781 50.4432 77.7679 49.7784C77.8577 49.1136 78.1251 48.4853 78.5419 47.9597L82.7338 42.7249C84.7932 40.1423 86.1145 37.05 86.5573 33.7766C87.0001 30.5032 86.548 27.171 85.2489 24.1339L81.0107 14.1628C81.3437 19.92 74.8106 27.1073 65.2046 31.1903C55.5986 35.2732 45.8935 34.9878 41.9758 30.7542L46.214 40.7254C47.4984 43.7718 49.5846 46.413 52.2507 48.3681C54.9167 50.3233 58.0629 51.5192 61.3545 51.8286L68.0325 52.4431C68.7003 52.5078 69.3382 52.7513 69.8792 53.148C70.4202 53.5447 70.8442 54.0799 71.1066 54.6973C71.369 55.3147 71.4601 55.9914 71.3703 56.6562C71.2805 57.321 71.0131 57.9493 70.5963 58.475L66.4044 63.7097C64.3426 66.2942 63.0201 69.3894 62.5776 72.6658C62.1352 75.9423 62.5893 79.2774 63.8918 82.3162L67.8375 91.5992C67.5214 85.8722 73.9964 78.6846 83.648 74.5823Z" fill="#0760A1"/>
<path fill-rule="evenodd" clip-rule="evenodd" d="M108.395 77.0443L107.654 77.3591L107.576 77.1751C106.395 74.397 103.192 72.735 98.8844 72.3498C94.5861 71.9655 89.2425 72.8611 83.8844 75.1385C78.5264 77.4159 74.1733 80.6418 71.4671 84.0033C68.7548 87.3724 67.7287 90.832 68.9094 93.61L68.9877 93.7941L68.2685 94.0998L63.3508 82.53C62.0051 79.3914 61.5352 75.9467 61.9912 72.5623C62.4471 69.1779 63.8119 65.9803 65.9403 63.3096L70.1285 58.0766C70.1286 58.0764 70.1284 58.0768 70.1285 58.0766C70.478 57.6367 70.7028 57.1101 70.7783 56.5533C70.8539 55.9963 70.7777 55.4292 70.5578 54.9119C70.338 54.3946 69.9825 53.9462 69.529 53.6141C69.0757 53.2821 68.5413 53.0786 67.982 53.0249C67.9817 53.0249 67.9822 53.0249 67.982 53.0249L61.3074 52.4089C57.9084 52.0921 54.6586 50.8602 51.9037 48.8443C49.1488 46.8285 46.9916 44.1039 45.6612 40.9602C45.6612 40.9601 45.6612 40.9602 45.6612 40.9602L40.6584 29.1901L41.4198 28.8664L41.5637 29.2049C41.5618 29.2017 41.5599 29.1984 41.5581 29.1951L41.3841 29.2938L41.5682 29.2155L41.5637 29.2049C42.9993 31.726 46.248 33.1842 50.4683 33.4559C54.6848 33.7274 59.8227 32.8087 64.9462 30.631C70.0697 28.4533 74.2976 25.3911 77.0291 22.1665C79.7664 18.9351 80.9713 15.5796 80.1468 12.7945L80.3382 12.7366L80.1465 12.7935L80.0419 12.4505L80.7847 12.1347L85.7873 23.9045C87.132 27.0433 87.6009 30.4879 87.1441 33.872C86.6872 37.2561 85.3218 40.4531 83.1929 43.123L79.0015 48.3572C79.0014 48.3573 79.0016 48.357 79.0015 48.3572C78.6531 48.7975 78.4294 49.324 78.3545 49.8805C78.2796 50.4371 78.356 51.0037 78.5757 51.5206C78.7954 52.0375 79.1503 52.4857 79.6031 52.818C80.0557 53.1503 80.5895 53.3545 81.1483 53.4093C81.1485 53.4093 81.1481 53.4092 81.1483 53.4093L87.8334 54.0244C94.7854 54.9323 100.773 59.3202 103.465 65.4942L103.465 65.4956L108.395 77.0443ZM66.0967 63.4343L70.2851 58.2011C70.6572 57.7328 70.8961 57.1729 70.9765 56.5802C71.0569 55.9875 70.9759 55.3841 70.7419 54.8337C70.5079 54.2832 70.1297 53.8062 69.6472 53.4527C69.1647 53.0993 68.5957 52.8827 68.0003 52.8258M70.5963 58.475L66.4044 63.7097C64.3426 66.2942 63.0201 69.3894 62.5776 72.6659C62.1352 75.9423 62.5893 79.2774 63.8918 82.3162L67.8375 91.5992C67.8277 91.4223 67.8244 91.2441 67.8275 91.0645C67.9244 85.4311 74.2945 78.5579 83.648 74.5823C93.005 70.6052 102.371 70.7899 106.494 74.6296C106.626 74.7519 106.752 74.878 106.872 75.0078L102.921 65.7108C100.319 59.7364 94.5141 55.4802 87.7752 54.6055L81.1057 53.9915C80.438 53.9268 79.8 53.6833 79.259 53.2866C78.7181 52.8899 78.294 52.3547 78.0316 51.7373C77.7692 51.1199 77.6781 50.4432 77.7679 49.7784C77.8577 49.1136 78.1251 48.4853 78.5419 47.9597L82.7338 42.7249C84.7932 40.1423 86.1145 37.05 86.5573 33.7766C87.0001 30.5032 86.548 27.171 85.2489 24.1339L81.0107 14.1628C81.021 14.3408 81.0248 14.5201 81.022 14.7007C80.9368 20.3614 74.5137 27.2336 65.2046 31.1903C55.8951 35.1472 46.4925 35.0012 42.355 31.135C42.2232 31.0118 42.0968 30.8849 41.9758 30.7542L46.214 40.7254C47.4984 43.7718 49.5846 46.413 52.2507 48.3682C54.9167 50.3233 58.0629 51.5192 61.3545 51.8286L68.0325 52.4432C68.7003 52.5078 69.3382 52.7513 69.8792 53.148C70.4202 53.5447 70.8442 54.0799 71.1066 54.6973C71.369 55.3147 71.4601 55.9914 71.3703 56.6562C71.2805 57.3211 71.0131 57.9494 70.5963 58.475ZM42.537 31.5632L46.398 40.6471C47.6684 43.6602 49.7321 46.2731 52.369 48.2069C55.0058 50.1406 58.1176 51.3234 61.3732 51.6295L68.0509 52.244C68.7544 52.3121 69.4275 52.5688 69.9974 52.9867C70.5674 53.4047 71.0142 53.9686 71.2907 54.6191C71.5671 55.2696 71.6631 55.9826 71.5685 56.683C71.4739 57.3835 71.1922 58.0454 70.753 58.5993L66.5608 63.8344M42.537 31.5632C44.6041 33.2987 47.7615 34.21 51.4527 34.2909C55.6016 34.3818 60.4575 33.4253 65.2829 31.3743C70.1082 29.3234 74.1676 26.4905 76.9818 23.44C79.4852 20.7264 81.0201 17.8212 81.2042 15.1293L85.0648 24.2122C86.3497 27.216 86.7971 30.5122 86.3591 33.7498C85.9211 36.9872 84.6144 40.0456 82.5777 42.5999M82.5777 42.5999L78.3858 47.8346C77.9466 48.3885 77.6643 49.0512 77.5697 49.7516C77.4751 50.4521 77.5711 51.1651 77.8476 51.8156C78.124 52.466 78.5708 53.03 79.1408 53.4479C79.7108 53.8659 80.3829 54.1224 81.0864 54.1906L87.7531 54.8043C94.4241 55.6715 100.165 59.8847 102.737 65.7898L106.313 74.2027C104.253 72.4785 101.107 71.5648 97.4214 71.4804C93.278 71.3856 88.4198 72.3368 83.5698 74.3982C78.7215 76.4589 74.6652 79.2968 71.8577 82.346C69.3601 85.0588 67.8342 87.958 67.6461 90.6377L64.0759 82.238C62.7876 79.2324 62.3382 75.9332 62.7758 72.6926C63.2134 69.4521 64.5216 66.3906 66.5608 63.8344M68.7254 93.6883L68.3743 93.8375L63.5347 82.4514C62.2032 79.346 61.7383 75.9377 62.1894 72.5891C62.6405 69.2404 63.9908 66.0767 66.0967 63.4343M68.7254 93.6883C66.278 87.9303 73.0416 79.5299 83.8062 74.9544C94.5708 70.379 105.313 71.3388 107.76 77.0968L108.132 76.9386L103.281 65.5741C100.62 59.4678 94.6935 55.1221 87.8074 54.2229L81.1294 53.6084C80.5346 53.5502 79.9665 53.3329 79.4848 52.9793C79.003 52.6256 78.6254 52.1488 78.3916 51.5988C78.1579 51.0488 78.0766 50.446 78.1563 49.8538C78.236 49.2615 78.4738 48.7017 78.8447 48.2331L83.0365 42.9984C85.1429 40.3567 86.4939 37.1935 86.9459 33.8453C87.3979 30.497 86.9339 27.0888 85.6035 23.9832L80.6789 12.397L80.4948 12.4753" fill="#0760A1"/>
<path d="M81.6174 65.1527C80.9841 65.0776 80.3422 65.1693 79.7552 65.4188C79.1683 65.6682 78.6568 66.0668 78.2714 66.5749C74.9236 70.9866 66.2601 83.0216 68.0822 87.3085C70.3311 92.5995 80.107 93.5099 89.9202 89.3389C99.7333 85.1679 105.866 77.4959 103.617 72.2049C101.795 67.918 87.1171 65.8038 81.6174 65.1527Z" fill="url(#paint4_linear_203_580)"/>
<path opacity="0.3" d="M81.6174 65.1527C80.9841 65.0776 80.3422 65.1693 79.7552 65.4188C79.1683 65.6682 78.6568 66.0668 78.2714 66.5749C74.9236 70.9866 66.2601 83.0216 68.0822 87.3085C70.3311 92.5995 80.107 93.5099 89.9202 89.3389C99.7333 85.1679 105.866 77.4959 103.617 72.2049C101.795 67.918 87.1171 65.8038 81.6174 65.1527Z" fill="white"/>
<path d="M89.9202 89.3389C80.107 93.5099 70.3311 92.5995 68.0822 87.3085L70.1461 92.1642C72.395 97.4552 82.1744 98.364 91.984 94.1945C101.794 90.025 107.929 82.3516 105.681 77.0606L103.617 72.2049C105.866 77.4959 99.7333 85.1679 89.9202 89.3389Z" fill="url(#paint5_linear_203_580)"/>
<path d="M43.1189 28.5771L47.5959 39.11C48.7688 41.8864 50.6714 44.2936 53.1018 46.0761C55.5322 47.8587 58.3997 48.9502 61.4003 49.2349L67.4364 49.7824C67.528 49.7932 67.6196 49.804 67.7057 49.8213C67.9291 49.859 68.1509 49.8933 68.3767 49.9175C69.649 50.1191 70.849 50.6414 71.8637 51.435C72.8783 52.2286 73.6743 53.2675 74.1764 54.4537L76.1164 59.018C76.2055 59.23 76.3749 59.3982 76.5877 59.4857C76.8004 59.5732 77.0392 59.5728 77.2517 59.4847C77.4629 59.3927 77.6292 59.2211 77.7145 59.007C77.7998 58.793 77.797 58.554 77.7069 58.3419L75.7669 53.7777C75.2615 52.5933 75.0656 51.2998 75.1977 50.0189C75.3298 48.7379 75.7856 47.5116 76.5221 46.4553C76.6614 46.2759 76.7837 46.0955 76.922 45.904C76.9693 45.83 77.0252 45.7566 77.081 45.6831L80.8581 40.9646C82.7354 38.6066 83.9395 35.7845 84.3426 32.7975C84.7457 29.8106 84.3329 26.7702 83.1479 23.9989L78.671 13.466L43.1189 28.5771Z" fill="url(#paint6_linear_203_580)"/>
<path d="M79.0803 61.6216C79.0126 61.4644 78.9 61.3308 78.7564 61.2376C78.6129 61.1444 78.445 61.0958 78.2739 61.0979C78.1028 61.1001 77.9362 61.1529 77.795 61.2496C77.6539 61.3464 77.5446 61.4828 77.4809 61.6416C77.4172 61.8005 77.402 61.9746 77.4372 62.1421C77.4724 62.3095 77.5565 62.4628 77.6787 62.5826C77.801 62.7023 77.9559 62.7832 78.1241 62.8149C78.2922 62.8466 78.466 62.8279 78.6235 62.7609C78.8341 62.6692 79.0002 62.4982 79.0857 62.285C79.1712 62.0718 79.1692 61.8334 79.0803 61.6216Z" fill="url(#paint7_linear_203_580)"/>
<path opacity="0.3" d="M43.1189 28.5771L47.5959 39.11C48.7688 41.8864 50.6714 44.2936 53.1018 46.0761C55.5322 47.8587 58.3997 48.9502 61.4003 49.2349L67.4364 49.7824C67.528 49.7932 67.6196 49.804 67.7057 49.8213C67.9291 49.859 68.1509 49.8933 68.3767 49.9175C69.649 50.1191 70.849 50.6414 71.8637 51.435C72.8783 52.2286 73.6743 53.2675 74.1764 54.4537L76.1164 59.018C76.2055 59.23 76.3749 59.3982 76.5877 59.4857C76.8004 59.5732 77.0392 59.5728 77.2517 59.4847C77.4629 59.3927 77.6292 59.2211 77.7145 59.007C77.7998 58.793 77.797 58.554 77.7069 58.3419L75.7669 53.7777C75.2615 52.5933 75.0656 51.2998 75.1977 50.0189C75.3298 48.7379 75.7856 47.5116 76.5221 46.4553C76.6614 46.2759 76.7837 46.0955 76.922 45.904C76.9693 45.83 77.0252 45.7566 77.081 45.6831L80.8581 40.9646C82.7354 38.6066 83.9395 35.7845 84.3426 32.7975C84.7457 29.8106 84.3329 26.7702 83.1479 23.9989L78.671 13.466L43.1189 28.5771Z" fill="white"/>
<g opacity="0.3">
<path opacity="0.3" d="M79.0803 61.6216C79.0126 61.4644 78.9 61.3308 78.7564 61.2376C78.6129 61.1444 78.445 61.0958 78.2739 61.0979C78.1028 61.1001 77.9362 61.1529 77.795 61.2496C77.6539 61.3464 77.5446 61.4828 77.4809 61.6416C77.4172 61.8005 77.402 61.9746 77.4372 62.1421C77.4724 62.3095 77.5565 62.4628 77.6787 62.5826C77.801 62.7023 77.9559 62.7832 78.1241 62.8149C78.2922 62.8466 78.466 62.8279 78.6235 62.7609C78.8341 62.6692 79.0002 62.4982 79.0857 62.285C79.1712 62.0718 79.1692 61.8334 79.0803 61.6216Z" fill="white"/>
</g>
<path d="M64.9569 30.6075C74.7705 26.4363 80.9026 18.7652 78.6534 13.4735C76.4042 8.18183 66.6255 7.27347 56.8119 11.4446C46.9984 15.6158 40.8663 23.2869 43.1154 28.5786C45.3646 33.8703 55.1434 34.7786 64.9569 30.6075Z" fill="url(#paint8_linear_203_580)"/>
<g style="mix-blend-mode:overlay" opacity="0.5">
<g style="mix-blend-mode:overlay" opacity="0.7">
<path d="M74.3156 56.6827L72.1039 61.0758C69.8494 65.5243 70.1415 72.2191 72.8142 78.5073L81.3293 98.5408C80.1002 98.63 78.8662 98.628 77.6375 98.5348L69.6895 79.8354C67.0167 73.5473 67.0582 66.7107 69.8042 62.0533L72.5109 57.4498C73.6397 55.5316 72.2489 52.2594 70.0874 51.748L64.8945 50.5022C59.6495 49.2412 54.6829 44.5292 52.0176 38.2586L47.1706 26.855L50.2954 25.5268L55.1424 36.9304C57.8151 43.2186 62.4517 48.0709 67.2016 49.5423L71.8995 50.9985C73.8429 51.5819 75.2337 54.8541 74.3156 56.6827Z" fill="white"/>
</g>
</g>
<path d="M65.8195 32.6368C77.6283 27.6176 84.8655 18.0533 81.9841 11.2743C79.1028 4.49541 67.1941 3.0689 55.3853 8.08814C43.5765 13.1074 36.3393 22.6717 39.2206 29.4506C42.1019 36.2295 54.0106 37.656 65.8195 32.6368Z" fill="#0760A1"/>
<path d="M81.9841 11.2743C84.8658 18.054 77.6363 27.6307 65.8254 32.6509C54.0146 37.671 42.0987 36.2318 39.2171 29.4521L40.6751 32.8823C43.5567 39.662 55.469 41.1027 67.2764 36.084C79.0838 31.0654 86.3227 21.5013 83.4351 14.7075L81.9771 11.2773L81.9841 11.2743Z" fill="#1D2D36"/>
<g filter="url(#filter0_b_203_580)">
<path d="M51.0458 89.2848C45.5966 98.7231 33.5279 101.957 24.0896 96.5077C14.6513 91.0585 11.4175 78.9898 16.8667 69.5515C22.3159 60.1131 34.3846 56.8793 43.8229 62.3286C53.2612 67.7778 56.495 79.8465 51.0458 89.2848Z" fill="white" fill-opacity="0.6"/>
</g>
<g filter="url(#filter1_b_203_580)">
<path fill-rule="evenodd" clip-rule="evenodd" d="M43.9455 62.6495C34.7384 57.3338 22.9653 60.4884 17.6495 69.6955C12.3338 78.9026 15.4884 90.6758 24.6955 95.9915C30.0216 99.0665 36.9082 99.3035 42.4917 97.0529C42.8759 96.8981 43.3129 97.084 43.4677 97.4682C43.6226 97.8523 43.4367 98.2893 43.0525 98.4442C37.0783 100.852 29.7046 100.616 23.9455 97.2905C14.0209 91.5606 10.6205 78.8701 16.3505 68.9455C22.0804 59.0209 34.7709 55.6205 44.6955 61.3505C45.0542 61.5576 45.1771 62.0163 44.97 62.375C44.7629 62.7337 44.3042 62.8566 43.9455 62.6495Z" fill="#0F75C1"/>
</g>
<path fill-rule="evenodd" clip-rule="evenodd" d="M33.767 70C31.6981 70 29.7838 70.6742 28.2231 71.822C27.7782 72.1492 27.1485 72.1244 26.7767 71.7161C26.4049 71.3077 26.4321 70.6713 26.871 70.3361C28.7899 68.8708 31.1784 68 33.767 68C36.8544 68 39.6565 69.2385 41.7173 71.2468C43.8969 73.3708 45.2525 76.3602 45.2525 79.6667C45.2525 81.5708 44.8027 83.3709 44.0042 84.9611C43.7564 85.4546 43.1364 85.6002 42.6658 85.3111C42.1952 85.0221 42.0531 84.408 42.2923 83.9102C42.9069 82.6303 43.2525 81.1909 43.2525 79.6667C43.2525 76.9162 42.1268 74.4384 40.3215 72.6791C38.6156 71.0168 36.3076 70 33.767 70ZM24.8788 74.0051C25.3488 74.295 25.4897 74.9093 25.2497 75.4067C24.63 76.6907 24.2815 78.1359 24.2815 79.6667C24.2815 85.0216 28.5444 89.3333 33.767 89.3333C35.8359 89.3333 37.7502 88.6592 39.3109 87.5114C39.7558 87.1841 40.3855 87.2089 40.7573 87.6173C41.1291 88.0256 41.1019 88.662 40.663 88.9972C38.7441 90.4626 36.3556 91.3333 33.767 91.3333C27.4077 91.3333 22.2815 86.0938 22.2815 79.6667C22.2815 77.7547 22.735 75.9476 23.5397 74.3526C23.7884 73.8595 24.4087 73.7152 24.8788 74.0051Z" fill="#1C98F2"/>
<path d="M21.7789 73.2104C21.2413 73.3365 20.9043 73.8754 21.0264 74.414C21.1485 74.9526 21.6834 75.287 22.2211 75.1609L21.7789 73.2104ZM25.2175 77.0798C25.3396 77.6184 25.8745 77.9528 26.4122 77.8267C26.9498 77.7005 27.2868 77.1617 27.1647 76.623L25.2175 77.0798ZM22.2211 75.1609L25.3672 74.4229L24.9251 72.4724L21.7789 73.2104L22.2211 75.1609ZM24.4912 73.8752L25.2175 77.0798L27.1647 76.623L26.4383 73.4185L24.4912 73.8752ZM25.3672 74.4229C24.9729 74.5154 24.5807 74.2702 24.4912 73.8752L26.4383 73.4185C26.2837 72.7362 25.6062 72.3126 24.9251 72.4724L25.3672 74.4229Z" fill="#1C98F2"/>
<path d="M46.3709 85.0746C46.8813 84.8636 47.129 84.2768 46.9242 83.764C46.7193 83.2511 46.1395 83.0063 45.6291 83.2172L46.3709 85.0746ZM42.3705 81.8081C42.1657 81.2952 41.5859 81.0505 41.0755 81.2614C40.565 81.4724 40.3173 82.0592 40.5222 82.5721L42.3705 81.8081ZM45.6291 83.2172L42.6374 84.4536L43.3792 86.311L46.3709 85.0746L45.6291 83.2172ZM43.5872 84.8546L42.3705 81.8081L40.5222 82.5721L41.7388 85.6185L43.5872 84.8546ZM42.6374 84.4536C43.0117 84.299 43.4369 84.4785 43.5872 84.8546L41.7388 85.6185C41.9982 86.2682 42.7327 86.5782 43.3792 86.311L42.6374 84.4536Z" fill="#1C98F2"/>
<defs>
<filter id="filter0_b_203_580" x="9.95294" y="55.4148" width="48.0066" height="48.0066" filterUnits="userSpaceOnUse" color-interpolation-filters="sRGB">
<feFlood flood-opacity="0" result="BackgroundImageFix"/>
<feGaussianBlur in="BackgroundImage" stdDeviation="2.13333"/>
<feComposite in2="SourceAlpha" operator="in" result="effect1_backgroundBlur_203_580"/>
<feBlend mode="normal" in="SourceGraphic" in2="effect1_backgroundBlur_203_580" result="shape"/>
</filter>
<filter id="filter1_b_203_580" x="9.30038" y="54.3004" width="40.0369" height="50.0152" filterUnits="userSpaceOnUse" color-interpolation-filters="sRGB">
<feFlood flood-opacity="0" result="BackgroundImageFix"/>
<feGaussianBlur in="BackgroundImage" stdDeviation="2.13333"/>
<feComposite in2="SourceAlpha" operator="in" result="effect1_backgroundBlur_203_580"/>
<feBlend mode="normal" in="SourceGraphic" in2="effect1_backgroundBlur_203_580" result="shape"/>
</filter>
<linearGradient id="paint0_linear_203_580" x1="8.72087" y1="36.9102" x2="144.359" y2="25.8303" gradientUnits="userSpaceOnUse">
<stop offset="0.0647845" stop-color="#1C85E8"/>
<stop offset="1" stop-color="#57C6FF" stop-opacity="0.5"/>
<stop offset="1" stop-color="#57C6FF" stop-opacity="0.5"/>
</linearGradient>
<linearGradient id="paint1_linear_203_580" x1="49.0548" y1="37.0104" x2="46.3736" y2="7.56966" gradientUnits="userSpaceOnUse">
<stop offset="0.0647845" stop-color="#1C85E8"/>
<stop offset="1" stop-color="#57C6FF"/>
</linearGradient>
<linearGradient id="paint2_linear_203_580" x1="107.8" y1="77.0838" x2="107.798" y2="77.0792" gradientUnits="userSpaceOnUse">
<stop offset="0.0647845" stop-color="#1C85E8"/>
<stop offset="1" stop-color="#57C6FF"/>
</linearGradient>
<linearGradient id="paint3_linear_203_580" x1="68.3966" y1="93.8319" x2="68.3947" y2="93.8273" gradientUnits="userSpaceOnUse">
<stop offset="0.0647845" stop-color="#1C85E8"/>
<stop offset="1" stop-color="#57C6FF"/>
</linearGradient>
<linearGradient id="paint4_linear_203_580" x1="75.4191" y1="94.3656" x2="74.6839" y2="62.4608" gradientUnits="userSpaceOnUse">
<stop offset="0.0647845" stop-color="#1C85E8"/>
<stop offset="1" stop-color="#57C6FF"/>
</linearGradient>
<linearGradient id="paint5_linear_203_580" x1="77.6452" y1="99.603" x2="74.3124" y2="79.7219" gradientUnits="userSpaceOnUse">
<stop offset="0.0647845" stop-color="#1C85E8"/>
<stop offset="1" stop-color="#57C6FF"/>
</linearGradient>
<linearGradient id="paint6_linear_203_580" x1="62.486" y1="63.9326" x2="70.2353" y2="18.0539" gradientUnits="userSpaceOnUse">
<stop offset="0.0647845" stop-color="#1C85E8"/>
<stop offset="1" stop-color="#57C6FF"/>
</linearGradient>
<linearGradient id="paint7_linear_203_580" x1="77.964" y1="62.9655" x2="78.2237" y2="61.0123" gradientUnits="userSpaceOnUse">
<stop offset="0.0647845" stop-color="#1C85E8"/>
<stop offset="1" stop-color="#57C6FF"/>
</linearGradient>
<linearGradient id="paint8_linear_203_580" x1="50.5341" y1="35.827" x2="48.0942" y2="9.72302" gradientUnits="userSpaceOnUse">
<stop offset="0.0647845" stop-color="#1C85E8"/>
<stop offset="1" stop-color="#57C6FF"/>
</linearGradient>
</defs>
</svg>
