<svg width="160" height="160" viewBox="0 0 160 160" fill="none" xmlns="http://www.w3.org/2000/svg">
<path opacity="0.9" d="M134.648 121.029C108.85 164.949 14.2508 156.476 8.55883 113.5C2.86689 70.5243 60.0807 86.3239 71.814 55.2399C79.1581 35.784 90.0547 25.2427 97.7812 22.8212C138.658 9.85335 160.446 77.1099 134.648 121.029Z" fill="url(#paint0_linear_160_214)"/>
<path d="M94.5899 146.7L49.6399 153.716C46.6442 154.167 43.5897 151.676 42.8228 148.112L19.4793 39.8046C18.1258 34.6974 22.7232 31.9768 25.7189 31.5076L68.4627 25.489C71.4585 25.0378 74.5084 27.5283 75.2799 31.0925L101.624 139.224C102.391 142.793 100.545 145.811 94.5899 146.7Z" fill="#1C98F2"/>
<path d="M48.9181 154C46.0712 154 43.3326 151.537 42.6017 148.162L19.2582 39.8497C19.0035 39.0042 18.9362 38.1133 19.0608 37.2391C19.1855 36.3648 19.4992 35.5283 19.9801 34.7876C21.3877 32.64 23.9323 31.5572 25.6874 31.2865L68.4311 25.2634C71.5352 24.7807 74.7069 27.3749 75.4964 31.0474L101.84 139.175C102.043 139.936 102.083 140.731 101.957 141.509C101.831 142.286 101.542 143.028 101.109 143.686C99.9543 145.356 97.7751 146.438 94.6215 146.912L49.676 153.928C49.4257 153.972 49.1722 153.996 48.9181 154ZM69.1846 25.6559C68.9534 25.656 68.7226 25.6741 68.4943 25.7101L25.7505 31.7332C24.0947 31.9904 21.69 33.01 20.3591 35.0358C19.9118 35.725 19.6207 36.5038 19.5061 37.3174C19.3915 38.1311 19.4563 38.96 19.6958 39.746L43.0438 148.063C43.7883 151.51 46.7299 153.928 49.6038 153.477L94.5538 146.443C97.5811 145.992 99.661 144.968 100.735 143.407C101.134 142.798 101.4 142.112 101.515 141.394C101.63 140.675 101.592 139.94 101.403 139.238L75.0588 31.1467C74.3775 27.975 71.8284 25.6559 69.1846 25.6559Z" fill="#0760A1"/>
<path d="M97.6623 145.473L52.7214 152.489C49.7257 152.94 46.6757 150.445 45.9088 146.881L22.5517 38.5729C21.7848 35.0087 23.5894 31.7422 26.5852 31.273L71.5352 24.2573C74.5309 23.8062 77.5853 26.3011 78.3523 29.8654L101.696 138.173C102.467 141.737 100.658 145.004 97.6623 145.473Z" fill="#0760A1"/>
<path d="M51.995 152.759C49.1437 152.759 46.4051 150.296 45.6787 146.921L22.3307 38.6135C22.112 37.6953 22.0812 36.7424 22.2401 35.812C22.3991 34.8817 22.7445 33.993 23.2556 33.1995C23.6289 32.6379 24.1141 32.1593 24.6808 31.7937C25.2475 31.428 25.8835 31.1832 26.5491 31.0745L71.4991 24.0588C74.6076 23.5716 77.7793 26.1658 78.5734 29.8383L101.899 138.119C102.125 139.04 102.161 139.998 102.006 140.934C101.851 141.87 101.508 142.765 100.997 143.564C100.622 144.126 100.136 144.604 99.5684 144.97C99.001 145.335 98.3645 145.58 97.6985 145.689L52.7485 152.705C52.4992 152.744 52.2472 152.762 51.995 152.759ZM72.2615 24.4198C72.0304 24.4198 71.7996 24.4379 71.5713 24.4739L26.6213 31.4896C26.0156 31.5886 25.4369 31.8116 24.9214 32.1446C24.4059 32.4777 23.9647 32.9136 23.6255 33.4251C23.1471 34.1727 22.8249 35.0094 22.6784 35.8847C22.5318 36.7601 22.564 37.6561 22.7728 38.5188L46.1163 146.826C46.8607 150.269 49.8024 152.692 52.6808 152.24L97.6308 145.22C98.2358 145.121 98.8139 144.898 99.3286 144.565C99.8434 144.232 100.284 143.796 100.622 143.285C101.102 142.538 101.426 141.701 101.573 140.826C101.721 139.95 101.689 139.054 101.479 138.191L78.1313 29.9105C77.45 26.7523 74.9009 24.4288 72.2661 24.4288L72.2615 24.4198Z" fill="#0760A1"/>
<path d="M97.8834 132.606L47.1404 140.524L25.8949 41.9477L76.6333 34.0251L97.8834 132.606Z" fill="#C6EEFF"/>
<path d="M47.1404 140.749C47.0896 140.749 47.0403 140.732 47.0009 140.7C46.9614 140.668 46.9342 140.623 46.9239 140.573L25.6738 41.9928C25.6617 41.9322 25.6729 41.8694 25.7054 41.8168C25.7233 41.7915 25.7461 41.7701 25.7724 41.7538C25.7988 41.7375 25.8282 41.7267 25.8588 41.7221L76.5972 33.8041C76.6544 33.7958 76.7125 33.8093 76.7601 33.8419C76.8078 33.8745 76.8414 33.9238 76.8544 33.98L98.1045 132.556C98.1111 132.586 98.1113 132.617 98.1051 132.648C98.0989 132.678 98.0864 132.707 98.0684 132.732C98.033 132.782 97.9795 132.816 97.9195 132.827L47.1765 140.749H47.1404ZM26.1656 42.1326L47.3074 140.271L97.6037 132.421L76.4574 34.2823L26.1656 42.1326Z" fill="#0760A1"/>
<path d="M38.349 78.4343L36.0379 83.1601L36.4432 83.3583L38.7543 78.6325L38.349 78.4343Z" fill="white"/>
<path d="M57.7298 38.8323L40.4306 74.2069L40.8359 74.4051L58.1351 39.0305L57.7298 38.8323Z" fill="white"/>
<path d="M52.326 39.1526L45.0864 53.0184L45.4863 53.2272L52.726 39.3614L52.326 39.1526Z" fill="white"/>
<path d="M86.2934 117.656L78.2629 133.54L78.6655 133.744L86.6961 117.86L86.2934 117.656Z" fill="white"/>
<path d="M90.0163 110.316L87.5206 115.253L87.9233 115.456L90.4189 110.52L90.0163 110.316Z" fill="white"/>
<path d="M57.3007 32.3829L43.2829 34.553C42.9848 34.5695 42.6913 34.4733 42.4607 34.2836C42.2301 34.094 42.0791 33.8246 42.0377 33.5288C41.9929 33.3994 41.974 33.2624 41.9821 33.1256C41.9903 32.9889 42.0253 32.8551 42.0853 32.7319C42.1452 32.6087 42.2288 32.4985 42.3314 32.4076C42.4339 32.3168 42.5533 32.247 42.6829 32.2024L42.7731 32.1753L56.7819 30.0413C57.0801 30.0249 57.3735 30.121 57.6041 30.3107C57.8348 30.5004 57.9857 30.7697 58.0271 31.0655C58.109 31.3293 58.0827 31.6148 57.9541 31.8593C57.8255 32.1038 57.6051 32.2873 57.3413 32.3693L57.3007 32.3829Z" fill="#1C98F2"/>
<path d="M43.1521 34.8057C42.8937 34.7762 42.6468 34.682 42.4346 34.5316C42.2223 34.3812 42.0515 34.1796 41.9381 33.9455C41.8246 33.7114 41.7722 33.4524 41.7857 33.1926C41.7992 32.9328 41.8781 32.6807 42.0152 32.4596C42.0976 32.3384 42.2043 32.2357 42.3286 32.158C42.4529 32.0803 42.592 32.0294 42.737 32.0084L56.7819 29.8022C57.1362 29.7799 57.4861 29.8905 57.7631 30.1124C58.0401 30.3344 58.2244 30.6517 58.2798 31.0023C58.326 31.1951 58.3326 31.3952 58.2993 31.5907C58.266 31.7861 58.1933 31.9727 58.0858 32.1393C58.0025 32.2606 57.8949 32.3633 57.7699 32.441C57.6449 32.5186 57.5051 32.5695 57.3594 32.5904L43.3371 34.7786C43.2762 34.7923 43.2144 34.8014 43.1521 34.8057ZM56.9308 30.2443H56.8316L42.7957 32.437C42.6235 32.4692 42.4711 32.5681 42.3716 32.7122C42.2979 32.8283 42.2487 32.9582 42.227 33.094C42.2053 33.2297 42.2115 33.3685 42.2453 33.5018C42.2773 33.7397 42.3957 33.9576 42.5778 34.114C42.76 34.2704 42.9933 34.3543 43.2333 34.35L57.2557 32.1618C57.3411 32.1465 57.4224 32.1138 57.4946 32.0656C57.5668 32.0175 57.6283 31.955 57.6753 31.8821C57.8242 31.6338 57.8684 31.3365 57.7982 31.0556C57.728 30.7747 57.5491 30.5332 57.3008 30.3842C57.1823 30.3151 57.0524 30.2677 56.9173 30.2443H56.9308Z" fill="#0760A1"/>
<path d="M73.6918 143.384C72.6721 143.384 71.6931 142.513 71.4359 141.322C71.3581 140.994 71.3476 140.654 71.4049 140.322C71.4623 139.991 71.5864 139.674 71.7698 139.391C71.9051 139.186 72.0817 139.012 72.2884 138.879C72.495 138.746 72.7272 138.658 72.9699 138.62C74.0843 138.444 75.2257 139.36 75.4964 140.663C75.5751 140.99 75.5864 141.329 75.5298 141.661C75.4732 141.992 75.3498 142.308 75.1671 142.59C75.0299 142.795 74.8523 142.969 74.6451 143.103C74.4379 143.236 74.2056 143.326 73.9625 143.366C73.8728 143.379 73.7823 143.385 73.6918 143.384ZM73.2406 139.048H73.024C72.8419 139.079 72.6679 139.146 72.5127 139.246C72.3575 139.346 72.2244 139.477 72.1217 139.63C71.9742 139.863 71.875 140.123 71.83 140.395C71.7851 140.668 71.7953 140.946 71.86 141.214C72.0901 142.283 72.997 143.046 73.8767 142.906C74.0594 142.877 74.234 142.81 74.3894 142.71C74.5448 142.61 74.6776 142.478 74.7791 142.324C74.9287 142.093 75.0291 141.833 75.0741 141.561C75.1191 141.29 75.1078 141.012 75.0408 140.745C74.9693 140.302 74.7535 139.896 74.4271 139.589C74.1006 139.283 73.6819 139.092 73.2361 139.048H73.2406Z" fill="#0760A1"/>
<path d="M67.7589 112.542C67.7725 112.364 67.7588 112.184 67.7183 112.01V111.91C67.3664 110.205 65.4263 109.113 63.3916 109.461C61.7899 109.736 60.6078 110.814 60.3462 112.109C59.8985 111.525 59.2954 111.079 58.606 110.822C57.9165 110.565 57.1687 110.508 56.4481 110.656C54.4133 111.008 53.0508 112.673 53.4027 114.374C53.4027 114.374 53.3485 115.831 56.8045 117.947C59.6423 119.689 62.0381 121.105 62.0832 121.047C62.1418 121.078 63.8653 118.971 65.891 116.386C66.6814 115.46 67.2809 114.387 67.6551 113.228C67.7037 113.072 67.7369 112.912 67.7544 112.75C67.7511 112.68 67.7526 112.611 67.7589 112.542Z" fill="#C6EEFF"/>
<path d="M123.044 29.2818L123.15 29.0066C123.402 27.989 123.885 27.2546 124.599 26.8036C125.337 26.3583 126.073 26.126 126.806 26.1065C127.539 26.087 128.245 25.9227 128.924 25.6136C129.627 25.3103 130.072 24.7801 130.26 24.0228C130.453 23.2418 130.377 22.5827 130.033 22.0455C129.713 21.5141 129.115 21.1401 128.239 20.9234C127.363 20.7068 126.677 20.6877 126.181 20.8663C125.714 21.0271 125.399 21.2377 125.234 21.4983L125.022 21.8979C124.657 22.4605 124.291 22.8723 123.925 23.1334C123.565 23.3707 123.16 23.4338 122.71 23.3225C122.261 23.2113 121.704 22.9229 121.041 22.4574C119.756 21.5617 119.213 20.7116 119.412 19.907C119.5 19.552 119.658 19.2146 119.888 18.8948C120.124 18.5513 120.318 18.2729 120.472 18.0597C120.631 17.8228 120.987 17.4465 121.542 16.9307C122.12 16.4208 122.725 16.0055 123.357 15.6847C124.019 15.3461 124.881 15.1075 125.945 14.9689C127.015 14.8067 128.142 14.872 129.325 15.1648C131.833 15.7855 133.681 17.0966 134.869 19.0982C136.056 21.0998 136.386 23.1655 135.859 25.2953C135.607 26.3129 135.184 27.2127 134.588 27.9946C134.023 28.7587 133.418 29.3248 132.774 29.693C131.487 30.4292 130.353 30.8518 129.372 30.9606L128.76 30.9975C128.66 31.3998 128.561 31.7016 128.46 31.9029C128.384 32.11 128.219 32.3203 127.965 32.5338C127.741 32.7294 127.401 32.8337 126.946 32.8466C126.52 32.8418 125.964 32.7544 125.278 32.5846C124.592 32.4148 124.05 32.218 123.654 31.9943C123.281 31.7764 123.046 31.505 122.951 31.18C122.856 30.855 122.811 30.5802 122.816 30.3555C122.851 30.113 122.927 29.7551 123.044 29.2818ZM121.33 35.6007C121.613 35.2689 122.011 35.0787 122.526 35.0302C123.064 34.9875 123.853 35.095 124.895 35.3527C125.936 35.6103 126.623 36.0314 126.955 36.616C127.317 37.1827 127.334 38.1287 127.006 39.454C126.772 40.4006 126.478 41.0813 126.124 41.496C125.776 41.8871 125.334 42.104 124.796 42.1466C124.287 42.1715 123.524 42.0581 122.507 41.8063C121.489 41.5545 120.769 41.1127 120.348 40.4811C120.045 39.9792 120.014 39.2432 120.254 38.2729L120.395 37.7049C120.529 37.1606 120.644 36.7494 120.738 36.4713C120.855 36.199 121.053 35.9088 121.33 35.6007Z" fill="#1C98F2"/>
<path d="M106.615 104.457C105.608 102.855 106.091 100.741 107.693 99.734L109.143 98.8227C110.745 97.816 112.859 98.2985 113.866 99.9003L136.266 135.543C137.272 137.145 136.79 139.259 135.188 140.266L133.738 141.177C132.136 142.184 130.022 141.702 129.015 140.1L106.615 104.457Z" fill="#A1ABAF"/>
<path d="M104.792 101.557L112.043 97L118.353 107.04L111.102 111.597L104.792 101.557Z" fill="#419CED"/>
<g filter="url(#filter0_b_160_214)">
<path d="M127 75.5C127 92.897 112.897 107 95.5 107C78.103 107 64 92.897 64 75.5C64 58.103 78.103 44 95.5 44C112.897 44 127 58.103 127 75.5Z" fill="white" fill-opacity="0.7"/>
</g>
<path fill-rule="evenodd" clip-rule="evenodd" d="M95.5 102C110.136 102 122 90.1355 122 75.5C122 60.8645 110.136 49 95.5 49C80.8645 49 69 60.8645 69 75.5C69 90.1355 80.8645 102 95.5 102ZM95.5 107C112.897 107 127 92.897 127 75.5C127 58.103 112.897 44 95.5 44C78.103 44 64 58.103 64 75.5C64 92.897 78.103 107 95.5 107Z" fill="#1C98F2"/>
<path fill-rule="evenodd" clip-rule="evenodd" d="M95.5 44.5C82.3739 44.5 71.152 52.6583 66.6306 64.1826C66.5298 64.4397 66.2396 64.5663 65.9826 64.4655C65.7255 64.3646 65.5989 64.0745 65.6997 63.8174C70.3662 51.923 81.9488 43.5 95.5 43.5C113.173 43.5 127.5 57.8269 127.5 75.5C127.5 93.1731 113.173 107.5 95.5 107.5C95.2239 107.5 95 107.276 95 107C95 106.724 95.2239 106.5 95.5 106.5C112.621 106.5 126.5 92.6208 126.5 75.5C126.5 58.3792 112.621 44.5 95.5 44.5Z" fill="#0760A1"/>
<path opacity="0.5" d="M80 143C80 146.314 77.3137 149 74 149C70.6863 149 68 146.314 68 143C68 139.686 70.6863 137 74 137C77.3137 137 80 139.686 80 143Z" fill="#84DAFF"/>
<defs>
<filter id="filter0_b_160_214" x="60" y="40" width="71" height="71" filterUnits="userSpaceOnUse" color-interpolation-filters="sRGB">
<feFlood flood-opacity="0" result="BackgroundImageFix"/>
<feGaussianBlur in="BackgroundImage" stdDeviation="2"/>
<feComposite in2="SourceAlpha" operator="in" result="effect1_backgroundBlur_160_214"/>
<feBlend mode="normal" in="SourceGraphic" in2="effect1_backgroundBlur_160_214" result="shape"/>
</filter>
<linearGradient id="paint0_linear_160_214" x1="16.0988" y1="142.675" x2="98.411" y2="0.43033" gradientUnits="userSpaceOnUse">
<stop offset="0.0647845" stop-color="#1C85E8"/>
<stop offset="1" stop-color="#57C6FF" stop-opacity="0.5"/>
<stop offset="1" stop-color="#57C6FF" stop-opacity="0.5"/>
</linearGradient>
</defs>
</svg>
