<svg width="160" height="160" viewBox="0 0 160 160" fill="none" xmlns="http://www.w3.org/2000/svg">
<path opacity="0.9" d="M134.648 121.029C108.85 164.949 14.2509 156.476 8.55899 113.5C2.86705 70.5243 60.0808 86.3239 71.8142 55.2399C79.1582 35.784 90.0549 25.2427 97.7813 22.8212C138.659 9.85335 160.446 77.1099 134.648 121.029Z" fill="url(#paint0_linear_203_20402)"/>
<path d="M94.5899 146.7L49.6399 153.716C46.6441 154.167 43.5897 151.676 42.8227 148.112L19.4792 39.8046C18.1257 34.6974 22.7231 31.9768 25.7189 31.5076L68.4627 25.489C71.4584 25.0379 74.5083 27.5283 75.2798 31.0925L101.624 139.224C102.391 142.793 100.545 145.811 94.5899 146.7Z" fill="#5F6163"/>
<path d="M48.9181 154C46.0712 154 43.3326 151.537 42.6017 148.162L19.2582 39.8497C19.0036 39.0042 18.9362 38.1133 19.0609 37.2391C19.1855 36.3648 19.4992 35.5283 19.9801 34.7876C21.3878 32.64 23.9323 31.5572 25.6874 31.2865L68.4311 25.2634C71.5352 24.7807 74.7069 27.3749 75.4965 31.0474L101.84 139.175C102.043 139.936 102.083 140.731 101.957 141.509C101.831 142.286 101.542 143.028 101.109 143.686C99.9543 145.356 97.7752 146.438 94.6215 146.912L49.676 153.928C49.4257 153.972 49.1723 153.996 48.9181 154ZM69.1846 25.656C68.9534 25.656 68.7226 25.6741 68.4943 25.7101L25.7506 31.7332C24.0948 31.9904 21.69 33.01 20.3591 35.0358C19.9118 35.725 19.6207 36.5038 19.5061 37.3174C19.3916 38.1311 19.4563 38.96 19.6959 39.746L43.0439 148.063C43.7883 151.51 46.7299 153.928 49.6039 153.477L94.5538 146.443C97.5812 145.992 99.6611 144.968 100.735 143.407C101.134 142.798 101.4 142.112 101.515 141.394C101.63 140.675 101.592 139.94 101.403 139.238L75.0588 31.1467C74.3776 27.975 71.8284 25.656 69.1846 25.656Z" fill="#373737"/>
<path d="M97.6625 145.473L52.7216 152.489C49.7258 152.94 46.6759 150.445 45.9089 146.881L22.5519 38.5729C21.7849 35.0087 23.5896 31.7422 26.5854 31.273L71.5354 24.2573C74.5311 23.8062 77.5855 26.3011 78.3525 29.8654L101.696 138.173C102.467 141.737 100.658 145.004 97.6625 145.473Z" fill="#444444"/>
<path d="M51.995 152.759C49.1437 152.759 46.4051 150.296 45.6787 146.921L22.3307 38.6135C22.112 37.6953 22.0812 36.7424 22.2401 35.812C22.3991 34.8817 22.7445 33.993 23.2556 33.1995C23.6289 32.6379 24.1141 32.1593 24.6808 31.7937C25.2475 31.428 25.8835 31.1832 26.5491 31.0745L71.4991 24.0588C74.6076 23.5716 77.7793 26.1658 78.5734 29.8383L101.899 138.119C102.125 139.04 102.161 139.998 102.006 140.934C101.851 141.87 101.508 142.765 100.997 143.564C100.622 144.126 100.136 144.604 99.5684 144.97C99.001 145.335 98.3645 145.58 97.6985 145.689L52.7485 152.705C52.4992 152.744 52.2472 152.762 51.995 152.759ZM72.2615 24.4198C72.0304 24.4198 71.7996 24.4379 71.5713 24.4739L26.6213 31.4896C26.0156 31.5886 25.4369 31.8116 24.9214 32.1446C24.4059 32.4777 23.9647 32.9136 23.6255 33.4251C23.1471 34.1727 22.8249 35.0094 22.6784 35.8847C22.5318 36.7601 22.564 37.6561 22.7728 38.5188L46.1163 146.826C46.8607 150.269 49.8024 152.692 52.6808 152.24L97.6308 145.22C98.2358 145.121 98.8139 144.898 99.3286 144.565C99.8434 144.232 100.284 143.796 100.622 143.285C101.102 142.538 101.426 141.701 101.573 140.826C101.721 139.95 101.689 139.054 101.479 138.191L78.1313 29.9105C77.45 26.7523 74.9009 24.4288 72.2661 24.4288L72.2615 24.4198Z" fill="#373737"/>
<path d="M97.8835 132.606L47.1406 140.524L25.895 41.9477L76.6335 34.0251L97.8835 132.606Z" fill="#85898C"/>
<path d="M47.1403 140.749C47.0895 140.749 47.0402 140.732 47.0008 140.7C46.9613 140.668 46.9341 140.623 46.9238 140.573L25.6737 41.9928C25.6616 41.9323 25.6728 41.8694 25.7053 41.8168C25.7232 41.7915 25.746 41.7701 25.7723 41.7538C25.7987 41.7375 25.8281 41.7267 25.8587 41.7221L76.5972 33.8041C76.6543 33.7958 76.7124 33.8093 76.7601 33.8419C76.8077 33.8745 76.8413 33.9238 76.8543 33.98L98.1044 132.556C98.111 132.586 98.1112 132.617 98.105 132.648C98.0988 132.678 98.0863 132.707 98.0683 132.732C98.0329 132.782 97.9795 132.816 97.9194 132.827L47.1764 140.749H47.1403ZM26.1655 42.1327L47.3073 140.271L97.6036 132.421L76.4573 34.2823L26.1655 42.1327Z" fill="#373737"/>
<path d="M38.3491 78.4343L36.0381 83.1602L36.4434 83.3584L38.7544 78.6326L38.3491 78.4343Z" fill="white"/>
<path d="M57.7299 38.8323L40.4307 74.2069L40.836 74.4051L58.1352 39.0305L57.7299 38.8323Z" fill="white"/>
<path d="M52.3261 39.1526L45.0864 53.0184L45.4864 53.2272L52.726 39.3614L52.3261 39.1526Z" fill="white"/>
<path d="M86.2932 117.656L78.2627 133.54L78.6653 133.744L86.6959 117.86L86.2932 117.656Z" fill="white"/>
<path d="M90.0162 110.316L87.5205 115.253L87.9231 115.456L90.4188 110.52L90.0162 110.316Z" fill="white"/>
<path d="M57.3009 32.3829L43.2831 34.553C42.985 34.5694 42.6915 34.4733 42.4609 34.2836C42.2302 34.0939 42.0793 33.8246 42.0379 33.5288C41.993 33.3994 41.9742 33.2624 41.9823 33.1256C41.9905 32.9889 42.0255 32.8551 42.0855 32.7319C42.1454 32.6087 42.229 32.4985 42.3315 32.4076C42.4341 32.3168 42.5535 32.247 42.6831 32.2024L42.7733 32.1753L56.7821 30.0413C57.0802 30.0248 57.3737 30.121 57.6043 30.3107C57.8349 30.5003 57.9859 30.7697 58.0273 31.0655C58.1091 31.3293 58.0829 31.6148 57.9543 31.8593C57.8257 32.1038 57.6053 32.2873 57.3415 32.3693L57.3009 32.3829Z" fill="#5F6163"/>
<path d="M43.1522 34.8057C42.8937 34.7762 42.6469 34.682 42.4346 34.5316C42.2224 34.3812 42.0516 34.1796 41.9381 33.9455C41.8247 33.7114 41.7723 33.4524 41.7858 33.1926C41.7992 32.9328 41.8782 32.6807 42.0152 32.4596C42.0977 32.3384 42.2044 32.2357 42.3287 32.158C42.453 32.0803 42.5921 32.0294 42.7371 32.0084L56.782 29.8022C57.1363 29.7799 57.4861 29.8905 57.7631 30.1124C58.0402 30.3344 58.2244 30.6517 58.2799 31.0023C58.3261 31.1951 58.3327 31.3952 58.2994 31.5907C58.266 31.7861 58.1934 31.9727 58.0859 32.1393C58.0026 32.2606 57.895 32.3633 57.77 32.441C57.6449 32.5186 57.5052 32.5695 57.3595 32.5904L43.3372 34.7786C43.2763 34.7923 43.2144 34.8014 43.1522 34.8057ZM56.9309 30.2443H56.8316L42.7958 32.437C42.6236 32.4692 42.4711 32.5681 42.3717 32.7122C42.298 32.8283 42.2488 32.9582 42.2271 33.094C42.2054 33.2297 42.2116 33.3685 42.2453 33.5018C42.2774 33.7397 42.3957 33.9576 42.5779 34.114C42.7601 34.2704 42.9933 34.3543 43.2334 34.35L57.2557 32.1618C57.3411 32.1465 57.4225 32.1138 57.4946 32.0656C57.5668 32.0175 57.6283 31.955 57.6753 31.8821C57.8243 31.6338 57.8685 31.3365 57.7983 31.0556C57.728 30.7747 57.5491 30.5332 57.3008 30.3842C57.1824 30.3151 57.0525 30.2677 56.9173 30.2443H56.9309Z" fill="#444444"/>
<path d="M73.6919 143.384C72.6722 143.384 71.6932 142.513 71.436 141.322C71.3582 140.994 71.3477 140.654 71.4051 140.322C71.4624 139.991 71.5866 139.674 71.7699 139.391C71.9052 139.186 72.0818 139.012 72.2885 138.879C72.4951 138.746 72.7273 138.658 72.97 138.62C74.0844 138.444 75.2259 139.36 75.4966 140.663C75.5752 140.99 75.5865 141.329 75.5299 141.661C75.4733 141.992 75.3499 142.308 75.1672 142.59C75.03 142.795 74.8524 142.969 74.6452 143.103C74.438 143.236 74.2057 143.326 73.9626 143.366C73.8729 143.379 73.7824 143.385 73.6919 143.384ZM73.2407 139.048H73.0242C72.842 139.079 72.668 139.146 72.5128 139.246C72.3576 139.346 72.2246 139.477 72.1218 139.63C71.9743 139.863 71.8751 140.123 71.8302 140.395C71.7852 140.668 71.7954 140.946 71.8601 141.214C72.0902 142.283 72.9971 143.046 73.8769 142.906C74.0595 142.877 74.2342 142.81 74.3896 142.71C74.5449 142.61 74.6777 142.478 74.7792 142.324C74.9288 142.093 75.0292 141.833 75.0742 141.561C75.1192 141.29 75.1079 141.012 75.0409 140.745C74.9694 140.302 74.7536 139.896 74.4272 139.589C74.1008 139.283 73.682 139.092 73.2362 139.048H73.2407Z" fill="#373737"/>
<path d="M123.044 29.2818L123.15 29.0066C123.402 27.989 123.885 27.2546 124.599 26.8036C125.337 26.3583 126.073 26.126 126.806 26.1065C127.539 26.087 128.245 25.9227 128.924 25.6136C129.627 25.3103 130.072 24.7801 130.26 24.0228C130.453 23.2418 130.377 22.5827 130.033 22.0455C129.713 21.5141 129.114 21.1401 128.239 20.9234C127.363 20.7068 126.677 20.6877 126.181 20.8663C125.714 21.0271 125.399 21.2377 125.234 21.4983L125.022 21.8979C124.656 22.4605 124.291 22.8723 123.925 23.1334C123.565 23.3707 123.16 23.4338 122.71 23.3225C122.261 23.2113 121.704 22.9229 121.041 22.4574C119.756 21.5617 119.213 20.7116 119.412 19.907C119.5 19.552 119.658 19.2146 119.888 18.8948C120.124 18.5513 120.318 18.2729 120.472 18.0597C120.631 17.8228 120.987 17.4465 121.542 16.9307C122.12 16.4208 122.725 16.0055 123.357 15.6847C124.019 15.3461 124.881 15.1075 125.945 14.9689C127.015 14.8067 128.142 14.872 129.325 15.1648C131.833 15.7855 133.681 17.0966 134.869 19.0982C136.056 21.0998 136.386 23.1655 135.859 25.2953C135.607 26.3129 135.184 27.2127 134.588 27.9946C134.023 28.7587 133.418 29.3248 132.774 29.693C131.487 30.4292 130.353 30.8518 129.372 30.9606L128.76 30.9975C128.66 31.3998 128.56 31.7016 128.46 31.9029C128.384 32.11 128.219 32.3203 127.965 32.5338C127.741 32.7294 127.401 32.8337 126.946 32.8466C126.52 32.8418 125.964 32.7544 125.278 32.5846C124.592 32.4148 124.05 32.218 123.654 31.9943C123.281 31.7764 123.046 31.505 122.951 31.18C122.856 30.855 122.811 30.5802 122.816 30.3555C122.851 30.113 122.927 29.7551 123.044 29.2818ZM121.33 35.6007C121.613 35.2689 122.011 35.0787 122.526 35.0302C123.064 34.9875 123.853 35.095 124.894 35.3527C125.936 35.6103 126.623 36.0314 126.955 36.616C127.317 37.1827 127.334 38.1287 127.006 39.454C126.772 40.4006 126.478 41.0813 126.124 41.496C125.776 41.8871 125.333 42.104 124.796 42.1466C124.287 42.1715 123.524 42.0581 122.506 41.8063C121.489 41.5545 120.769 41.1127 120.348 40.4811C120.045 39.9792 120.014 39.2432 120.254 38.2729L120.395 37.7049C120.529 37.1606 120.644 36.7494 120.738 36.4713C120.855 36.199 121.053 35.9088 121.33 35.6007Z" fill="#444444"/>
<path d="M106.615 104.457C105.609 102.855 106.091 100.741 107.693 99.734L109.143 98.8227C110.745 97.816 112.859 98.2985 113.866 99.9002L136.266 135.543C137.272 137.145 136.79 139.259 135.188 140.266L133.738 141.177C132.136 142.184 130.022 141.702 129.015 140.1L106.615 104.457Z" fill="#A1ABAF"/>
<path d="M104.792 101.557L112.043 97L118.353 107.04L111.102 111.597L104.792 101.557Z" fill="#85898C"/>
<path d="M127 75.5C127 92.897 112.897 107 95.5 107C78.103 107 64 92.897 64 75.5C64 58.103 78.103 44 95.5 44C112.897 44 127 58.103 127 75.5Z" fill="white" fill-opacity="0.7"/>
<path fill-rule="evenodd" clip-rule="evenodd" d="M95.5 102C110.136 102 122 90.1355 122 75.5C122 60.8645 110.136 49 95.5 49C80.8645 49 69 60.8645 69 75.5C69 90.1355 80.8645 102 95.5 102ZM95.5 107C112.897 107 127 92.897 127 75.5C127 58.103 112.897 44 95.5 44C78.103 44 64 58.103 64 75.5C64 92.897 78.103 107 95.5 107Z" fill="#5F6163"/>
<path fill-rule="evenodd" clip-rule="evenodd" d="M95.5 44.5C82.3739 44.5 71.152 52.6583 66.6306 64.1826C66.5298 64.4397 66.2396 64.5663 65.9826 64.4655C65.7255 64.3646 65.5989 64.0745 65.6997 63.8174C70.3662 51.923 81.9488 43.5 95.5 43.5C113.173 43.5 127.5 57.8269 127.5 75.5C127.5 93.1731 113.173 107.5 95.5 107.5C95.2239 107.5 95 107.276 95 107C95 106.724 95.2239 106.5 95.5 106.5C112.621 106.5 126.5 92.6208 126.5 75.5C126.5 58.3792 112.621 44.5 95.5 44.5Z" fill="#444444"/>
<path opacity="0.5" d="M80 143C80 146.314 77.3137 149 74 149C70.6863 149 68 146.314 68 143C68 139.686 70.6863 137 74 137C77.3137 137 80 139.686 80 143Z" fill="#444444"/>
<defs>
<linearGradient id="paint0_linear_203_20402" x1="20.977" y1="143.1" x2="105.106" y2="3.32866" gradientUnits="userSpaceOnUse">
<stop stop-color="#ADB4BB"/>
<stop offset="1" stop-color="#DFDFE0" stop-opacity="0.5"/>
</linearGradient>
</defs>
</svg>
