<svg width="160" height="160" viewBox="0 0 160 160" fill="none" xmlns="http://www.w3.org/2000/svg">
<path opacity="0.9" d="M141.362 118.816C117.181 163.646 16.8319 158.071 9.57775 115.332C2.32356 72.5918 65.5797 86.8506 76.1726 55.3596C82.8028 35.6491 93.3081 24.7177 100.941 22.0163C141.319 7.56748 165.543 73.9855 141.362 118.816Z" fill="url(#paint0_linear_129_188)"/>
<path fill-rule="evenodd" clip-rule="evenodd" d="M115.577 73.1514C113.786 71.913 111.59 71.283 108.871 71.6261C106.163 71.9678 104.296 73.1659 103.015 74.882C101.72 76.6155 101 78.9129 100.675 81.4761C100.026 86.6078 100.986 92.6169 101.848 96.759C101.908 97.0473 101.723 97.3297 101.434 97.3897C101.146 97.4497 100.863 97.2645 100.804 96.9761C99.939 92.819 98.9436 86.6615 99.6169 81.3421C99.9539 78.6797 100.714 76.1804 102.16 74.2439C103.618 72.2901 105.749 70.9449 108.737 70.5679C111.714 70.1923 114.174 70.8844 116.184 72.274C118.182 73.6551 119.706 75.7044 120.87 78.0054C123.194 82.6004 124.143 88.3273 124.49 92.2009C124.517 92.4942 124.3 92.7534 124.007 92.7797C123.713 92.806 123.454 92.5895 123.428 92.2961C123.085 88.4694 122.151 82.9019 119.918 78.4868C118.804 76.2828 117.381 74.3982 115.577 73.1514Z" fill="#BBE5F7"/>
<path d="M96.2814 101.211L94.1548 93.8643L126.29 86.6009C127.285 86.3759 128.329 86.6393 129.098 87.3101L136.881 94.0952L98.1511 102.331C97.3306 102.505 96.5147 102.017 96.2814 101.211Z" fill="#1A83CF"/>
<path d="M143.693 129.426L101.563 138.594C100.765 138.768 99.9636 138.312 99.7052 137.537L96.4643 127.814L96.9262 102.179L132.262 95.019L136.052 94.1167C136.634 93.9781 137.216 94.3449 137.342 94.9294L144.509 128.159C144.633 128.734 144.268 129.301 143.693 129.426Z" fill="#C1E2FB"/>
<mask id="mask0_129_188" style="mask-type:alpha" maskUnits="userSpaceOnUse" x="96" y="94" width="49" height="45">
<path d="M143.693 129.426L101.563 138.594C100.765 138.768 99.9636 138.312 99.7052 137.537L96.4643 127.814L96.9262 102.179L132.262 95.019L136.052 94.1167C136.634 93.9781 137.216 94.3449 137.342 94.9294L144.509 128.159C144.633 128.734 144.268 129.301 143.693 129.426Z" fill="#C6EEFF"/>
</mask>
<g mask="url(#mask0_129_188)">
<path d="M102.855 131.012L100.2 105.667L95.6665 106.467L98.5999 140.333L139.933 132.333L141 129.667L105.787 133.386C104.322 133.541 103.009 132.478 102.855 131.012Z" fill="#88CAF4"/>
</g>
<path fill-rule="evenodd" clip-rule="evenodd" d="M118.943 78.5068C117.069 77.252 114.769 76.6128 111.923 76.9607C109.087 77.3072 107.134 78.5229 105.796 80.2585C104.445 82.0104 103.694 84.3308 103.356 86.9185C102.678 92.1009 103.68 98.1701 104.579 102.355C104.641 102.643 104.457 102.926 104.169 102.988C103.881 103.05 103.598 102.867 103.536 102.579C102.634 98.3787 101.595 92.1563 102.298 86.7803C102.65 84.0887 103.443 81.5631 104.951 79.6073C106.471 77.6352 108.688 76.2815 111.793 75.9019C114.888 75.5237 117.445 76.2202 119.536 77.6204C121.617 79.0132 123.206 81.0816 124.421 83.407C126.846 88.0499 127.835 93.8368 128.198 97.751C128.225 98.0443 128.009 98.304 127.716 98.3312C127.422 98.3583 127.163 98.1426 127.136 97.8493C126.778 93.9841 125.804 88.3605 123.475 83.9008C122.313 81.6749 120.828 79.769 118.943 78.5068Z" fill="white"/>
<path d="M93.0434 125.647L94.1547 93.8643L97 102.2L99.616 137.517C99.6285 137.685 99.4045 137.755 99.3186 137.61L93.6319 127.963C93.2192 127.262 93.015 126.459 93.0434 125.647Z" fill="#1C85E8"/>
<path fill-rule="evenodd" clip-rule="evenodd" d="M137.38 93.9992C137.785 93.9144 138.183 94.1742 138.267 94.5797L145.139 127.412C145.405 128.683 144.59 129.929 143.318 130.194L100.086 139.201C99.6807 139.285 99.2835 139.025 99.1991 138.62C99.1146 138.214 99.3748 137.817 99.7803 137.732L143.013 128.726C143.472 128.63 143.767 128.179 143.671 127.719L136.799 94.887C136.714 94.4815 136.974 94.0841 137.38 93.9992Z" fill="#0F75C1"/>
<path d="M40.1038 100.104C40.1038 100.104 37.2466 99.7373 35.0784 99.4589C26.8981 98.4084 21.1183 90.9253 22.1689 82.745C23.2194 74.5648 30.7025 68.785 38.8827 69.8355C40.903 70.095 43.9081 70.4809 43.9081 70.4809L40.1038 100.104Z" fill="#1A83CF"/>
<path d="M55.4951 87.0249C54.4445 95.2052 46.9615 100.985 38.7812 99.9344C30.6009 98.8839 24.8211 91.4009 25.8717 83.2206C26.9222 75.0403 34.4053 69.2605 42.5855 70.3111C50.7658 71.3616 56.5456 78.8446 55.4951 87.0249Z" fill="#C1E2FB"/>
<path d="M41.1701 87.4557C41.2521 87.7553 41.2849 87.9683 41.2687 88.0947C41.2302 88.3949 40.9528 88.6162 40.4367 88.7587C40.1697 88.8368 39.9572 88.8657 39.7992 88.8455C39.6491 88.8262 39.5273 88.7744 39.4337 88.6901C39.3491 88.5989 39.2881 88.5108 39.2508 88.4257C39.1911 88.2655 38.9749 87.511 38.602 86.1623L38.2317 86.1388L36.7386 85.9471L36.5667 87.2861C36.5433 87.4678 36.5177 87.605 36.4897 87.6978C36.4707 87.7836 36.4219 87.8818 36.3435 87.9921C36.2055 88.1912 35.8838 88.2583 35.3782 88.1934C34.8252 88.1224 34.5201 87.9346 34.4628 87.6302C34.4327 87.4898 34.4354 87.2814 34.4709 87.0049L35.3154 80.4285C35.3388 80.2468 35.36 80.113 35.379 80.0271C35.407 79.9344 35.4602 79.8328 35.5386 79.7224C35.6766 79.5233 35.9984 79.4563 36.5039 79.5212L39.0634 79.8499C39.7586 79.9391 40.4015 80.2787 40.9922 80.8684C41.2768 81.1539 41.4949 81.5192 41.6465 81.9642C41.7981 82.4093 41.8409 82.8885 41.775 83.402C41.6604 84.2947 41.2698 84.9913 40.6033 85.4919C40.7233 85.9329 40.9122 86.5875 41.1701 87.4557ZM37.008 83.8498L38.5247 84.0445C38.7538 84.074 38.994 84.0165 39.2454 83.8721C39.4968 83.7277 39.6449 83.4818 39.6895 83.1342C39.7341 82.7866 39.6531 82.5112 39.4463 82.308C39.2406 82.0969 39.0152 81.9756 38.7703 81.9442L37.2773 81.7524L37.008 83.8498Z" fill="#1A83CF"/>
<path d="M41.5916 90.7258L42.4803 83.8058C42.5036 83.6241 42.5248 83.4903 42.5439 83.4044C42.5708 83.3195 42.619 83.2254 42.6885 83.1219C42.8265 82.9228 43.1049 82.8501 43.5235 82.9039C43.9422 82.9577 44.2156 83.049 44.3435 83.1778C44.4804 83.2998 44.5476 83.465 44.5449 83.6734C44.8978 83.3012 45.3942 83.1562 46.0341 83.2383C46.6818 83.3215 47.255 83.7043 47.7536 84.3866C48.2521 85.0689 48.4496 85.813 48.3462 86.6187C48.2427 87.4245 47.8636 88.0945 47.2088 88.6287C46.5619 89.1639 45.9146 89.3899 45.2668 89.3067C44.619 89.2235 44.1723 88.9815 43.9267 88.5806L43.6193 90.9741C43.596 91.1558 43.5709 91.2891 43.5439 91.374C43.5248 91.4599 43.4766 91.554 43.3992 91.6565C43.3287 91.7679 43.2193 91.8382 43.071 91.8673C42.9227 91.8964 42.7262 91.8953 42.4813 91.8638C42.2364 91.8324 42.0419 91.7833 41.8979 91.7167C41.7618 91.651 41.6693 91.5588 41.6203 91.4401C41.5792 91.3224 41.5563 91.2191 41.5517 91.1302C41.555 91.0423 41.5682 90.9075 41.5916 90.7258ZM44.6545 85.446C44.4454 85.636 44.3246 85.8574 44.2922 86.1101C44.2597 86.3629 44.3206 86.6076 44.4749 86.8443C44.6381 87.074 44.8619 87.2071 45.1463 87.2436C45.4386 87.2812 45.6967 87.2099 45.9205 87.0299C46.1523 86.8509 46.2849 86.631 46.3184 86.3704C46.3519 86.1097 46.287 85.8645 46.1238 85.6347C45.9616 85.3971 45.7265 85.2585 45.4184 85.2189C45.1182 85.1804 44.8636 85.2561 44.6545 85.446Z" fill="#1A83CF"/>
<path opacity="0.5" d="M127.226 52.8579C130.082 25.4071 122.268 19.4459 117.868 19.9635C103.5 19.9635 96.9553 38.4265 95.0513 49.8004C94.8041 51.2773 95.8963 52.6084 97.3875 52.744L124.361 55.1961C125.795 55.3265 127.077 54.2907 127.226 52.8579Z" fill="url(#paint1_linear_129_188)"/>
<mask id="mask1_129_188" style="mask-type:alpha" maskUnits="userSpaceOnUse" x="95" y="19" width="33" height="37">
<path d="M127.226 52.8579C130.082 25.4071 122.268 19.4459 117.868 19.9635C103.5 19.9635 96.9553 38.4265 95.0513 49.8004C94.8041 51.2773 95.8963 52.6084 97.3875 52.744L124.361 55.1961C125.795 55.3265 127.077 54.2907 127.226 52.8579Z" fill="#0760A1"/>
</mask>
<g mask="url(#mask1_129_188)">
<path opacity="0.5" d="M102.4 55.9333H105.333C105.333 47.5174 103.2 17.8 122.933 21.5333C120.8 15.3467 113.333 18.2444 108.8 19.4C96.8533 24.3067 99.5555 45.8 102.4 55.9333Z" fill="#1A83CF"/>
</g>
<path d="M118.243 19.9928C118.556 19.9733 118.875 19.9635 119.201 19.9635L118.243 19.9928C98.8143 21.1992 103.349 59.3816 105.334 75.6968C107.705 95.1819 101.494 115.447 89.271 130.33C89.0406 130.611 88.6039 130.58 88.4125 130.271L84.2744 123.604C84.1221 123.359 83.8021 123.279 83.5526 123.425L74.8089 128.525C74.576 128.661 74.2782 128.602 74.1153 128.387L68.8171 121.403C68.6552 121.19 68.3602 121.13 68.1276 121.262L59.5933 126.139C59.3668 126.269 59.08 126.215 58.9152 126.013L53.6134 119.506C53.4514 119.307 53.1709 119.252 52.9455 119.374L44.4474 123.988C44.1973 124.123 43.8847 124.039 43.7371 123.796L39.7293 117.195C39.5824 116.953 39.2721 116.868 39.0224 117.001L32.241 120.618C31.8885 120.806 31.4616 120.558 31.4583 120.158C31.4107 114.403 31.8713 104.799 43.6568 96.5798C48.7899 92.9999 54.089 89.182 55.4381 83.071C56.7027 77.3424 57.0807 69.7852 55.1496 61.6569C53.6595 55.3847 51.0482 49.3063 51.1126 42.8599C51.1727 36.8479 52.3502 29.8229 56.0721 24.3864C57.2621 22.6483 59.316 21.7941 61.4214 21.7297L118.243 19.9928Z" fill="#C6EEFF"/>
<path d="M59.7333 33.8C59.7333 32.6218 60.6885 31.6667 61.8667 31.6667H94.9333C96.1115 31.6667 97.0667 32.6218 97.0667 33.8V37.5333C97.0667 38.7115 96.1115 39.6667 94.9333 39.6667H61.8667C60.6885 39.6667 59.7333 38.7115 59.7333 37.5333V33.8Z" fill="#5DAFE6"/>
<path fill-rule="evenodd" clip-rule="evenodd" d="M60.2684 48.7635C60.2684 48.1744 60.7459 47.6968 61.335 47.6968H97.335C97.9241 47.6968 98.4017 48.1744 98.4017 48.7635C98.4017 49.3526 97.9241 49.8301 97.335 49.8301H61.335C60.7459 49.8301 60.2684 49.3526 60.2684 48.7635Z" fill="#7BC1F4"/>
<path fill-rule="evenodd" clip-rule="evenodd" d="M60.0017 57.8301C60.0017 57.241 60.4792 56.7635 61.0683 56.7635H97.0683C97.6575 56.7635 98.135 57.241 98.135 57.8301C98.135 58.4193 97.6575 58.8968 97.0683 58.8968H61.0683C60.4792 58.8968 60.0017 58.4193 60.0017 57.8301Z" fill="#3498E1"/>
<path fill-rule="evenodd" clip-rule="evenodd" d="M60.5351 66.882C60.5433 66.293 61.0275 65.8221 61.6165 65.8303L97.8815 66.3334C98.4705 66.3416 98.9414 66.8258 98.9332 67.4148C98.9251 68.0039 98.4409 68.4747 97.8519 68.4666L61.5869 67.9634C60.9979 67.9552 60.527 67.4711 60.5351 66.882Z" fill="#7BC1F4"/>
<path fill-rule="evenodd" clip-rule="evenodd" d="M62.4003 76.975C62.4141 76.3861 62.9027 75.9198 63.4917 75.9336L97.625 76.7336C98.2139 76.7474 98.6802 77.2361 98.6664 77.825C98.6526 78.4139 98.1639 78.8802 97.575 78.8664L63.4417 78.0664C62.8527 78.0526 62.3865 77.564 62.4003 76.975Z" fill="#3498E1"/>
<path fill-rule="evenodd" clip-rule="evenodd" d="M59.0702 87.2126C59.0989 86.6242 59.5991 86.1704 60.1875 86.1991L95.7853 87.9346C96.3737 87.9633 96.8274 88.4635 96.7987 89.0519C96.7701 89.6403 96.2698 90.0941 95.6814 90.0654L60.0836 88.3299C59.4952 88.3012 59.0415 87.801 59.0702 87.2126Z" fill="#7BC1F4"/>
<path fill-rule="evenodd" clip-rule="evenodd" d="M49.2603 95.9241C49.3111 95.3371 49.828 94.9025 50.4149 94.9533L92.6251 98.604C93.212 98.6547 93.6466 99.1717 93.5959 99.7586C93.5451 100.346 93.0282 100.78 92.4413 100.729L50.2311 97.0787C49.6442 97.0279 49.2096 96.511 49.2603 95.9241Z" fill="#3498E1"/>
<path fill-rule="evenodd" clip-rule="evenodd" d="M91.4598 109.654C91.3934 110.239 90.865 110.66 90.2797 110.593L43.2229 105.25C42.6376 105.184 42.2169 104.656 42.2834 104.07C42.3498 103.485 42.8782 103.064 43.4636 103.131L90.5203 108.473C91.1057 108.54 91.5263 109.068 91.4598 109.654Z" fill="#7BC1F4"/>
<path fill-rule="evenodd" clip-rule="evenodd" d="M60.0488 22.3938C60.31 22.7152 60.2611 23.1876 59.9397 23.4488C55.954 26.6871 50.1051 35.4322 54.3352 56.3178C57.0317 69.6318 57.6037 78.1201 56.0135 84.0775C54.3973 90.1322 50.5787 93.478 44.8937 96.5912C39.8887 99.3321 36.6508 103.782 34.6936 108.202C32.7316 112.633 32.0894 116.962 32.2157 119.361C32.2374 119.774 31.9198 120.127 31.5061 120.149C31.0925 120.171 30.7395 119.853 30.7177 119.439C30.5773 116.772 31.2789 112.209 33.3221 107.595C35.3701 102.969 38.7989 98.2186 44.1732 95.2755C49.6882 92.2554 53.099 89.18 54.5642 83.6906C56.0555 78.104 55.5608 69.9257 52.865 56.6156C48.5616 35.3679 54.4461 25.9796 58.9938 22.2846C59.3152 22.0234 59.7876 22.0723 60.0488 22.3938Z" fill="#1A83CF"/>
<g filter="url(#filter0_b_129_188)">
<path d="M60.0458 42.2848C54.5966 51.7231 42.5278 54.9569 33.0895 49.5077C23.6512 44.0585 20.4174 31.9898 25.8666 22.5515C31.3158 13.1131 43.3846 9.87934 52.8229 15.3286C62.2612 20.7778 65.495 32.8465 60.0458 42.2848Z" fill="white" fill-opacity="0.6"/>
</g>
<g filter="url(#filter1_b_129_188)">
<path fill-rule="evenodd" clip-rule="evenodd" d="M52.9455 15.6495C43.7384 10.3338 31.9652 13.4884 26.6495 22.6955C21.3338 31.9026 24.4884 43.6758 33.6955 48.9915C39.0215 52.0665 45.9082 52.3035 51.4917 50.0529C51.8759 49.8981 52.3129 50.084 52.4677 50.4682C52.6226 50.8523 52.4367 51.2893 52.0525 51.4442C46.0783 53.8522 38.7046 53.6155 32.9455 50.2905C23.0209 44.5606 19.6205 31.8701 25.3505 21.9455C31.0804 12.0209 43.7709 8.62052 53.6955 14.3505C54.0542 14.5576 54.1771 15.0163 53.97 15.375C53.7629 15.7337 53.3042 15.8566 52.9455 15.6495Z" fill="#0F75C1"/>
</g>
<path fill-rule="evenodd" clip-rule="evenodd" d="M52.9006 25.385L52.7443 25.2299C51.8841 24.4546 50.6156 24.5063 49.8098 25.385L40.7725 35.2394L37.0266 31.1547C36.1704 30.2211 34.792 30.2211 33.9358 31.1547C33.0679 32.1011 33.0679 33.644 33.9358 34.5903L38.6392 39.719C39.8201 41.0067 41.725 41.0067 42.9059 39.719L52.9006 28.8206C53.7143 27.9334 53.7651 26.5219 53.0532 25.5691L52.9006 25.385Z" fill="#1C98F2"/>
<path fill-rule="evenodd" clip-rule="evenodd" d="M105.876 89.0501C106.291 89.0555 106.622 89.3957 106.617 89.8099C106.508 98.0667 103.683 106.666 100.232 114.032C96.7782 121.403 92.6673 127.599 89.9211 131.066C89.6639 131.39 89.1922 131.445 88.8675 131.188C88.5429 130.931 88.4882 130.459 88.7454 130.134C91.4214 126.756 95.4705 120.659 98.8741 113.395C102.281 106.125 105.012 97.7466 105.117 89.7901C105.122 89.3759 105.462 89.0446 105.876 89.0501Z" fill="#0F75C1"/>
<path fill-rule="evenodd" clip-rule="evenodd" d="M119.268 20.5706C119.358 20.1663 119.758 19.9113 120.163 20.0012C122.538 20.5291 125.144 22.9655 126.782 28.1751C128.426 33.4047 129.151 41.5673 127.678 53.889C127.629 54.3003 127.256 54.5939 126.844 54.5447C126.433 54.4955 126.139 54.1222 126.189 53.711C127.649 41.4994 126.907 33.5731 125.351 28.625C123.789 23.6567 121.462 21.8265 119.837 21.4655C119.433 21.3756 119.178 20.975 119.268 20.5706Z" fill="#0F75C1"/>
<defs>
<filter id="filter0_b_129_188" x="18.9529" y="8.41482" width="48.0066" height="48.0066" filterUnits="userSpaceOnUse" color-interpolation-filters="sRGB">
<feFlood flood-opacity="0" result="BackgroundImageFix"/>
<feGaussianBlur in="BackgroundImage" stdDeviation="2.13333"/>
<feComposite in2="SourceAlpha" operator="in" result="effect1_backgroundBlur_129_188"/>
<feBlend mode="normal" in="SourceGraphic" in2="effect1_backgroundBlur_129_188" result="shape"/>
</filter>
<filter id="filter1_b_129_188" x="18.3003" y="7.30037" width="40.0369" height="50.0152" filterUnits="userSpaceOnUse" color-interpolation-filters="sRGB">
<feFlood flood-opacity="0" result="BackgroundImageFix"/>
<feGaussianBlur in="BackgroundImage" stdDeviation="2.13333"/>
<feComposite in2="SourceAlpha" operator="in" result="effect1_backgroundBlur_129_188"/>
<feBlend mode="normal" in="SourceGraphic" in2="effect1_backgroundBlur_129_188" result="shape"/>
</filter>
<linearGradient id="paint0_linear_129_188" x1="23.6805" y1="144.767" x2="100.755" y2="-0.382656" gradientUnits="userSpaceOnUse">
<stop offset="0.0647845" stop-color="#1C85E8"/>
<stop offset="1" stop-color="#57C6FF" stop-opacity="0.5"/>
<stop offset="1" stop-color="#57C6FF" stop-opacity="0.5"/>
</linearGradient>
<linearGradient id="paint1_linear_129_188" x1="111.467" y1="24.2" x2="104.919" y2="55.4683" gradientUnits="userSpaceOnUse">
<stop stop-color="#1C85E8"/>
<stop offset="1" stop-color="#57C6FF"/>
</linearGradient>
</defs>
</svg>
