<svg width="720" height="1024" viewBox="0 0 720 1024" fill="none" xmlns="http://www.w3.org/2000/svg" xmlns:xlink="http://www.w3.org/1999/xlink">
<g clip-path="url(#clip0_1780_45860)">
<path d="M0 0H720V1024H0V0Z" fill="url(#paint0_linear_1780_45860)"/>
<rect x="-23" y="905" width="743" height="158" fill="#A1ABAF"/>
<g filter="url(#filter0_b_1780_45860)">
<path d="M750.077 968C750.077 1019.66 708.198 1061.54 656.538 1061.54C604.879 1061.54 563 1019.66 563 968C563 916.34 604.879 874.462 656.538 874.462C708.198 874.462 750.077 916.34 750.077 968Z" fill="white" fill-opacity="0.7"/>
</g>
<g filter="url(#filter1_b_1780_45860)">
<path fill-rule="evenodd" clip-rule="evenodd" d="M655.077 874.462C655.077 873.654 655.732 873 656.539 873C709.006 873 751.539 915.533 751.539 968C751.539 1020.47 709.006 1063 656.539 1063C655.732 1063 655.077 1062.35 655.077 1061.54C655.077 1060.73 655.732 1060.08 656.539 1060.08C707.391 1060.08 748.616 1018.85 748.616 968C748.616 917.147 707.391 875.923 656.539 875.923C655.732 875.923 655.077 875.269 655.077 874.462Z" fill="#A1ABAF"/>
</g>
<path fill-rule="evenodd" clip-rule="evenodd" d="M685.193 944.813L676.423 930.106C675.781 929.029 674.428 928.703 673.402 929.375C672.376 930.047 672.063 931.466 672.705 932.54L681.474 947.247C682.117 948.324 683.469 948.65 684.495 947.978C685.521 947.306 685.835 945.887 685.193 944.813Z" fill="#737F85"/>
<path fill-rule="evenodd" clip-rule="evenodd" d="M623.809 947.247L632.578 932.54C633.22 931.466 632.907 930.047 631.881 929.375C630.855 928.703 629.502 929.029 628.86 930.106L620.091 944.813C619.448 945.887 619.762 947.306 620.788 947.978C621.814 948.65 623.166 948.324 623.809 947.247Z" fill="#737F85"/>
<path fill-rule="evenodd" clip-rule="evenodd" d="M617.781 959.641L621.576 1000.75C621.903 1004.28 624.735 1006.97 628.122 1006.97H677.16C680.547 1006.97 683.379 1004.28 683.706 1000.75L687.501 959.641H617.781ZM608.795 950.625C608.795 946.817 611.739 943.731 615.372 943.731H689.91C693.543 943.731 696.487 946.817 696.487 950.625V950.468C696.487 946.662 693.543 943.577 689.91 943.577H615.372C611.739 943.577 608.795 946.662 608.795 950.468V950.625ZM650.449 968.653V993.541C650.449 994.811 651.431 995.84 652.642 995.84C653.852 995.84 654.834 994.811 654.834 993.541V968.653C654.834 967.384 653.852 966.355 652.642 966.355C651.431 966.355 650.449 967.384 650.449 968.653ZM667.553 968.741L663.743 993.301C663.549 994.551 664.359 995.734 665.553 995.936C666.746 996.141 667.873 995.29 668.067 994.04L671.877 969.48C672.071 968.23 671.26 967.046 670.066 966.844C668.873 966.64 667.747 967.49 667.553 968.741ZM637.225 994.04L633.415 969.48C633.221 968.229 634.032 967.046 635.225 966.844C636.419 966.64 637.545 967.49 637.739 968.741L641.549 993.3C641.743 994.551 640.932 995.734 639.739 995.936C638.545 996.141 637.419 995.29 637.225 994.04Z" fill="#737F85"/>
<path opacity="0.3" fill-rule="evenodd" clip-rule="evenodd" d="M696.487 952.747V950.625C696.487 946.817 693.543 943.731 689.91 943.731C675.511 943.731 629.771 943.731 615.372 943.731C611.739 943.731 608.795 946.817 608.795 950.625V952.747C608.795 956.555 611.739 959.641 615.372 959.641H689.91C693.543 959.641 696.487 956.555 696.487 952.747Z" fill="#737F85"/>
<path opacity="0.5" fill-rule="evenodd" clip-rule="evenodd" d="M650.449 968.653V993.541C650.449 994.811 651.432 995.84 652.642 995.84C653.852 995.84 654.834 994.811 654.834 993.541V968.653C654.834 967.384 653.852 966.354 652.642 966.354C651.432 966.354 650.449 967.384 650.449 968.653ZM667.553 968.741L663.743 993.301C663.549 994.551 664.359 995.734 665.553 995.936C666.747 996.141 667.873 995.29 668.067 994.04L671.877 969.48C672.071 968.229 671.26 967.046 670.067 966.844C668.873 966.64 667.747 967.49 667.553 968.741ZM637.225 994.039L633.415 969.48C633.221 968.229 634.032 967.046 635.225 966.844C636.419 966.64 637.545 967.49 637.739 968.741L641.549 993.3C641.743 994.551 640.933 995.734 639.739 995.936C638.545 996.141 637.419 995.29 637.225 994.039Z" fill="#737F85"/>
<path opacity="0.5" d="M3.63532 969C-0.305131 969 -3.49951 965.806 -3.49952 961.865L-3.49971 896L415.5 905L441.36 955.925C444.401 961.912 440.051 969 433.336 969L3.63532 969Z" fill="#737F85"/>
<path d="M409.426 532H-128.426C-139.789 532 -149 541.243 -149 552.645V926.355C-149 937.757 -139.789 947 -128.426 947H409.426C420.789 947 430 937.757 430 926.355V552.645C430 541.243 420.789 532 409.426 532Z" fill="#737F85"/>
<path d="M406.93 535H-128.89C-140.209 535 -149.386 544.176 -149.386 555.496V926.504C-149.386 937.824 -140.209 947 -128.89 947H406.93C418.25 947 427.426 937.824 427.426 926.504V555.496C427.426 544.176 418.25 535 406.93 535Z" fill="#BFC8CD"/>
<path d="M-171.936 920.385H453V931.4C453 938.041 450.362 944.41 445.666 949.106C440.97 953.801 434.601 956.44 427.96 956.44H-146.896C-153.537 956.44 -159.906 953.801 -164.602 949.106C-169.297 944.41 -171.936 938.041 -171.936 931.4V920.385Z" fill="#737F85"/>
<path d="M410.335 551.374H-133.897V899.298H410.335V551.374Z" fill="#A1ABAF"/>
<path d="M82.1602 920L89.9112 933.322H199.03L206.233 920H82.1602Z" fill="#A1ABAF"/>
<path d="M395.634 563.149H-118.101C-120.641 563.149 -122.701 565.208 -122.701 567.749V893.573C-122.701 896.114 -120.641 898.173 -118.101 898.173H395.634C398.174 898.173 400.234 896.114 400.234 893.573V567.749C400.234 565.208 398.174 563.149 395.634 563.149Z" fill="#C8D4DB"/>
<path d="M53.4342 572H-121.434C-122.299 572 -123 573.936 -123 576.325V882.675C-123 885.064 -122.299 887 -121.434 887H53.4342C54.299 887 55 885.064 55 882.675V576.325C55 573.936 54.299 572 53.4342 572Z" fill="#F1F1F1"/>
<path d="M381.247 616H73.7533C72.2327 616 71 616.406 71 616.906V681.094C71 681.594 72.2327 682 73.7533 682H381.247C382.767 682 384 681.594 384 681.094V616.906C384 616.406 382.767 616 381.247 616Z" fill="#F1F1F1"/>
<path d="M383.446 572H321.554C321.248 572 321 572.184 321 572.412V601.588C321 601.816 321.248 602 321.554 602H383.446C383.752 602 384 601.816 384 601.588V572.412C384 572.184 383.752 572 383.446 572Z" fill="#F1F1F1"/>
<path d="M381.247 698H73.7533C72.2327 698 71 699.162 71 700.595V884.405C71 885.838 72.2327 887 73.7533 887H381.247C382.767 887 384 885.838 384 884.405V700.595C384 699.162 382.767 698 381.247 698Z" fill="#F1F1F1"/>
<rect x="50" y="50" width="60" height="60" fill="url(#pattern0)"/>
<path fill-rule="evenodd" clip-rule="evenodd" d="M303.999 416.483L297.448 428.454L285.483 434.999C283.506 436.082 283.506 438.918 285.483 440.001L297.448 446.546L303.999 458.517C305.076 460.494 307.918 460.494 308.996 458.517L315.546 446.546L327.517 440.001C329.494 438.918 329.494 436.082 327.517 434.999L315.546 428.454L308.996 416.483C307.918 414.506 305.076 414.506 303.999 416.483Z" fill="#737F85"/>
<path fill-rule="evenodd" clip-rule="evenodd" d="M128.888 562.017L124.667 569.732L116.956 573.95C115.681 574.648 115.681 576.476 116.956 577.174L124.667 581.391L128.888 589.106C129.582 590.38 131.414 590.38 132.108 589.106L136.33 581.391L144.044 577.174C145.319 576.476 145.319 574.648 144.044 573.95L136.33 569.732L132.108 562.017C131.414 560.743 129.582 560.743 128.888 562.017Z" fill="#F1F1F1"/>
<g filter="url(#filter2_b_1780_45860)">
<path d="M215.43 511.715C215.43 548.56 185.56 578.43 148.715 578.43C111.869 578.43 82 548.56 82 511.715C82 474.869 111.869 445 148.715 445C185.56 445 215.43 474.869 215.43 511.715Z" fill="white" fill-opacity="0.6"/>
</g>
<g filter="url(#filter3_b_1780_45860)">
<path fill-rule="evenodd" clip-rule="evenodd" d="M148.13 448.044C121.526 448.044 98.6266 463.918 88.3924 486.718C88.0481 487.484 87.1474 487.827 86.3805 487.483C85.6137 487.139 85.2711 486.238 85.6153 485.471C96.3225 461.618 120.284 445 148.13 445C185.956 445 216.621 475.664 216.621 513.49C216.621 551.317 185.956 581.981 148.13 581.981C147.29 581.981 146.608 581.299 146.608 580.459C146.608 579.618 147.29 578.937 148.13 578.937C184.275 578.937 213.577 549.635 213.577 513.49C213.577 477.345 184.275 448.044 148.13 448.044Z" fill="#A1ABAF"/>
</g>
<path opacity="0.3" fill-rule="evenodd" clip-rule="evenodd" d="M167.712 492.468H156.337C155.445 492.468 154.721 493.194 154.721 494.086C154.721 494.978 155.445 495.704 156.337 495.704H167.712C168.605 495.704 169.329 494.978 169.329 494.086C169.329 493.194 168.605 492.468 167.712 492.468ZM167.159 501.576H142.152C141.26 501.576 140.535 502.302 140.535 503.194C140.535 504.087 141.26 504.813 142.152 504.813H167.159C168.05 504.813 168.775 504.087 168.775 503.194C168.775 502.302 168.05 501.576 167.159 501.576ZM142.152 510.684H167.159C168.05 510.684 168.775 511.41 168.775 512.303C168.775 513.195 168.05 513.921 167.159 513.921H142.152C141.26 513.921 140.535 513.195 140.535 512.303C140.535 511.41 141.26 510.684 142.152 510.684Z" fill="#737F85"/>
<path opacity="0.3" fill-rule="evenodd" clip-rule="evenodd" d="M165.267 545.895C167.117 545.812 167.332 545.799 165.353 545.893L165.34 545.895H123.474C120.862 545.895 118.356 544.854 116.509 543.005C114.66 541.154 113.623 538.645 113.623 536.029V523.784C113.623 522.891 114.345 522.166 115.239 522.166H153.837C155.02 522.275 155.456 522.883 155.453 523.784C155.453 527.008 155.513 530.011 155.513 532.892C155.513 538.286 159.879 545.895 165.267 545.895Z" fill="#737F85"/>
<path fill-rule="evenodd" clip-rule="evenodd" d="M131.948 522.166V482.705C131.948 481.813 132.673 481.086 133.564 481.086H176.758C177.649 481.086 178.374 481.813 178.374 482.705V532.782C178.374 539.962 172.561 545.782 165.391 545.782C164.762 545.782 164.143 545.737 163.538 545.65C158.947 544.309 155.456 537.715 155.456 532.892C155.456 531.492 155.442 530.063 155.428 528.594C155.412 527.04 155.397 525.442 155.397 523.784C155.4 522.883 154.964 522.275 153.781 522.166H131.948ZM167.704 492.468H156.329C155.437 492.468 154.713 493.194 154.713 494.086C154.713 494.978 155.437 495.704 156.329 495.704H167.704C168.596 495.704 169.32 494.978 169.32 494.086C169.32 493.194 168.596 492.468 167.704 492.468ZM167.15 501.576H142.143C141.252 501.576 140.527 502.302 140.527 503.194C140.527 504.087 141.252 504.813 142.143 504.813H167.15C168.041 504.813 168.766 504.087 168.766 503.194C168.766 502.302 168.041 501.576 167.15 501.576ZM142.143 510.684H167.15C168.041 510.684 168.766 511.41 168.766 512.303C168.766 513.195 168.041 513.921 167.15 513.921H142.143C141.252 513.921 140.527 513.195 140.527 512.303C140.527 511.41 141.252 510.684 142.143 510.684Z" fill="#737F85"/>
<g filter="url(#filter4_b_1780_45860)">
<path d="M642 406.867C642 452.095 605.335 488.76 560.107 488.76C514.878 488.76 478.213 452.095 478.213 406.867C478.213 361.638 514.878 324.974 560.107 324.974C605.335 324.974 642 361.638 642 406.867Z" fill="white" fill-opacity="0.6"/>
</g>
<g filter="url(#filter5_b_1780_45860)">
<path fill-rule="evenodd" clip-rule="evenodd" d="M560.244 326.064C515.542 326.064 479.304 362.302 479.304 407.004C479.304 451.707 515.542 487.945 560.244 487.945C586.123 487.945 611.648 474.338 627.22 454.441C627.782 453.722 628.82 453.596 629.539 454.158C630.257 454.72 630.384 455.758 629.821 456.477C613.678 477.105 587.224 491.249 560.244 491.249C513.717 491.249 476 453.531 476 407.004C476 360.478 513.717 322.76 560.244 322.76C561.157 322.76 561.896 323.5 561.896 324.412C561.896 325.324 561.157 326.064 560.244 326.064Z" fill="#A1ABAF"/>
</g>
<path d="M585.438 432.98C586.491 434.033 586.491 435.74 585.438 436.792L578.905 443.325C575.144 447.086 569.046 447.086 565.284 443.325L551.925 429.965C550.728 428.768 549.868 427.278 549.43 425.643L548.753 423.109C547.863 419.782 545.264 417.182 541.936 416.293L539.403 415.615C537.768 415.178 536.277 414.318 535.081 413.121L521.721 399.761C517.959 396 517.959 389.902 521.721 386.14L528.253 379.608C529.306 378.555 531.013 378.555 532.066 379.608L532.516 380.058C533.32 380.862 533.32 382.166 532.516 382.97C531.433 384.052 531.868 385.896 533.321 386.38L534.583 386.801C535.403 387.074 536.056 387.701 536.364 388.508L536.666 389.299C537.489 391.459 539.767 392.691 542.025 392.199L545.502 391.44C546.689 391.181 547.923 391.247 549.075 391.631C551.501 392.44 554.175 391.808 555.983 390L571.589 374.39C577.463 368.516 585.155 364.905 593.278 364.063C597.748 363.6 601.448 367.293 600.989 371.763C600.701 374.562 600.076 377.312 599.115 379.956C597.399 384.95 594.502 389.601 590.651 393.452L575.076 409.031C573.249 410.858 572.611 413.561 573.428 416.012C573.804 417.138 573.879 418.343 573.646 419.507L572.85 423.488C572.418 425.644 573.66 427.783 575.746 428.479L576.463 428.718C577.313 429.001 577.98 429.668 578.263 430.518L578.666 431.725C579.15 433.178 580.993 433.613 582.076 432.53C582.88 431.726 584.184 431.726 584.988 432.53L585.438 432.98Z" fill="#737F85"/>
<path fill-rule="evenodd" clip-rule="evenodd" d="M583.784 373.618C584.836 372.566 586.543 372.566 587.595 373.618L591.407 377.43C592.46 378.483 592.46 380.189 591.407 381.242C590.354 382.294 588.648 382.294 587.595 381.242L583.784 377.43C582.731 376.378 582.731 374.671 583.784 373.618ZM549.222 389.138L547.315 391.044L547.314 391.045L541.189 397.17C539.308 399.051 536.259 399.051 534.378 397.17L533.564 396.356C531.684 394.475 531.684 391.426 533.564 389.545L535.878 387.232L535.879 387.232L535.878 387.232L541.597 381.514C543.694 379.417 547.125 379.417 549.222 381.514C551.318 383.61 551.318 387.042 549.222 389.138ZM583.532 423.449L577.814 429.167L577.813 429.167L577.813 429.168L575.5 431.481C573.619 433.361 570.57 433.361 568.689 431.481L567.875 430.667C565.995 428.786 565.994 425.737 567.875 423.856L574.001 417.731L574.001 417.732L574.001 417.73L575.907 415.824C578.004 413.727 581.435 413.727 583.532 415.824C585.629 417.921 585.629 421.352 583.532 423.449ZM527.856 439.911C533.45 438.702 544.251 436.044 547.315 432.98C548.688 431.607 549.641 429.892 550.098 428.138L550.098 428.137C551.051 424.516 550.136 420.552 547.316 417.731L547.315 417.731L547.315 417.73C544.494 414.909 540.529 413.994 536.907 414.948L536.907 414.948C535.154 415.405 533.439 416.358 532.066 417.731C529.002 420.795 526.344 431.596 525.136 437.19C524.779 438.838 526.208 440.267 527.856 439.911Z" fill="white"/>
<path opacity="0.5" fill-rule="evenodd" clip-rule="evenodd" d="M583.784 373.618C584.836 372.566 586.543 372.566 587.595 373.618L591.407 377.43C592.46 378.483 592.46 380.189 591.407 381.242C590.354 382.294 588.648 382.294 587.595 381.242L583.784 377.43C582.731 376.378 582.731 374.671 583.784 373.618ZM549.222 389.138L547.315 391.044L547.314 391.045L541.189 397.17C539.308 399.051 536.259 399.051 534.378 397.17L533.564 396.356C531.684 394.475 531.684 391.426 533.564 389.545L535.878 387.232L535.879 387.232L535.878 387.232L541.597 381.514C543.694 379.417 547.125 379.417 549.222 381.514C551.318 383.61 551.318 387.042 549.222 389.138ZM583.532 423.449L577.814 429.168L577.813 429.167L577.813 429.168L575.5 431.481C573.619 433.361 570.57 433.361 568.689 431.481L567.875 430.667C565.995 428.786 565.994 425.737 567.875 423.856L574.001 417.731L574.001 417.732L574.001 417.73L575.907 415.824C578.004 413.727 581.435 413.727 583.532 415.824C585.629 417.921 585.629 421.352 583.532 423.449ZM527.856 439.911C533.45 438.702 544.251 436.044 547.315 432.98C548.688 431.607 549.641 429.892 550.098 428.138L550.098 428.137C551.051 424.516 550.136 420.552 547.316 417.731L547.315 417.731L547.315 417.731C544.494 414.909 540.529 413.994 536.907 414.948L536.907 414.948C535.154 415.405 533.439 416.358 532.066 417.731C529.002 420.795 526.344 431.596 525.136 437.19C524.779 438.838 526.208 440.267 527.856 439.911Z" fill="#737F85"/>
<g filter="url(#filter6_b_1780_45860)">
<path d="M465 682.5C465 713.704 439.704 739 408.5 739C377.296 739 352 713.704 352 682.5C352 651.296 377.296 626 408.5 626C439.704 626 465 651.296 465 682.5Z" fill="white" fill-opacity="0.6"/>
</g>
<g filter="url(#filter7_b_1780_45860)">
<path fill-rule="evenodd" clip-rule="evenodd" d="M409.268 629.152C379.381 629.152 355.152 653.381 355.152 683.268C355.152 684.139 354.447 684.844 353.576 684.844C352.706 684.844 352 684.139 352 683.268C352 651.64 377.64 626 409.268 626C440.897 626 466.536 651.64 466.536 683.268C466.536 706.418 452.8 726.357 433.041 735.384C432.249 735.746 431.314 735.397 430.952 734.605C430.59 733.814 430.939 732.879 431.731 732.517C450.409 723.983 463.384 705.139 463.384 683.268C463.384 653.381 439.156 629.152 409.268 629.152Z" fill="#A1ABAF"/>
</g>
<path fill-rule="evenodd" clip-rule="evenodd" d="M394.766 704.393L387.375 704.529L387.917 677.621L395.309 677.485L394.766 704.393ZM426.041 704.046L418.65 704.183L419.193 677.274L426.584 677.138L426.041 704.046ZM403.012 704.356L410.404 704.22L410.946 677.312L403.555 677.448L403.012 704.356Z" fill="white"/>
<path opacity="0.5" fill-rule="evenodd" clip-rule="evenodd" d="M394.766 704.393L387.375 704.529L387.917 677.621L395.309 677.485L394.766 704.393ZM426.041 704.046L418.65 704.183L419.193 677.274L426.584 677.138L426.041 704.046ZM403.012 704.356L410.404 704.22L410.946 677.312L403.555 677.448L403.012 704.356Z" fill="#737F85"/>
<rect width="50.6367" height="9.17213" rx="1.05823" transform="matrix(0.999467 -0.000518057 0.000383258 0.999572 381.421 701.683)" fill="#737F85"/>
<path d="M432.033 679.118C432.033 679.703 431.56 680.176 430.976 680.177L382.487 680.202C381.903 680.202 381.43 679.729 381.429 679.145L381.426 671.015C381.426 670.638 381.627 670.289 381.952 670.1L406.191 656.006C406.52 655.815 406.925 655.815 407.254 656.005L431.503 670.074C431.829 670.263 432.03 670.611 432.03 670.988L432.033 679.118Z" fill="#737F85"/>
<path d="M407.07 674.801C409.726 674.741 411.915 672.495 411.961 669.785C412.006 667.075 409.89 664.927 407.234 664.987C404.578 665.047 402.389 667.293 402.343 670.003C402.298 672.713 404.414 674.861 407.07 674.801Z" fill="#737F85"/>
<path d="M407.07 674.801C409.726 674.741 411.915 672.495 411.961 669.785C412.006 667.075 409.89 664.927 407.234 664.987C404.578 665.047 402.389 667.293 402.343 670.003C402.298 672.713 404.414 674.861 407.07 674.801Z" fill="white"/>
<path fill-rule="evenodd" clip-rule="evenodd" d="M598.888 599.186L593.356 608.763L583.252 613.999C581.583 614.865 581.583 617.135 583.252 618.001L593.356 623.237L598.888 632.814C599.797 634.395 602.198 634.395 603.107 632.814L608.639 623.237L618.748 618.001C620.417 617.135 620.417 614.865 618.748 613.999L608.639 608.763L603.107 599.186C602.198 597.605 599.797 597.605 598.888 599.186Z" fill="#F1F1F1"/>
<path fill-rule="evenodd" clip-rule="evenodd" d="M207.665 772.384L201.552 783.557L190.384 789.665C188.539 790.676 188.539 793.324 190.384 794.335L201.552 800.443L207.665 811.616C208.671 813.461 211.324 813.461 212.329 811.616L218.443 800.443L229.616 794.335C231.461 793.324 231.461 790.676 229.616 789.665L218.443 783.557L212.329 772.384C211.324 770.539 208.671 770.539 207.665 772.384Z" fill="white"/>
<path opacity="0.5" fill-rule="evenodd" clip-rule="evenodd" d="M535.999 834.857L532.069 841.774L524.89 845.555C523.703 846.181 523.703 847.819 524.89 848.445L532.069 852.227L535.999 859.143C536.646 860.286 538.351 860.286 538.997 859.143L542.927 852.227L550.11 848.445C551.297 847.819 551.297 846.181 550.11 845.555L542.927 841.774L538.997 834.857C538.351 833.714 536.646 833.714 535.999 834.857Z" fill="white"/>
</g>
<defs>
<filter id="filter0_b_1780_45860" x="555" y="866.462" width="203.077" height="203.077" filterUnits="userSpaceOnUse" color-interpolation-filters="sRGB">
<feFlood flood-opacity="0" result="BackgroundImageFix"/>
<feGaussianBlur in="BackgroundImage" stdDeviation="4"/>
<feComposite in2="SourceAlpha" operator="in" result="effect1_backgroundBlur_1780_45860"/>
<feBlend mode="normal" in="SourceGraphic" in2="effect1_backgroundBlur_1780_45860" result="shape"/>
</filter>
<filter id="filter1_b_1780_45860" x="647.077" y="865" width="112.461" height="206" filterUnits="userSpaceOnUse" color-interpolation-filters="sRGB">
<feFlood flood-opacity="0" result="BackgroundImageFix"/>
<feGaussianBlur in="BackgroundImage" stdDeviation="4"/>
<feComposite in2="SourceAlpha" operator="in" result="effect1_backgroundBlur_1780_45860"/>
<feBlend mode="normal" in="SourceGraphic" in2="effect1_backgroundBlur_1780_45860" result="shape"/>
</filter>
<pattern id="pattern0" patternContentUnits="objectBoundingBox" width="1" height="1">
<use xlink:href="#image0_1780_45860" transform="scale(0.00416667)"/>
</pattern>
<filter id="filter2_b_1780_45860" x="58" y="421" width="181.43" height="181.43" filterUnits="userSpaceOnUse" color-interpolation-filters="sRGB">
<feFlood flood-opacity="0" result="BackgroundImageFix"/>
<feGaussianBlur in="BackgroundImage" stdDeviation="12"/>
<feComposite in2="SourceAlpha" operator="in" result="effect1_backgroundBlur_1780_45860"/>
<feBlend mode="normal" in="SourceGraphic" in2="effect1_backgroundBlur_1780_45860" result="shape"/>
</filter>
<filter id="filter3_b_1780_45860" x="75.2285" y="434.747" width="151.645" height="157.487" filterUnits="userSpaceOnUse" color-interpolation-filters="sRGB">
<feFlood flood-opacity="0" result="BackgroundImageFix"/>
<feGaussianBlur in="BackgroundImage" stdDeviation="5.12648"/>
<feComposite in2="SourceAlpha" operator="in" result="effect1_backgroundBlur_1780_45860"/>
<feBlend mode="normal" in="SourceGraphic" in2="effect1_backgroundBlur_1780_45860" result="shape"/>
</filter>
<filter id="filter4_b_1780_45860" x="454.213" y="300.974" width="211.787" height="211.787" filterUnits="userSpaceOnUse" color-interpolation-filters="sRGB">
<feFlood flood-opacity="0" result="BackgroundImageFix"/>
<feGaussianBlur in="BackgroundImage" stdDeviation="12"/>
<feComposite in2="SourceAlpha" operator="in" result="effect1_backgroundBlur_1780_45860"/>
<feBlend mode="normal" in="SourceGraphic" in2="effect1_backgroundBlur_1780_45860" result="shape"/>
</filter>
<filter id="filter5_b_1780_45860" x="466.368" y="313.129" width="173.436" height="187.752" filterUnits="userSpaceOnUse" color-interpolation-filters="sRGB">
<feFlood flood-opacity="0" result="BackgroundImageFix"/>
<feGaussianBlur in="BackgroundImage" stdDeviation="4.81579"/>
<feComposite in2="SourceAlpha" operator="in" result="effect1_backgroundBlur_1780_45860"/>
<feBlend mode="normal" in="SourceGraphic" in2="effect1_backgroundBlur_1780_45860" result="shape"/>
</filter>
<filter id="filter6_b_1780_45860" x="328" y="602" width="161" height="161" filterUnits="userSpaceOnUse" color-interpolation-filters="sRGB">
<feFlood flood-opacity="0" result="BackgroundImageFix"/>
<feGaussianBlur in="BackgroundImage" stdDeviation="12"/>
<feComposite in2="SourceAlpha" operator="in" result="effect1_backgroundBlur_1780_45860"/>
<feBlend mode="normal" in="SourceGraphic" in2="effect1_backgroundBlur_1780_45860" result="shape"/>
</filter>
<filter id="filter7_b_1780_45860" x="343.534" y="617.534" width="131.468" height="126.459" filterUnits="userSpaceOnUse" color-interpolation-filters="sRGB">
<feFlood flood-opacity="0" result="BackgroundImageFix"/>
<feGaussianBlur in="BackgroundImage" stdDeviation="4.23292"/>
<feComposite in2="SourceAlpha" operator="in" result="effect1_backgroundBlur_1780_45860"/>
<feBlend mode="normal" in="SourceGraphic" in2="effect1_backgroundBlur_1780_45860" result="shape"/>
</filter>
<linearGradient id="paint0_linear_1780_45860" x1="426" y1="202.032" x2="-58.1824" y2="977.319" gradientUnits="userSpaceOnUse">
<stop stop-color="#A1ABAF"/>
<stop offset="1" stop-color="#BFC8CD"/>
</linearGradient>
<clipPath id="clip0_1780_45860">
<rect width="720" height="1024" fill="white"/>
</clipPath>
</defs>
</svg>
