<svg width="160" height="160" viewBox="0 0 160 160" fill="none" xmlns="http://www.w3.org/2000/svg">
<path opacity="0.9" d="M77.5656 151.624C148.126 152.04 167.302 66.7036 138.29 37.5686C109.278 8.43357 77.3877 50.18 46.6492 56.4403C-16.4674 69.2949 7.00502 151.208 77.5656 151.624Z" fill="url(#paint0_linear_167_264)"/>
<path d="M28.6215 143.394L32.2349 131.26C32.8552 129.177 33.4817 127.061 33.5083 124.889C33.5525 121.417 32.0764 118.139 30.7679 114.917C28.8942 110.291 27.3238 105.548 26.0668 100.718C24.8248 95.9474 23.8883 90.9485 24.8171 86.1059C25.0119 85.0866 25.4281 83.9305 26.4187 83.6204C27.276 83.3527 28.2195 83.8897 28.7112 84.6405C29.203 85.3912 29.3511 86.3091 29.4918 87.1956C30.0995 90.9906 30.934 95.0085 33.6287 97.7496C32.6654 92.7806 31.7129 87.676 32.6318 82.7012C32.7576 82.0223 32.9313 81.3219 33.3723 80.7915C33.8133 80.2611 34.5952 79.9509 35.2177 80.2526C35.8402 80.5542 36.075 81.3001 36.2475 81.9755L39.8769 95.9854L39.024 82.3389C38.9859 81.7413 38.9522 81.1185 39.1904 80.5697C39.4286 80.021 40.0262 78.4935 41.4315 78.9751C42.6209 79.3827 42.5976 80.9983 42.7928 81.5984C44.2477 86.0523 44.6102 90.0985 46.0624 94.5566C45.6402 90.9222 45.5399 87.2576 45.7629 83.6055C45.8477 82.2166 46.027 80.7202 46.9771 79.705C47.382 79.2713 47.9561 78.9499 48.5453 79.0168C49.8245 79.1694 50.1739 80.8499 50.2186 82.1429C50.4496 88.6377 51.3629 95.0902 52.9434 101.394C53.2994 100.117 53.1966 102.486 54.9004 98.4828C55.1509 97.8959 54.9905 92.1383 57.0166 91.412C58.0584 91.0383 58.6742 92.4957 58.9837 93.5586C61.1734 101.081 62.349 111.324 58.6319 118.629C57.5424 120.771 56.9532 120.913 55.9125 123.084C54.3761 126.288 51.1188 145.112 50.9134 148.661" fill="#E1F2FF"/>
<path d="M52.06 140.559C51.2603 140.75 50.4431 140.972 49.6683 140.807C49.1721 140.702 48.7256 140.442 48.2532 140.256C45.858 139.309 43.1926 140.326 40.6209 140.551C37.4743 140.812 34.3468 139.861 31.8778 137.893C31.464 137.557 31.0372 137.178 30.5104 137.077L30.5011 137.075C29.8756 139.179 29.2488 141.284 28.6208 143.391L50.9142 148.658C50.9857 147.409 51.437 144.26 52.06 140.559Z" fill="#A4D3F6"/>
<path opacity="0.5" fill-rule="evenodd" clip-rule="evenodd" d="M29.1296 84.3665C28.5664 83.5066 27.4177 82.7848 26.2698 83.1431L26.2694 83.1432C25.6119 83.3491 25.1731 83.8298 24.8822 84.3549C24.5933 84.8763 24.428 85.4787 24.3261 86.0117M26.5682 84.0976C27.1349 83.9209 27.8729 84.2729 28.293 84.9144C28.7161 85.5603 28.8541 86.367 28.9981 87.274L29.9857 87.1172L29.9808 87.0865C29.8444 86.2269 29.6834 85.2121 29.1296 84.3665M57.937 90.9898C57.6075 90.8311 57.2347 90.8026 56.8479 90.9413C56.1398 91.1952 55.6961 91.8561 55.4056 92.5469C55.1081 93.2542 54.9229 94.1077 54.7984 94.9243C54.6733 95.7455 54.6054 96.559 54.5536 97.1918L54.5495 97.2413C54.5251 97.5396 54.5047 97.7901 54.4832 97.9859C54.472 98.0889 54.4612 98.1691 54.4508 98.2283C54.4423 98.2768 54.4366 98.2955 54.4369 98.2956C54.437 98.2956 54.4382 98.2923 54.4406 98.2866L55.3604 98.6791C55.4 98.5863 55.4217 98.4814 55.4358 98.401C55.4516 98.3111 55.465 98.2067 55.4773 98.0947C55.5003 97.8848 55.5218 97.6212 55.5456 97.3302L55.5503 97.2733C55.6022 96.6388 55.6677 95.8575 55.787 95.0751C55.907 94.2881 56.0772 93.5294 56.3274 92.9345C56.5845 92.3231 56.8805 91.9919 57.1854 91.8826L57.1855 91.8826C57.3196 91.8345 57.4145 91.8481 57.5031 91.8908C57.6089 91.9417 57.734 92.0502 57.8685 92.2378C58.1401 92.6169 58.3526 93.1794 58.5037 93.6984L58.9838 93.5586L58.5037 93.6984C59.5893 97.4276 60.4213 101.825 60.5231 106.187C60.625 110.553 59.9944 114.849 58.1864 118.403C57.6787 119.4 57.2877 119.943 56.8927 120.492C56.8779 120.512 56.863 120.533 56.8482 120.553C56.4262 121.139 56 121.745 55.4618 122.867M57.937 90.9898C58.2494 91.1403 58.4929 91.3925 58.6813 91.6553L57.937 90.9898ZM58.6813 91.6553C59.0554 92.1773 59.3055 92.875 59.4639 93.4188L58.6813 91.6553ZM59.4639 93.4188L59.4639 93.4189L59.4639 93.4188ZM59.4639 93.4189C60.5681 97.2123 61.4186 101.697 61.5228 106.164L59.4639 93.4189ZM61.5228 106.164C61.6269 110.626 60.9867 115.104 59.0777 118.856L61.5228 106.164ZM57.7048 121.075C58.1082 120.515 58.535 119.923 59.0777 118.856L59.0777 118.856M57.7048 121.075C57.6897 121.096 57.6747 121.117 57.6598 121.138L57.7048 121.075ZM57.6598 121.138C57.2546 121.7 56.8659 122.252 56.3635 123.3L57.6598 121.138ZM54.9994 128.045C55.527 125.762 56.0078 124.042 56.3635 123.3L56.3635 123.3M54.9994 128.045C54.4769 130.307 53.9208 133.063 53.4055 135.835L54.9994 128.045ZM53.4055 135.835C52.3722 141.391 51.5132 146.953 51.4126 148.69L53.4055 135.835ZM51.4126 148.69L50.4143 148.632L51.4126 148.69ZM50.4143 148.632C50.5192 146.821 51.3915 141.196 52.4224 135.652L50.4143 148.632ZM52.4224 135.652C52.9391 132.873 53.4982 130.101 54.025 127.82L52.4224 135.652ZM54.025 127.82C54.5467 125.563 55.0493 123.728 55.4617 122.867L54.025 127.82Z" fill="#0760A1"/>
<path d="M53.9921 146.463C54.0129 145.735 53.9432 144.847 53.2998 144.523C52.622 144.183 51.1873 144.724 50.4584 144.928C48.6592 145.432 46.9381 143.949 45.0961 143.638C44.0654 143.464 43.0132 143.666 41.9712 143.755C39.9409 143.918 37.8989 143.66 35.9728 142.998C34.0467 142.336 32.2778 141.283 30.7769 139.907C29.877 139.074 28.7215 138.043 27.6041 138.549C26.8348 138.896 26.5417 139.817 26.3318 140.635C25.945 142.14 24.993 144.472 24.6067 145.982L53.1084 152.716C53.5594 150.807 53.9393 148.468 53.9921 146.463Z" fill="#1A81CC"/>
<path d="M32.4716 97.6438C33.0053 97.3818 33.568 97.1837 34.1482 97.0535C34.3248 97.0053 34.5131 97.0245 34.6763 97.1076C34.8324 97.1964 34.9487 97.3415 35.0014 97.5132C35.0278 97.6005 35.0366 97.692 35.0273 97.7827C35.018 97.8734 34.9908 97.9613 34.9473 98.0413C34.9047 98.1197 34.8468 98.1889 34.7772 98.2447C34.7075 98.3005 34.6275 98.3418 34.5417 98.3664C34.066 98.4665 33.6025 98.6177 33.1593 98.8174L33.3175 98.7463L33.1864 98.8073C33.1129 98.8572 33.0277 98.887 32.9391 98.8936C32.8503 98.9166 32.7569 98.9155 32.6686 98.8905C32.4922 98.8488 32.3397 98.7388 32.2444 98.5847C32.1492 98.4305 32.1191 98.2449 32.1608 98.0685C32.1808 97.9815 32.2182 97.8994 32.2706 97.827C32.3229 97.7547 32.3893 97.6936 32.4658 97.6474L32.4716 97.6438Z" fill="#A4D3F7"/>
<path d="M39.0073 96.0216L39.8651 95.7031C39.9507 95.6735 40.0424 95.6663 40.1315 95.6822C40.2245 95.683 40.3155 95.709 40.3948 95.7575C40.5469 95.8504 40.6614 95.9939 40.7183 96.1628C40.745 96.2502 40.754 96.3421 40.7446 96.4331C40.7353 96.5241 40.7078 96.6123 40.6638 96.6925L40.5601 96.8324C40.479 96.9171 40.3776 96.9797 40.2656 97.0143L39.4046 97.3321C39.2748 97.3734 39.1354 97.3738 39.0053 97.3334C38.8752 97.2929 38.7607 97.2136 38.6771 97.1059C38.6171 97.0415 38.5735 96.9635 38.55 96.8786C38.5237 96.7911 38.515 96.6992 38.5243 96.6083C38.5337 96.5174 38.5609 96.4293 38.6045 96.3489L38.7082 96.209C38.7893 96.1243 38.8907 96.0617 39.0027 96.0271L39.0073 96.0216Z" fill="#A4D3F7"/>
<path d="M45.0003 94.4043C45.2429 94.2728 45.4962 94.1622 45.7574 94.0735C46.0212 93.9906 46.2917 93.9307 46.5658 93.8946C46.6585 93.8867 46.7516 93.9042 46.8351 93.945C46.9221 93.969 47.0008 94.0166 47.0623 94.0826C47.1293 94.1447 47.1831 94.2195 47.2206 94.3027C47.2581 94.3859 47.2785 94.4758 47.2807 94.567C47.2829 94.6583 47.2668 94.749 47.2334 94.834C47.1999 94.9189 47.1498 94.9962 47.0859 95.0614L46.9499 95.1707C46.8493 95.2336 46.7338 95.2687 46.6152 95.2725L46.54 95.2843L46.7116 95.2541C46.3897 95.309 46.0764 95.4051 45.7792 95.5402L45.9377 95.4675C45.8621 95.5023 45.7877 95.5389 45.7141 95.5791C45.5594 95.6698 45.3765 95.6999 45.201 95.6634C45.0265 95.6198 44.8756 95.5105 44.7798 95.3583C44.6853 95.205 44.6551 95.0207 44.6955 94.8452C44.716 94.7583 44.7535 94.6764 44.8059 94.6041C44.8582 94.5318 44.9244 94.4706 45.0005 94.4241L45.0003 94.4043Z" fill="#A4D3F7"/>
<path d="M55.4669 98.347C55.0902 100.749 53.3398 102.569 51.7408 104.265C51.3563 104.667 50.9714 105.086 50.6102 105.515C50.2499 105.931 49.9248 106.376 49.6382 106.846C49.3474 107.319 49.0865 107.809 48.857 108.315C48.7431 108.568 48.6331 108.824 48.5309 109.083C48.4508 109.283 48.3582 109.535 48.255 109.84C47.8361 111.056 47.5184 112.318 47.2086 113.573C47.1917 113.664 47.1564 113.751 47.105 113.828C47.0535 113.905 46.9869 113.971 46.9092 114.022C46.8316 114.072 46.7444 114.106 46.6531 114.122C46.5618 114.138 46.4681 114.136 46.3779 114.114C46.2877 114.093 46.2027 114.054 46.1282 113.998C46.0536 113.943 45.991 113.874 45.9442 113.794C45.8974 113.714 45.8674 113.625 45.8558 113.533C45.8443 113.441 45.8516 113.347 45.8773 113.258C46.4452 110.994 47.0323 108.683 48.1843 106.632C48.7771 105.612 49.4869 104.666 50.2993 103.811C51.0743 102.966 51.8955 102.162 52.6053 101.26C53.3334 100.335 53.9471 99.2407 54.1357 98.0391C54.1785 97.8631 54.289 97.7112 54.4432 97.6162C54.5974 97.5212 54.7828 97.4908 54.9592 97.5316C55.1334 97.577 55.2834 97.6877 55.3779 97.8408C55.4725 97.9939 55.5044 98.1776 55.467 98.3536L55.4669 98.347Z" fill="#A4D3F7"/>
<path d="M137.479 143.588L133.866 131.454C133.245 129.371 132.619 127.255 132.592 125.083C132.548 121.611 134.024 118.333 135.333 115.11C137.206 110.484 138.777 105.741 140.034 100.911C141.276 96.1411 142.212 91.1423 141.283 86.2997C141.089 85.2804 140.673 84.1243 139.682 83.8141C138.825 83.5465 137.881 84.0834 137.389 84.8342C136.898 85.585 136.75 86.5028 136.609 87.3894C136.001 91.1844 135.167 95.2023 132.472 97.9434C133.435 92.9743 134.388 87.8697 133.469 82.8949C133.343 82.2161 133.169 81.5156 132.728 80.9852C132.287 80.4548 131.505 80.1447 130.883 80.4463C130.26 80.7479 130.026 81.4939 129.853 82.1693L126.224 96.1792L127.077 82.5326C127.115 81.9351 127.148 81.3122 126.91 80.7635C126.672 80.2148 126.074 78.6872 124.669 79.1689C123.48 79.5765 123.503 81.192 123.308 81.7922C121.853 86.246 121.49 90.2922 120.038 94.7504C120.46 91.116 120.561 87.4513 120.338 83.7993C120.253 82.4104 120.074 80.9139 119.124 79.8988C118.719 79.4651 118.144 79.1437 117.555 79.2105C116.276 79.3631 115.927 81.0437 115.882 82.3366C115.651 88.8315 114.738 95.284 113.157 101.588C112.801 100.311 112.904 102.68 111.2 98.6766C110.95 98.0897 111.11 92.3321 109.084 91.6057C108.042 91.2321 107.426 92.6895 107.117 93.7523C104.927 101.275 103.752 111.517 107.469 118.823C108.558 120.964 109.147 121.106 110.188 123.277C111.724 126.482 114.982 145.306 115.187 148.855" fill="#E1F2FF"/>
<path d="M114.041 140.752C114.84 140.943 115.657 141.166 116.432 141.001C116.928 140.895 117.375 140.635 117.847 140.45C120.243 139.503 122.908 140.52 125.48 140.744C128.626 141.005 131.754 140.055 134.223 138.087C134.637 137.751 135.063 137.372 135.59 137.271L135.6 137.268C136.225 139.373 136.852 141.478 137.48 143.584L115.186 148.852C115.115 147.603 114.664 144.454 114.041 140.752Z" fill="#A4D3F6"/>
<path opacity="0.5" fill-rule="evenodd" clip-rule="evenodd" d="M136.971 84.5603C137.534 83.7003 138.683 82.9785 139.831 83.3369L139.831 83.337C140.489 83.5428 140.927 84.0236 141.218 84.5486C141.507 85.07 141.673 85.6725 141.774 86.2055M139.532 84.2913C138.966 84.1147 138.228 84.4666 137.808 85.1082C137.385 85.754 137.246 86.5608 137.103 87.4677L136.115 87.311L136.12 87.2803C136.256 86.4206 136.417 85.4059 136.971 84.5603M108.164 91.1836C108.493 91.0248 108.866 90.9963 109.253 91.1351C109.961 91.389 110.405 92.0499 110.695 92.7406C110.992 93.448 111.178 94.3015 111.302 95.1181C111.427 95.9392 111.495 96.7527 111.547 97.3855L111.551 97.4351C111.575 97.7334 111.596 97.9839 111.617 98.1796C111.629 98.2827 111.639 98.3628 111.65 98.4221C111.658 98.4705 111.664 98.4892 111.664 98.4893C111.664 98.4894 111.662 98.4861 111.66 98.4803L110.74 98.8728C110.701 98.7801 110.679 98.6752 110.665 98.5948C110.649 98.5049 110.636 98.4005 110.623 98.2885C110.6 98.0785 110.579 97.815 110.555 97.524L110.55 97.4671C110.498 96.8326 110.433 96.0512 110.314 95.2688C110.194 94.4819 110.023 93.7231 109.773 93.1283C109.516 92.5169 109.22 92.1857 108.915 92.0764L108.915 92.0764C108.781 92.0283 108.686 92.0418 108.598 92.0845C108.492 92.1355 108.367 92.244 108.232 92.4316C107.961 92.8106 107.748 93.3731 107.597 93.8921L107.117 93.7523L107.597 93.8921C106.511 97.6213 105.679 102.019 105.577 106.381C105.476 110.747 106.106 115.043 107.914 118.596C108.422 119.594 108.813 120.137 109.208 120.685C109.223 120.706 109.238 120.726 109.252 120.747C109.674 121.333 110.101 121.938 110.639 123.061M108.164 91.1836C107.851 91.334 107.608 91.5862 107.419 91.8491L108.164 91.1836ZM107.419 91.8491C107.045 92.3711 106.795 93.0687 106.637 93.6126L107.419 91.8491ZM106.637 93.6126L106.637 93.6126L106.637 93.6126ZM106.637 93.6126C105.532 97.4061 104.682 101.891 104.578 106.357L106.637 93.6126ZM104.578 106.357C104.474 110.82 105.114 115.298 107.023 119.05L104.578 106.357ZM108.396 121.269C107.992 120.709 107.566 120.116 107.023 119.05L107.023 119.05M108.396 121.269C108.411 121.29 108.426 121.31 108.441 121.331L108.396 121.269ZM108.441 121.331C108.846 121.894 109.235 122.445 109.737 123.493L108.441 121.331ZM111.101 128.239C110.574 125.955 110.093 124.235 109.737 123.493L109.737 123.493M111.101 128.239C111.624 130.501 112.18 133.257 112.695 136.028L111.101 128.239ZM112.695 136.028C113.728 141.585 114.587 147.146 114.688 148.884L112.695 136.028ZM114.688 148.884L115.686 148.826L114.688 148.884ZM115.686 148.826C115.581 147.014 114.709 141.389 113.678 135.846L115.686 148.826ZM113.678 135.846C113.161 133.067 112.602 130.295 112.076 128.014L113.678 135.846ZM112.076 128.014C111.554 125.756 111.051 123.922 110.639 123.061L112.076 128.014Z" fill="#0760A1"/>
<path d="M112.109 146.657C112.088 145.929 112.157 145.041 112.801 144.716C113.479 144.377 114.913 144.918 115.642 145.122C117.441 145.626 119.162 144.142 121.004 143.832C122.035 143.658 123.087 143.859 124.129 143.949C126.16 144.111 128.202 143.854 130.128 143.192C132.054 142.529 133.823 141.477 135.324 140.1C136.224 139.268 137.379 138.237 138.496 138.742C139.266 139.09 139.559 140.01 139.769 140.829C140.156 142.334 141.108 144.665 141.494 146.175L112.992 152.909C112.541 151 112.161 148.662 112.109 146.657Z" fill="#1A81CC"/>
<path d="M133.629 97.8376C133.095 97.5756 132.533 97.3774 131.952 97.2473C131.776 97.199 131.587 97.2183 131.424 97.3014C131.268 97.3902 131.152 97.5353 131.099 97.707C131.073 97.7942 131.064 97.8858 131.073 97.9765C131.083 98.0671 131.11 98.155 131.153 98.2351C131.196 98.3135 131.254 98.3826 131.323 98.4384C131.393 98.4942 131.473 98.5356 131.559 98.5601C132.035 98.6602 132.498 98.8114 132.941 99.0111L132.783 98.94L132.914 99.0011C132.988 99.051 133.073 99.0807 133.161 99.0873C133.25 99.1104 133.344 99.1093 133.432 99.0843C133.608 99.0426 133.761 98.9326 133.856 98.7784C133.951 98.6243 133.981 98.4386 133.94 98.2623C133.92 98.1752 133.882 98.0931 133.83 98.0208C133.778 97.9484 133.711 97.8873 133.635 97.8411L133.629 97.8376Z" fill="#A4D3F7"/>
<path d="M127.093 96.2153L126.235 95.8968C126.15 95.8672 126.058 95.86 125.969 95.8759C125.876 95.8767 125.785 95.9028 125.706 95.9513C125.554 96.0442 125.439 96.1876 125.382 96.3565C125.356 96.444 125.347 96.5359 125.356 96.6269C125.365 96.7179 125.393 96.806 125.437 96.8862L125.541 97.0261C125.622 97.1108 125.723 97.1734 125.835 97.2081L126.696 97.5258C126.826 97.5671 126.965 97.5676 127.095 97.5271C127.225 97.4867 127.34 97.4073 127.423 97.2997C127.484 97.2353 127.527 97.1573 127.551 97.0724C127.577 96.9849 127.586 96.893 127.576 96.8021C127.567 96.7112 127.54 96.623 127.496 96.5427L127.392 96.4028C127.311 96.3181 127.21 96.2554 127.098 96.2208L127.093 96.2153Z" fill="#A4D3F7"/>
<path d="M121.1 94.598C120.858 94.4666 120.604 94.3559 120.343 94.2673C120.079 94.1843 119.809 94.1245 119.535 94.0883C119.442 94.0805 119.349 94.0979 119.266 94.1388C119.178 94.1627 119.1 94.2104 119.038 94.2763C118.971 94.3384 118.918 94.4133 118.88 94.4965C118.843 94.5797 118.822 94.6695 118.82 94.7608C118.818 94.852 118.834 94.9428 118.867 95.0277C118.901 95.1126 118.951 95.19 119.015 95.2552L119.151 95.3645C119.251 95.4273 119.367 95.4625 119.485 95.4662L119.561 95.4781L119.389 95.4479C119.711 95.5027 120.024 95.5989 120.321 95.734L120.163 95.6613C120.238 95.696 120.313 95.7327 120.386 95.7729C120.541 95.8636 120.724 95.8936 120.9 95.8571C121.074 95.8135 121.225 95.7043 121.321 95.5521C121.415 95.3988 121.446 95.2144 121.405 95.039C121.385 94.9521 121.347 94.8701 121.295 94.7978C121.242 94.7256 121.176 94.6644 121.1 94.6178L121.1 94.598Z" fill="#A4D3F7"/>
<path d="M110.634 98.5408C111.01 100.942 112.761 102.763 114.36 104.459C114.744 104.861 115.129 105.28 115.49 105.709C115.851 106.125 116.176 106.57 116.462 107.039C116.753 107.512 117.014 108.003 117.244 108.509C117.358 108.761 117.468 109.018 117.57 109.277C117.65 109.477 117.742 109.729 117.846 110.034C118.264 111.25 118.582 112.511 118.892 113.767C118.909 113.858 118.944 113.945 118.996 114.022C119.047 114.099 119.114 114.165 119.191 114.215C119.269 114.266 119.356 114.3 119.447 114.316C119.539 114.332 119.632 114.329 119.723 114.308C119.813 114.287 119.898 114.247 119.972 114.192C120.047 114.137 120.11 114.067 120.156 113.987C120.203 113.907 120.233 113.819 120.245 113.727C120.256 113.635 120.249 113.541 120.223 113.452C119.655 111.188 119.068 108.877 117.916 106.826C117.323 105.806 116.614 104.859 115.801 104.005C115.026 103.16 114.205 102.356 113.495 101.454C112.767 100.529 112.153 99.4345 111.965 98.2328C111.922 98.0569 111.812 97.9049 111.657 97.8099C111.503 97.7149 111.318 97.6846 111.141 97.7254C110.967 97.7707 110.817 97.8815 110.723 98.0346C110.628 98.1877 110.596 98.3713 110.634 98.5474L110.634 98.5408Z" fill="#A4D3F7"/>
<path d="M25.8726 44.7905C25.8726 39.0423 31.1418 37.6053 33.7763 37.6053L76.8874 31.1386L95.5689 43.3535L31.5237 57.4293C30.7076 57.6087 29.856 57.2978 29.4182 56.586C27.9159 54.1433 25.8726 49.6372 25.8726 44.7905Z" fill="#1C98F2"/>
<path d="M52.4578 67.7831C55.3319 48.2394 40.722 39.5214 33.0578 37.6053L83.3541 28.2646C96.5104 31.4402 100.984 44.6711 101.932 54.817C102.379 59.5949 100.951 64.3016 100.451 69.0742C98.85 84.3448 108.583 99.0549 115.946 106.869C117.07 108.062 116.614 110.078 115.052 110.576L73.5455 123.81C70.6732 124.726 67.5025 124.276 65.1779 122.357C46.9778 107.328 49.0842 90.7237 52.4578 67.7831Z" fill="#C4E5FC"/>
<path opacity="0.5" fill-rule="evenodd" clip-rule="evenodd" d="M94.5506 48.0823C94.6592 48.6238 94.3082 49.1508 93.7667 49.2594L58.9359 56.245C58.3944 56.3536 57.8674 56.0027 57.7588 55.4612C57.6502 54.9197 58.0011 54.3927 58.5426 54.2841L93.3735 47.2985C93.915 47.1899 94.442 47.5408 94.5506 48.0823Z" fill="#1C98F2"/>
<path opacity="0.5" fill-rule="evenodd" clip-rule="evenodd" d="M94.7195 57.0679C94.8281 57.6094 94.4772 58.1364 93.9357 58.245L59.1049 65.2307C58.5634 65.3393 58.0363 64.9883 57.9277 64.4468C57.8191 63.9053 58.1701 63.3783 58.7116 63.2697L93.5424 56.2841C94.0839 56.1755 94.6109 56.5264 94.7195 57.0679Z" fill="#1C98F2"/>
<path opacity="0.5" fill-rule="evenodd" clip-rule="evenodd" d="M94.7195 66.0679C94.8281 66.6094 94.4772 67.1364 93.9357 67.245L59.1049 74.2307C58.5634 74.3393 58.0363 73.9883 57.9277 73.4468C57.8191 72.9053 58.1701 72.3783 58.7116 72.2697L93.5424 65.2841C94.0839 65.1755 94.6109 65.5264 94.7195 66.0679Z" fill="#1C98F2"/>
<path opacity="0.5" fill-rule="evenodd" clip-rule="evenodd" d="M94.7195 76.0679C94.8281 76.6094 94.4772 77.1364 93.9357 77.245L59.1049 84.2307C58.5634 84.3393 58.0363 83.9883 57.9277 83.4468C57.8191 82.9053 58.1701 82.3783 58.7116 82.2697L93.5424 75.2841C94.0839 75.1755 94.6109 75.5264 94.7195 76.0679Z" fill="#1C98F2"/>
<path opacity="0.5" fill-rule="evenodd" clip-rule="evenodd" d="M94.699 84.968C94.8105 85.5089 94.4625 86.0378 93.9216 86.1493L59.1292 93.3242C58.5883 93.4358 58.0594 93.0877 57.9479 92.5468C57.8363 92.0059 58.1844 91.477 58.7253 91.3654L93.5176 84.1906C94.0585 84.079 94.5875 84.4271 94.699 84.968Z" fill="#1C98F2"/>
<path opacity="0.5" fill-rule="evenodd" clip-rule="evenodd" d="M96.6521 92.7468C96.7701 93.2863 96.4284 93.8194 95.8889 93.9374L61.1856 101.531C60.6461 101.649 60.113 101.307 59.9949 100.768C59.8769 100.228 60.2185 99.6954 60.7581 99.5773L95.4614 91.9837C96.0009 91.8656 96.534 92.2073 96.6521 92.7468Z" fill="#1C98F2"/>
<path opacity="0.5" fill-rule="evenodd" clip-rule="evenodd" d="M100.514 101.161C100.65 101.696 100.325 102.24 99.7897 102.375L65.3478 111.078C64.8124 111.214 64.2686 110.889 64.1333 110.354C63.998 109.818 64.3224 109.275 64.8579 109.139L99.2997 100.436C99.8351 100.301 100.379 100.625 100.514 101.161Z" fill="#1C98F2"/>
<path d="M53.136 43.0003C52.4443 41.7344 53.1823 40.1612 54.5979 39.8838L86.8323 33.567C87.75 33.3872 88.6779 33.8261 89.1211 34.6496L90.8744 37.9078C91.5534 39.1696 90.8202 40.7286 89.4154 41.0104L57.2783 47.4559C56.3628 47.6395 55.4343 47.2065 54.9866 46.3872L53.136 43.0003Z" fill="#5DAFE6"/>
<path opacity="0.7" fill-rule="evenodd" clip-rule="evenodd" d="M82.8362 28.1395C82.9053 27.8534 83.1933 27.6774 83.4794 27.7465C96.9951 31.0089 101.511 44.5791 102.463 54.7674C102.692 57.2221 102.439 59.6447 102.074 62.0284C101.949 62.8428 101.812 63.6474 101.676 64.4477C101.409 66.0127 101.146 67.5605 100.981 69.1298C99.4051 84.1638 109.003 98.7237 116.334 106.504C117.707 107.961 117.177 110.458 115.214 111.084L73.7076 124.318C70.6843 125.282 67.3197 124.816 64.8387 122.768C55.6409 115.173 51.5476 107.148 50.2008 98.1156C48.8603 89.1257 50.2466 79.1575 51.9307 67.7055C51.9736 67.4143 52.2444 67.213 52.5356 67.2558C52.8268 67.2986 53.0282 67.5694 52.9853 67.8606C51.2958 79.3492 49.9422 89.1536 51.2551 97.9584C52.5617 106.721 56.5152 114.512 65.5174 121.946C67.6857 123.736 70.6626 124.17 73.3838 123.302L114.89 110.068C116.051 109.698 116.433 108.163 115.558 107.235C108.163 99.3861 98.2954 84.5258 99.9212 69.0187C100.089 67.4171 100.363 65.8084 100.632 64.2219C100.767 63.4301 100.901 62.6439 101.02 61.8668C101.382 59.5096 101.619 57.1898 101.402 54.8666C100.458 44.7631 96.0262 31.8716 83.2293 28.7827C82.9431 28.7136 82.7672 28.4256 82.8362 28.1395Z" fill="#0760A1"/>
<g filter="url(#filter0_b_167_264)">
<path d="M126.785 50.5494C121.336 59.9877 109.267 63.2215 99.8288 57.7723C90.3905 52.323 87.1567 40.2543 92.6059 30.816C98.0551 21.3777 110.124 18.1439 119.562 23.5931C129 29.0423 132.234 41.111 126.785 50.5494Z" fill="white" fill-opacity="0.6"/>
</g>
<g filter="url(#filter1_b_167_264)">
<path fill-rule="evenodd" clip-rule="evenodd" d="M119.685 23.9141C110.478 18.5983 98.7045 21.7529 93.3888 30.9601C88.073 40.1672 91.2276 51.9403 100.435 57.2561C105.761 60.3311 112.647 60.5681 118.231 58.3175C118.615 58.1626 119.052 58.3485 119.207 58.7327C119.362 59.1169 119.176 59.5539 118.792 59.7087C112.818 62.1168 105.444 61.8801 99.6847 58.5551C89.7602 52.8252 86.3598 40.1346 92.0897 30.2101C97.8197 20.2855 110.51 16.8851 120.435 22.6151C120.793 22.8222 120.916 23.2808 120.709 23.6396C120.502 23.9983 120.043 24.1212 119.685 23.9141Z" fill="#0F75C1"/>
</g>
<path fill-rule="evenodd" clip-rule="evenodd" d="M112.185 30.6401C112.178 30.6396 107.135 30.6396 104.47 30.6396C103.912 30.6396 103.376 30.8616 102.981 31.2563C102.586 31.6511 102.364 32.1871 102.364 32.7452V48.2217C102.364 48.7799 102.586 49.3159 102.981 49.7106C103.376 50.1053 103.912 50.3273 104.47 50.3273H116.007C116.566 50.3273 117.102 50.1053 117.497 49.7096C117.892 49.3144 118.113 48.7784 118.113 48.2192L118.101 36.6611C118.141 36.4962 118.093 36.3205 117.97 36.1979L112.556 30.7838C112.457 30.6839 112.321 30.6337 112.185 30.6401ZM114.033 43.8939C113.297 43.1585 112.103 43.1585 111.368 43.8939C110.633 44.6292 110.633 45.8233 111.368 46.5586C112.103 47.2939 113.297 47.2939 114.033 46.5586C114.768 45.8233 114.768 44.6292 114.033 43.8939ZM109.111 38.9719C108.375 38.2366 107.181 38.2366 106.446 38.9719C105.711 39.7073 105.711 40.9013 106.446 41.6367C107.181 42.372 108.375 42.372 109.111 41.6367C109.846 40.9013 109.846 39.7073 109.111 38.9719Z" fill="#1C98F2"/>
<path fill-rule="evenodd" clip-rule="evenodd" d="M113.583 38.7259L106.2 46.1088C106.008 46.3007 106.008 46.6128 106.2 46.8047C106.392 46.9967 106.704 46.9967 106.896 46.8047L114.279 39.4218C114.471 39.2299 114.471 38.9178 114.279 38.7259C114.087 38.5334 113.775 38.5334 113.583 38.7259Z" fill="#84DAFF"/>
<path fill-rule="evenodd" clip-rule="evenodd" d="M112.395 30.6765V36.447H118.104C118.085 36.3545 118.04 36.2673 117.97 36.1979L112.556 30.7838C112.509 30.7366 112.454 30.7007 112.395 30.6765Z" fill="#84DAFF"/>
<path d="M29.6444 26.7563L33.0282 29.3887C33.2434 29.5762 33.5193 29.6795 33.8047 29.6795C34.0982 29.6648 34.3743 29.5359 34.5741 29.3204C34.9293 28.8911 34.9793 28.1506 34.4953 27.7751L31.1147 25.1445C30.8992 24.9558 30.6221 24.8527 30.3357 24.8544C30.0422 24.8691 29.7661 24.998 29.5664 25.2135C29.2136 25.642 29.1636 26.3825 29.6452 26.7588L29.6444 26.7563Z" fill="#1C98F2"/>
<path d="M75.0211 13.3115L73.77 17.412C73.702 17.6893 73.5359 17.9325 73.3025 18.0969C73.0541 18.2538 72.7541 18.3074 72.4667 18.2462C71.9291 18.0998 71.4619 17.523 71.6415 16.9374L72.8909 12.8402C72.9585 12.5618 73.1257 12.3179 73.3609 12.1545C73.6093 11.9975 73.9093 11.9439 74.1967 12.0051C74.7318 12.1524 75.199 12.7291 75.0219 13.314L75.0211 13.3115Z" fill="#1C98F2"/>
<path d="M40.2916 11.4581C40.691 12.2952 41.0895 13.1299 41.4964 14.0585C41.9033 14.9872 42.3104 15.9078 42.7018 16.8387C43.4842 18.7042 44.2191 20.5865 44.9066 22.4856C44.9941 22.7619 45.1878 22.9921 45.445 23.1255C45.7022 23.259 46.0019 23.2848 46.2782 23.1973C46.5544 23.1098 46.7846 22.9162 46.9181 22.6589C47.0515 22.4017 47.0773 22.102 46.9898 21.8258C45.5646 17.894 43.9334 14.0409 42.1238 10.2684C41.8767 9.75082 41.0505 9.63404 40.6113 9.94226C40.0796 10.3227 40.0232 10.8989 40.2852 11.4548L40.2916 11.4581Z" fill="#1C98F2"/>
<path d="M59.384 8.41281C59.5373 12.4605 59.4268 16.5138 59.0531 20.5471C59.0436 20.8365 59.1482 21.1179 59.3443 21.3308C59.5405 21.5436 59.8125 21.6708 60.1016 21.6849C60.3897 21.6899 60.6686 21.5837 60.8805 21.3885C61.0924 21.1932 61.2209 20.9239 61.2394 20.6363C61.6131 16.6027 61.7225 12.5489 61.567 8.50095C61.5526 7.92896 61.1411 7.36237 60.5196 7.36543C59.9679 7.36901 59.3619 7.80438 59.384 8.41281Z" fill="#1C98F2"/>
<defs>
<filter id="filter0_b_167_264" x="85.6922" y="16.6794" width="48.0066" height="48.0066" filterUnits="userSpaceOnUse" color-interpolation-filters="sRGB">
<feFlood flood-opacity="0" result="BackgroundImageFix"/>
<feGaussianBlur in="BackgroundImage" stdDeviation="2.13333"/>
<feComposite in2="SourceAlpha" operator="in" result="effect1_backgroundBlur_167_264"/>
<feBlend mode="normal" in="SourceGraphic" in2="effect1_backgroundBlur_167_264" result="shape"/>
</filter>
<filter id="filter1_b_167_264" x="85.0396" y="15.5649" width="40.0369" height="50.0152" filterUnits="userSpaceOnUse" color-interpolation-filters="sRGB">
<feFlood flood-opacity="0" result="BackgroundImageFix"/>
<feGaussianBlur in="BackgroundImage" stdDeviation="2.13333"/>
<feComposite in2="SourceAlpha" operator="in" result="effect1_backgroundBlur_167_264"/>
<feBlend mode="normal" in="SourceGraphic" in2="effect1_backgroundBlur_167_264" result="shape"/>
</filter>
<linearGradient id="paint0_linear_167_264" x1="160.239" y1="27.2646" x2="-13.3072" y2="117.78" gradientUnits="userSpaceOnUse">
<stop offset="0.0647845" stop-color="#1C85E8"/>
<stop offset="1" stop-color="#57C6FF" stop-opacity="0.5"/>
<stop offset="1" stop-color="#57C6FF" stop-opacity="0.5"/>
</linearGradient>
</defs>
</svg>
