<svg width="150" height="110" viewBox="0 0 150 110" fill="none" xmlns="http://www.w3.org/2000/svg">
<path opacity="0.9" d="M77.5756 108.237C119.736 106.901 153.21 30.1416 124.369 8.85876C95.5272 -12.424 82.3604 39.9551 55.1395 36.1359C38.1017 33.7454 26.0947 37.5017 21.2406 42.1789C-4.55357 66.8612 35.4151 109.574 77.5756 108.237Z" fill="url(#paint0_linear_129_272)"/>
<path d="M78.0597 88.0021C97.7023 88.0021 113.626 72.0786 113.626 52.436C113.626 32.7934 97.7023 16.87 78.0597 16.87C58.4171 16.87 42.4937 32.7934 42.4937 52.436C42.4937 72.0786 58.4171 88.0021 78.0597 88.0021Z" fill="#1C98F2"/>
<g filter="url(#filter0_b_129_272)">
<path d="M103.382 74.0207C93.5446 91.0602 71.7562 96.8984 54.7167 87.0606C37.6772 77.2228 31.839 55.4345 41.6768 38.3949C51.5145 21.3554 73.3029 15.5173 90.3424 25.355C107.382 35.1928 113.22 56.9812 103.382 74.0207Z" fill="white" fill-opacity="0.6"/>
</g>
<g filter="url(#filter1_b_129_272)">
<path fill-rule="evenodd" clip-rule="evenodd" d="M90.9232 25.3119C73.9572 15.5165 52.2628 21.3295 42.4675 38.2956C32.6721 55.2616 38.4851 76.9559 55.4511 86.7513C65.2741 92.4226 77.9404 92.8503 88.2079 88.7117C88.5332 88.5806 88.9033 88.738 89.0344 89.0633C89.1655 89.3887 89.0081 89.7587 88.6828 89.8898C78.0845 94.1617 65.0057 93.7343 54.816 87.8513C37.2425 77.7052 31.2213 55.234 41.3674 37.6605C51.5135 20.0869 73.9847 14.0658 91.5583 24.2118C91.8621 24.3872 91.9661 24.7757 91.7908 25.0794C91.6154 25.3832 91.227 25.4873 90.9232 25.3119Z" fill="#0F75C1"/>
</g>
<path fill-rule="evenodd" clip-rule="evenodd" d="M90.4828 43.5105L90.2006 43.2305C88.6475 41.8308 86.3575 41.9241 84.9027 43.5105L68.5872 61.3012L61.8245 53.927C60.2787 52.2414 57.7902 52.2414 56.2444 53.927C54.6776 55.6354 54.6776 58.4209 56.2444 60.1294L64.7358 69.3885C66.8677 71.7132 70.3067 71.7132 72.4387 69.3885L90.4828 49.7129C91.9517 48.1112 92.0435 45.5629 90.7582 43.8429L90.4828 43.5105Z" fill="#0973C0"/>
<path fill-rule="evenodd" clip-rule="evenodd" d="M34.5502 8.01883L32.3315 12.0738L28.2784 14.2906C27.6088 14.6574 27.6088 15.6183 28.2784 15.9852L32.3315 18.2019L34.5502 22.2569C34.9151 22.9266 35.8779 22.9266 36.2428 22.2569L38.4615 18.2019L42.5165 15.9852C43.1862 15.6183 43.1862 14.6574 42.5165 14.2906L38.4615 12.0738L36.2428 8.01883C35.8779 7.34914 34.9151 7.34914 34.5502 8.01883Z" fill="#0760A1"/>
<path fill-rule="evenodd" clip-rule="evenodd" d="M114.66 17.2606L112.935 20.4145L109.782 22.1387C109.261 22.424 109.261 23.1713 109.782 23.4567L112.935 25.1808L114.66 28.3347C114.944 28.8556 115.693 28.8556 115.977 28.3347L117.703 25.1808L120.856 23.4567C121.377 23.1713 121.377 22.424 120.856 22.1387L117.703 20.4145L115.977 17.2606C115.693 16.7398 114.944 16.7398 114.66 17.2606Z" fill="white"/>
<path fill-rule="evenodd" clip-rule="evenodd" d="M127.927 95.0835L126.571 97.5615L124.094 98.9162C123.685 99.1404 123.685 99.7276 124.094 99.9518L126.571 101.306L127.927 103.785C128.15 104.194 128.739 104.194 128.962 103.785L130.317 101.306L132.795 99.9518C133.205 99.7276 133.205 99.1404 132.795 98.9162L130.317 97.5615L128.962 95.0835C128.739 94.6742 128.15 94.6742 127.927 95.0835Z" fill="#419CED"/>
<path fill-rule="evenodd" clip-rule="evenodd" d="M22.7114 79.1577L21.3556 81.6358L18.8787 82.9905C18.4695 83.2147 18.4695 83.8018 18.8787 84.026L21.3556 85.3807L22.7114 87.8588C22.9344 88.268 23.5228 88.268 23.7458 87.8588L25.1017 85.3807L27.5797 84.026C27.989 83.8018 27.989 83.2147 27.5797 82.9905L25.1017 81.6358L23.7458 79.1577C23.5228 78.7485 22.9344 78.7485 22.7114 79.1577Z" fill="#419CED"/>
<defs>
<filter id="filter0_b_129_272" x="33.2848" y="16.9631" width="78.4895" height="78.4895" filterUnits="userSpaceOnUse" color-interpolation-filters="sRGB">
<feFlood flood-opacity="0" result="BackgroundImageFix"/>
<feGaussianBlur in="BackgroundImage" stdDeviation="1.80653"/>
<feComposite in2="SourceAlpha" operator="in" result="effect1_backgroundBlur_129_272"/>
<feBlend mode="normal" in="SourceGraphic" in2="effect1_backgroundBlur_129_272" result="shape"/>
</filter>
<filter id="filter1_b_129_272" x="32.8257" y="15.6701" width="62.6633" height="80.6779" filterUnits="userSpaceOnUse" color-interpolation-filters="sRGB">
<feFlood flood-opacity="0" result="BackgroundImageFix"/>
<feGaussianBlur in="BackgroundImage" stdDeviation="1.80653"/>
<feComposite in2="SourceAlpha" operator="in" result="effect1_backgroundBlur_129_272"/>
<feBlend mode="normal" in="SourceGraphic" in2="effect1_backgroundBlur_129_272" result="shape"/>
</filter>
<linearGradient id="paint0_linear_129_272" x1="140.821" y1="30.2944" x2="4.75464" y2="32.8219" gradientUnits="userSpaceOnUse">
<stop offset="0.0647845" stop-color="#1C85E8"/>
<stop offset="1" stop-color="#57C6FF" stop-opacity="0.5"/>
<stop offset="1" stop-color="#57C6FF" stop-opacity="0.5"/>
</linearGradient>
</defs>
</svg>
