<svg width="151" height="110" viewBox="0 0 151 110" fill="none" xmlns="http://www.w3.org/2000/svg">
<path opacity="0.9" d="M78.0756 108.237C120.236 106.901 153.71 30.1416 124.869 8.85876C96.0272 -12.424 82.8604 39.9551 55.6395 36.1359C38.6016 33.7454 26.5947 37.5017 21.7406 42.1789C-4.05358 66.8612 35.9151 109.574 78.0756 108.237Z" fill="url(#paint0_linear_1482_44558)"/>
<path d="M78.5597 88.0021C98.2022 88.0021 114.126 72.0786 114.126 52.436C114.126 32.7934 98.2022 16.87 78.5597 16.87C58.9171 16.87 42.9937 32.7934 42.9937 52.436C42.9937 72.0786 58.9171 88.0021 78.5597 88.0021Z" fill="#404C55"/>
<path d="M103.882 74.0206C94.0446 91.0602 72.2562 96.8983 55.2167 87.0606C38.1772 77.2228 32.339 55.4344 42.1768 38.3949C52.0145 21.3554 73.8029 15.5172 90.8424 25.355C107.882 35.1928 113.72 56.9811 103.882 74.0206Z" fill="white" fill-opacity="0.6"/>
<g filter="url(#filter0_b_1482_44558)">
<path fill-rule="evenodd" clip-rule="evenodd" d="M91.4232 25.3119C74.4571 15.5165 52.7628 21.3295 42.9674 38.2955C33.1721 55.2616 38.9851 76.9559 55.9511 86.7513C65.7741 92.4226 78.4404 92.8503 88.7079 88.7117C89.0332 88.5806 89.4032 88.738 89.5344 89.0633C89.6655 89.3887 89.5081 89.7587 89.1828 89.8898C78.5844 94.1617 65.5056 93.7343 55.316 87.8513C37.7424 77.7052 31.7213 55.234 41.8674 37.6604C52.0135 20.0869 74.4847 14.0657 92.0583 24.2118C92.362 24.3872 92.4661 24.7756 92.2907 25.0794C92.1153 25.3832 91.7269 25.4873 91.4232 25.3119Z" fill="#384147"/>
</g>
<path fill-rule="evenodd" clip-rule="evenodd" d="M90.9828 43.5105L90.7006 43.2305C89.1476 41.8308 86.8576 41.9241 85.4027 43.5105L69.0872 61.3012L62.3245 53.927C60.7788 52.2415 58.2902 52.2415 56.7445 53.927C55.1776 55.6355 55.1776 58.4209 56.7445 60.1294L65.2358 69.3885C67.3678 71.7132 70.8067 71.7132 72.9387 69.3885L90.9828 49.7129C92.4517 48.1112 92.5435 45.5629 91.2582 43.8429L90.9828 43.5105Z" fill="#2D3439"/>
<path fill-rule="evenodd" clip-rule="evenodd" d="M35.0501 8.01886L32.8314 12.0739L28.7784 14.2906C28.1087 14.6575 28.1087 15.6183 28.7784 15.9852L32.8314 18.2019L35.0501 22.2569C35.415 22.9266 36.3778 22.9266 36.7428 22.2569L38.9615 18.2019L43.0164 15.9852C43.6861 15.6183 43.6861 14.6575 43.0164 14.2906L38.9615 12.0739L36.7428 8.01886C36.3778 7.34918 35.415 7.34918 35.0501 8.01886Z" fill="#5D666C"/>
<path fill-rule="evenodd" clip-rule="evenodd" d="M115.16 17.2606L113.435 20.4145L110.282 22.1387C109.762 22.424 109.762 23.1713 110.282 23.4567L113.435 25.1808L115.16 28.3347C115.444 28.8556 116.193 28.8556 116.477 28.3347L118.203 25.1808L121.356 23.4567C121.877 23.1713 121.877 22.424 121.356 22.1387L118.203 20.4145L116.477 17.2606C116.193 16.7398 115.444 16.7398 115.16 17.2606Z" fill="white"/>
<path fill-rule="evenodd" clip-rule="evenodd" d="M128.427 95.0834L127.071 97.5615L124.594 98.9162C124.185 99.1404 124.185 99.7275 124.594 99.9517L127.071 101.306L128.427 103.784C128.65 104.194 129.239 104.194 129.462 103.784L130.817 101.306L133.295 99.9517C133.705 99.7275 133.705 99.1404 133.295 98.9162L130.817 97.5615L129.462 95.0834C129.239 94.6742 128.65 94.6742 128.427 95.0834Z" fill="#8D959A"/>
<path fill-rule="evenodd" clip-rule="evenodd" d="M23.2114 79.1578L21.8556 81.6358L19.3787 82.9905C18.9695 83.2147 18.9695 83.8019 19.3787 84.0261L21.8556 85.3808L23.2114 87.8588C23.4345 88.2681 24.0228 88.2681 24.2458 87.8588L25.6017 85.3808L28.0798 84.0261C28.489 83.8019 28.489 83.2147 28.0798 82.9905L25.6017 81.6358L24.2458 79.1578C24.0228 78.7485 23.4345 78.7485 23.2114 79.1578Z" fill="#8D959A"/>
<defs>
<filter id="filter0_b_1482_44558" x="33.3257" y="15.6701" width="62.6634" height="80.6779" filterUnits="userSpaceOnUse" color-interpolation-filters="sRGB">
<feFlood flood-opacity="0" result="BackgroundImageFix"/>
<feGaussianBlur in="BackgroundImage" stdDeviation="1.80653"/>
<feComposite in2="SourceAlpha" operator="in" result="effect1_backgroundBlur_1482_44558"/>
<feBlend mode="normal" in="SourceGraphic" in2="effect1_backgroundBlur_1482_44558" result="shape"/>
</filter>
<linearGradient id="paint0_linear_1482_44558" x1="141.321" y1="30.2944" x2="5.25463" y2="32.8219" gradientUnits="userSpaceOnUse">
<stop offset="0.0647845" stop-color="#A2ABB4"/>
<stop offset="1" stop-color="#DCDCDC" stop-opacity="0.3"/>
</linearGradient>
</defs>
</svg>
