<svg width="160" height="160" viewBox="0 0 160 160" fill="none" xmlns="http://www.w3.org/2000/svg">
<path opacity="0.9" d="M77.5656 151.624C148.126 152.04 164.927 77.5587 135.915 48.4237C106.903 19.2887 78.426 54.1555 47.6875 60.4158C-15.4291 73.2704 7.00498 151.208 77.5656 151.624Z" fill="url(#paint0_linear_246_515)"/>
<path d="M28.6215 143.394L32.2349 131.26C32.8552 129.177 33.4817 127.061 33.5083 124.889C33.5525 121.417 32.0764 118.139 30.7679 114.917C28.8942 110.291 27.3238 105.548 26.0668 100.718C24.8248 95.9474 23.8883 90.9485 24.8171 86.1059C25.0119 85.0866 25.4281 83.9305 26.4187 83.6204C27.276 83.3527 28.2195 83.8897 28.7112 84.6405C29.203 85.3912 29.3511 86.3091 29.4918 87.1956C30.0995 90.9906 30.934 95.0086 33.6287 97.7496C32.6654 92.7806 31.7129 87.676 32.6318 82.7012C32.7576 82.0223 32.9313 81.3219 33.3723 80.7915C33.8133 80.2611 34.5952 79.9509 35.2177 80.2526C35.8402 80.5542 36.075 81.3002 36.2475 81.9755L39.8769 95.9855L39.024 82.3389C38.9859 81.7413 38.9522 81.1185 39.1904 80.5697C39.4286 80.021 40.0262 78.4935 41.4315 78.9751C42.6209 79.3827 42.5976 80.9983 42.7928 81.5984C44.2477 86.0523 44.6102 90.0985 46.0624 94.5566C45.6402 90.9222 45.5399 87.2576 45.7629 83.6055C45.8477 82.2166 46.027 80.7202 46.9771 79.705C47.382 79.2713 47.9561 78.9499 48.5453 79.0168C49.8245 79.1694 50.1739 80.8499 50.2186 82.1429C50.4496 88.6377 51.3629 95.0902 52.9434 101.394C53.2994 100.117 53.1966 102.486 54.9004 98.4828C55.1509 97.8959 54.9905 92.1383 57.0166 91.412C58.0584 91.0383 58.6742 92.4957 58.9837 93.5586C61.1734 101.081 62.349 111.324 58.6319 118.629C57.5424 120.771 56.9532 120.913 55.9125 123.084C54.3761 126.288 51.1188 145.112 50.9134 148.661" fill="#E1F2FF"/>
<path d="M52.06 140.559C51.2603 140.75 50.4431 140.972 49.6683 140.807C49.1721 140.702 48.7256 140.442 48.2532 140.256C45.858 139.309 43.1926 140.326 40.6209 140.551C37.4743 140.812 34.3468 139.861 31.8778 137.893C31.464 137.557 31.0372 137.178 30.5104 137.077L30.5011 137.075C29.8756 139.179 29.2488 141.284 28.6208 143.391L50.9142 148.658C50.9857 147.409 51.437 144.26 52.06 140.559Z" fill="#A4D3F6"/>
<path opacity="0.5" fill-rule="evenodd" clip-rule="evenodd" d="M29.1296 84.3665C28.5664 83.5066 27.4177 82.7848 26.2698 83.1431L26.2694 83.1432C25.6119 83.3491 25.1731 83.8298 24.8822 84.3549C24.5933 84.8763 24.428 85.4787 24.3261 86.0118M26.5682 84.0976C27.1349 83.9209 27.8729 84.2729 28.293 84.9144C28.7161 85.5603 28.8541 86.3671 28.9981 87.274L29.9857 87.1172L29.9808 87.0865C29.8444 86.2269 29.6834 85.2121 29.1296 84.3665M57.937 90.9898C57.6075 90.8311 57.2347 90.8026 56.8479 90.9413C56.1398 91.1952 55.6961 91.8561 55.4056 92.5469C55.1081 93.2542 54.9229 94.1078 54.7984 94.9244C54.6733 95.7455 54.6054 96.559 54.5536 97.1918L54.5495 97.2414C54.5251 97.5396 54.5047 97.7902 54.4832 97.9859C54.472 98.0889 54.4612 98.1691 54.4508 98.2284C54.4423 98.2768 54.4366 98.2955 54.4369 98.2956C54.437 98.2956 54.4382 98.2924 54.4406 98.2866L55.3604 98.6791C55.4 98.5863 55.4217 98.4814 55.4358 98.4011C55.4516 98.3111 55.465 98.2067 55.4773 98.0947C55.5003 97.8848 55.5218 97.6212 55.5456 97.3303L55.5503 97.2733C55.6022 96.6388 55.6677 95.8575 55.787 95.0751C55.907 94.2881 56.0772 93.5294 56.3274 92.9345C56.5845 92.3231 56.8805 91.992 57.1854 91.8827L57.1855 91.8826C57.3196 91.8345 57.4145 91.8481 57.5031 91.8908C57.6089 91.9417 57.734 92.0502 57.8685 92.2379C58.1401 92.6169 58.3526 93.1794 58.5037 93.6984L58.9838 93.5586L58.5037 93.6984C59.5893 97.4276 60.4213 101.825 60.5231 106.187C60.625 110.553 59.9944 114.849 58.1864 118.403C57.6787 119.4 57.2877 119.943 56.8927 120.492C56.8779 120.512 56.863 120.533 56.8482 120.553C56.4262 121.139 56 121.745 55.4618 122.867M57.937 90.9898C58.2494 91.1403 58.4929 91.3925 58.6813 91.6554L57.937 90.9898ZM58.6813 91.6554C59.0554 92.1774 59.3055 92.875 59.4639 93.4188L58.6813 91.6554ZM59.4639 93.4188L59.4639 93.4189L59.4639 93.4188ZM59.4639 93.4189C60.5681 97.2123 61.4186 101.697 61.5228 106.164L59.4639 93.4189ZM61.5228 106.164C61.6269 110.626 60.9867 115.104 59.0777 118.856L61.5228 106.164ZM57.7048 121.075C58.1082 120.515 58.535 119.923 59.0777 118.856L59.0777 118.856M57.7048 121.075C57.6897 121.096 57.6747 121.117 57.6598 121.138L57.7048 121.075ZM57.6598 121.138C57.2546 121.7 56.8659 122.252 56.3635 123.3L57.6598 121.138ZM54.9994 128.045C55.527 125.762 56.0078 124.042 56.3635 123.3L56.3635 123.3M54.9994 128.045C54.4769 130.307 53.9208 133.064 53.4055 135.835L54.9994 128.045ZM53.4055 135.835C52.3722 141.391 51.5132 146.953 51.4126 148.69L53.4055 135.835ZM51.4126 148.69L50.4143 148.632L51.4126 148.69ZM50.4143 148.632C50.5192 146.821 51.3915 141.196 52.4224 135.652L50.4143 148.632ZM52.4224 135.652C52.9391 132.873 53.4982 130.101 54.025 127.82L52.4224 135.652ZM54.025 127.82C54.5467 125.563 55.0493 123.728 55.4617 122.867L54.025 127.82Z" fill="#0760A1"/>
<path d="M53.9921 146.463C54.0129 145.735 53.9432 144.847 53.2998 144.523C52.622 144.183 51.1873 144.724 50.4584 144.928C48.6592 145.432 46.9381 143.949 45.0961 143.638C44.0654 143.464 43.0132 143.666 41.9712 143.755C39.9409 143.918 37.8989 143.66 35.9728 142.998C34.0467 142.336 32.2778 141.283 30.7769 139.907C29.877 139.074 28.7215 138.043 27.6041 138.549C26.8348 138.896 26.5417 139.817 26.3318 140.635C25.945 142.14 24.993 144.472 24.6067 145.982L53.1084 152.716C53.5594 150.807 53.9393 148.468 53.9921 146.463Z" fill="#1A81CC"/>
<path d="M32.4716 97.6438C33.0053 97.3818 33.568 97.1837 34.1482 97.0536C34.3248 97.0053 34.5131 97.0245 34.6763 97.1076C34.8324 97.1964 34.9487 97.3415 35.0014 97.5132C35.0278 97.6005 35.0366 97.6921 35.0273 97.7827C35.018 97.8734 34.9908 97.9613 34.9473 98.0413C34.9047 98.1197 34.8468 98.1889 34.7772 98.2447C34.7075 98.3005 34.6275 98.3418 34.5417 98.3664C34.066 98.4665 33.6025 98.6177 33.1593 98.8174L33.3175 98.7463L33.1864 98.8073C33.1129 98.8572 33.0277 98.887 32.9391 98.8936C32.8503 98.9166 32.7569 98.9155 32.6686 98.8905C32.4922 98.8488 32.3397 98.7388 32.2444 98.5847C32.1492 98.4305 32.1191 98.2449 32.1608 98.0685C32.1808 97.9815 32.2182 97.8994 32.2706 97.827C32.3229 97.7547 32.3893 97.6936 32.4658 97.6474L32.4716 97.6438Z" fill="#A4D3F7"/>
<path d="M39.0073 96.0216L39.8651 95.7031C39.9507 95.6735 40.0424 95.6663 40.1315 95.6822C40.2245 95.683 40.3155 95.709 40.3948 95.7575C40.5469 95.8504 40.6614 95.9939 40.7183 96.1628C40.745 96.2502 40.754 96.3421 40.7446 96.4331C40.7353 96.5241 40.7078 96.6123 40.6638 96.6925L40.5601 96.8323C40.479 96.9171 40.3776 96.9797 40.2656 97.0143L39.4046 97.3321C39.2748 97.3734 39.1354 97.3738 39.0053 97.3334C38.8752 97.2929 38.7607 97.2136 38.6771 97.1059C38.6171 97.0415 38.5735 96.9635 38.55 96.8786C38.5237 96.7911 38.515 96.6992 38.5243 96.6083C38.5337 96.5174 38.5609 96.4293 38.6045 96.3489L38.7082 96.209C38.7893 96.1243 38.8907 96.0617 39.0027 96.0271L39.0073 96.0216Z" fill="#A4D3F7"/>
<path d="M45.0003 94.4043C45.2429 94.2728 45.4962 94.1621 45.7574 94.0735C46.0212 93.9906 46.2917 93.9307 46.5658 93.8946C46.6585 93.8867 46.7516 93.9042 46.8351 93.945C46.9221 93.969 47.0008 94.0166 47.0623 94.0826C47.1293 94.1446 47.1831 94.2195 47.2206 94.3027C47.2581 94.3859 47.2785 94.4758 47.2807 94.567C47.2829 94.6583 47.2668 94.749 47.2334 94.8339C47.1999 94.9189 47.1498 94.9962 47.0859 95.0614L46.9499 95.1707C46.8493 95.2336 46.7338 95.2687 46.6152 95.2725L46.54 95.2843L46.7116 95.2541C46.3897 95.309 46.0764 95.4051 45.7792 95.5402L45.9377 95.4675C45.8621 95.5023 45.7877 95.5389 45.7141 95.5791C45.5594 95.6698 45.3765 95.6999 45.201 95.6634C45.0265 95.6198 44.8756 95.5105 44.7798 95.3583C44.6853 95.205 44.6551 95.0207 44.6955 94.8452C44.716 94.7583 44.7535 94.6764 44.8059 94.6041C44.8582 94.5318 44.9244 94.4706 45.0005 94.4241L45.0003 94.4043Z" fill="#A4D3F7"/>
<path d="M55.4669 98.347C55.0902 100.749 53.3398 102.569 51.7408 104.265C51.3563 104.667 50.9714 105.086 50.6102 105.515C50.2499 105.931 49.9248 106.376 49.6382 106.846C49.3474 107.319 49.0865 107.809 48.857 108.315C48.7431 108.568 48.6331 108.824 48.5309 109.083C48.4508 109.283 48.3582 109.535 48.255 109.84C47.8361 111.056 47.5184 112.318 47.2086 113.573C47.1917 113.664 47.1564 113.751 47.105 113.828C47.0535 113.905 46.9869 113.971 46.9092 114.022C46.8316 114.072 46.7444 114.106 46.6531 114.122C46.5618 114.138 46.4681 114.136 46.3779 114.114C46.2877 114.093 46.2027 114.054 46.1282 113.998C46.0536 113.943 45.991 113.874 45.9442 113.794C45.8974 113.714 45.8674 113.625 45.8558 113.533C45.8443 113.441 45.8516 113.347 45.8773 113.258C46.4452 110.994 47.0323 108.683 48.1843 106.632C48.7771 105.613 49.4869 104.666 50.2993 103.811C51.0743 102.966 51.8955 102.162 52.6053 101.26C53.3334 100.335 53.9471 99.2407 54.1357 98.0391C54.1785 97.8631 54.289 97.7112 54.4432 97.6162C54.5974 97.5212 54.7828 97.4908 54.9592 97.5316C55.1334 97.577 55.2834 97.6877 55.3779 97.8408C55.4725 97.9939 55.5044 98.1776 55.467 98.3536L55.4669 98.347Z" fill="#A4D3F7"/>
<path d="M137.479 143.588L133.866 131.454C133.245 129.371 132.619 127.255 132.592 125.083C132.548 121.611 134.024 118.333 135.333 115.11C137.206 110.484 138.777 105.741 140.034 100.911C141.276 96.1411 142.212 91.1422 141.283 86.2996C141.089 85.2803 140.673 84.1242 139.682 83.8141C138.825 83.5465 137.881 84.0834 137.389 84.8342C136.898 85.585 136.75 86.5028 136.609 87.3893C136.001 91.1843 135.167 95.2023 132.472 97.9433C133.435 92.9743 134.388 87.8697 133.469 82.8949C133.343 82.2161 133.169 81.5156 132.728 80.9852C132.287 80.4548 131.505 80.1447 130.883 80.4463C130.26 80.7479 130.026 81.4939 129.853 82.1692L126.224 96.1792L127.077 82.5326C127.115 81.935 127.148 81.3122 126.91 80.7635C126.672 80.2147 126.074 78.6872 124.669 79.1689C123.48 79.5765 123.503 81.192 123.308 81.7922C121.853 86.246 121.49 90.2922 120.038 94.7504C120.46 91.116 120.561 87.4513 120.338 83.7993C120.253 82.4103 120.074 80.9139 119.124 79.8987C118.719 79.465 118.144 79.1436 117.555 79.2105C116.276 79.3631 115.927 81.0437 115.882 82.3366C115.651 88.8314 114.738 95.284 113.157 101.588C112.801 100.311 112.904 102.68 111.2 98.6766C110.95 98.0896 111.11 92.3321 109.084 91.6057C108.042 91.232 107.426 92.6895 107.117 93.7523C104.927 101.275 103.752 111.517 107.469 118.823C108.558 120.964 109.147 121.106 110.188 123.277C111.724 126.482 114.982 145.306 115.187 148.855" fill="#E1F2FF"/>
<path d="M114.041 140.752C114.84 140.943 115.657 141.166 116.432 141.001C116.928 140.895 117.375 140.635 117.847 140.45C120.243 139.503 122.908 140.52 125.48 140.744C128.626 141.005 131.754 140.055 134.223 138.087C134.637 137.751 135.063 137.372 135.59 137.271L135.6 137.268C136.225 139.373 136.852 141.478 137.48 143.584L115.186 148.852C115.115 147.603 114.664 144.454 114.041 140.752Z" fill="#A4D3F6"/>
<path opacity="0.5" fill-rule="evenodd" clip-rule="evenodd" d="M136.971 84.5602C137.534 83.7003 138.683 82.9785 139.831 83.3369L139.831 83.337C140.489 83.5428 140.927 84.0236 141.218 84.5486C141.507 85.07 141.673 85.6724 141.774 86.2055M139.532 84.2913C138.966 84.1146 138.228 84.4666 137.808 85.1082C137.385 85.754 137.246 86.5608 137.103 87.4677L136.115 87.311L136.12 87.2802C136.256 86.4206 136.417 85.4059 136.971 84.5602M108.164 91.1835C108.493 91.0248 108.866 90.9963 109.253 91.1351C109.961 91.389 110.405 92.0499 110.695 92.7406C110.992 93.448 111.178 94.3015 111.302 95.1181C111.427 95.9392 111.495 96.7527 111.547 97.3855L111.551 97.4351C111.575 97.7334 111.596 97.9839 111.617 98.1796C111.629 98.2827 111.639 98.3628 111.65 98.4221C111.658 98.4705 111.664 98.4892 111.664 98.4893C111.664 98.4894 111.662 98.4861 111.66 98.4803L110.74 98.8728C110.701 98.78 110.679 98.6751 110.665 98.5948C110.649 98.5049 110.636 98.4004 110.623 98.2885C110.6 98.0785 110.579 97.815 110.555 97.524L110.55 97.4671C110.498 96.8326 110.433 96.0512 110.314 95.2688C110.194 94.4818 110.023 93.7231 109.773 93.1283C109.516 92.5169 109.22 92.1857 108.915 92.0764L108.915 92.0764C108.781 92.0283 108.686 92.0418 108.598 92.0845C108.492 92.1354 108.367 92.244 108.232 92.4316C107.961 92.8106 107.748 93.3731 107.597 93.8921L107.117 93.7523L107.597 93.8921C106.511 97.6213 105.679 102.019 105.577 106.381C105.476 110.747 106.106 115.043 107.914 118.596C108.422 119.594 108.813 120.137 109.208 120.685C109.223 120.706 109.238 120.726 109.252 120.747C109.674 121.333 110.101 121.938 110.639 123.061M108.164 91.1835C107.851 91.334 107.608 91.5862 107.419 91.8491L108.164 91.1835ZM107.419 91.8491C107.045 92.3711 106.795 93.0687 106.637 93.6125L107.419 91.8491ZM106.637 93.6125L106.637 93.6126L106.637 93.6125ZM106.637 93.6126C105.532 97.4061 104.682 101.891 104.578 106.357L106.637 93.6126ZM104.578 106.357C104.474 110.82 105.114 115.298 107.023 119.05L104.578 106.357ZM108.396 121.269C107.992 120.709 107.566 120.116 107.023 119.05L107.023 119.05M108.396 121.269C108.411 121.29 108.426 121.31 108.441 121.331L108.396 121.269ZM108.441 121.331C108.846 121.894 109.235 122.445 109.737 123.493L108.441 121.331ZM111.101 128.239C110.574 125.955 110.093 124.235 109.737 123.493L109.737 123.493M111.101 128.239C111.624 130.501 112.18 133.257 112.695 136.028L111.101 128.239ZM112.695 136.028C113.728 141.585 114.587 147.146 114.688 148.884L112.695 136.028ZM114.688 148.884L115.686 148.826L114.688 148.884ZM115.686 148.826C115.581 147.014 114.709 141.389 113.678 135.846L115.686 148.826ZM113.678 135.846C113.161 133.067 112.602 130.295 112.076 128.014L113.678 135.846ZM112.076 128.014C111.554 125.756 111.051 123.922 110.639 123.061L112.076 128.014Z" fill="#0760A1"/>
<path d="M112.109 146.657C112.088 145.929 112.157 145.041 112.801 144.716C113.479 144.377 114.913 144.918 115.642 145.122C117.441 145.626 119.162 144.142 121.004 143.832C122.035 143.658 123.087 143.859 124.129 143.949C126.16 144.111 128.202 143.854 130.128 143.192C132.054 142.529 133.823 141.477 135.324 140.1C136.224 139.268 137.379 138.237 138.496 138.742C139.266 139.09 139.559 140.01 139.769 140.829C140.156 142.334 141.108 144.665 141.494 146.175L112.992 152.909C112.541 151 112.161 148.662 112.109 146.657Z" fill="#1A81CC"/>
<path d="M133.629 97.8376C133.095 97.5755 132.533 97.3774 131.952 97.2473C131.776 97.199 131.587 97.2183 131.424 97.3014C131.268 97.3902 131.152 97.5353 131.099 97.707C131.073 97.7942 131.064 97.8858 131.073 97.9764C131.083 98.0671 131.11 98.155 131.153 98.2351C131.196 98.3135 131.254 98.3826 131.323 98.4384C131.393 98.4942 131.473 98.5356 131.559 98.5601C132.035 98.6602 132.498 98.8114 132.941 99.0111L132.783 98.94L132.914 99.0011C132.988 99.051 133.073 99.0807 133.161 99.0873C133.25 99.1103 133.344 99.1093 133.432 99.0842C133.608 99.0426 133.761 98.9326 133.856 98.7784C133.951 98.6243 133.981 98.4386 133.94 98.2623C133.92 98.1752 133.882 98.0931 133.83 98.0207C133.778 97.9484 133.711 97.8873 133.635 97.8411L133.629 97.8376Z" fill="#A4D3F7"/>
<path d="M127.093 96.2153L126.235 95.8968C126.15 95.8672 126.058 95.86 125.969 95.8759C125.876 95.8767 125.785 95.9027 125.706 95.9512C125.554 96.0441 125.439 96.1876 125.382 96.3565C125.356 96.4439 125.347 96.5359 125.356 96.6268C125.365 96.7178 125.393 96.806 125.437 96.8862L125.541 97.0261C125.622 97.1108 125.723 97.1734 125.835 97.208L126.696 97.5258C126.826 97.5671 126.965 97.5675 127.095 97.5271C127.225 97.4867 127.34 97.4073 127.423 97.2997C127.484 97.2352 127.527 97.1572 127.551 97.0723C127.577 96.9848 127.586 96.893 127.576 96.802C127.567 96.7111 127.54 96.623 127.496 96.5427L127.392 96.4028C127.311 96.318 127.21 96.2554 127.098 96.2208L127.093 96.2153Z" fill="#A4D3F7"/>
<path d="M121.1 94.598C120.858 94.4665 120.604 94.3559 120.343 94.2672C120.079 94.1843 119.809 94.1244 119.535 94.0883C119.442 94.0804 119.349 94.0979 119.266 94.1388C119.178 94.1627 119.1 94.2103 119.038 94.2763C118.971 94.3384 118.918 94.4132 118.88 94.4964C118.843 94.5796 118.822 94.6695 118.82 94.7608C118.818 94.852 118.834 94.9428 118.867 95.0277C118.901 95.1126 118.951 95.1899 119.015 95.2552L119.151 95.3644C119.251 95.4273 119.367 95.4624 119.485 95.4662L119.561 95.478L119.389 95.4479C119.711 95.5027 120.024 95.5988 120.321 95.7339L120.163 95.6612C120.238 95.696 120.313 95.7327 120.386 95.7728C120.541 95.8635 120.724 95.8936 120.9 95.8571C121.074 95.8135 121.225 95.7042 121.321 95.5521C121.415 95.3988 121.446 95.2144 121.405 95.0389C121.385 94.9521 121.347 94.8701 121.295 94.7978C121.242 94.7255 121.176 94.6643 121.1 94.6178L121.1 94.598Z" fill="#A4D3F7"/>
<path d="M110.634 98.5408C111.01 100.942 112.761 102.763 114.36 104.459C114.744 104.861 115.129 105.28 115.49 105.709C115.851 106.125 116.176 106.57 116.462 107.039C116.753 107.512 117.014 108.003 117.244 108.509C117.358 108.761 117.468 109.018 117.57 109.277C117.65 109.476 117.742 109.729 117.846 110.034C118.264 111.25 118.582 112.511 118.892 113.767C118.909 113.858 118.944 113.945 118.996 114.022C119.047 114.099 119.114 114.165 119.191 114.215C119.269 114.266 119.356 114.3 119.447 114.316C119.539 114.332 119.632 114.329 119.723 114.308C119.813 114.287 119.898 114.247 119.972 114.192C120.047 114.137 120.11 114.067 120.156 113.987C120.203 113.907 120.233 113.819 120.245 113.727C120.256 113.635 120.249 113.541 120.223 113.452C119.655 111.188 119.068 108.877 117.916 106.826C117.323 105.806 116.614 104.859 115.801 104.005C115.026 103.16 114.205 102.356 113.495 101.454C112.767 100.529 112.153 99.4344 111.965 98.2328C111.922 98.0568 111.812 97.9049 111.657 97.8099C111.503 97.7149 111.318 97.6845 111.141 97.7254C110.967 97.7707 110.817 97.8814 110.723 98.0345C110.628 98.1876 110.596 98.3713 110.634 98.5473L110.634 98.5408Z" fill="#A4D3F7"/>
<path d="M32.3395 34.1678L35.7232 36.8002C35.9385 36.9877 36.2143 37.091 36.4998 37.091C36.7933 37.0763 37.0694 36.9474 37.2691 36.7319C37.6244 36.3026 37.6743 35.5621 37.1904 35.1866L33.8098 32.556C33.5943 32.3673 33.3172 32.2641 33.0308 32.2659C32.7373 32.2806 32.4612 32.4095 32.2614 32.625C31.9086 33.0535 31.8587 33.794 32.3402 34.1703L32.3395 34.1678Z" fill="#1C98F2"/>
<path d="M77.7162 20.723L76.4651 24.8235C76.3971 25.1007 76.231 25.344 75.9976 25.5084C75.7491 25.6653 75.4492 25.7189 75.1618 25.6577C74.6242 25.5113 74.157 24.9345 74.3365 24.3489L75.586 20.2516C75.6536 19.9733 75.8208 19.7294 76.0559 19.566C76.3044 19.409 76.6043 19.3554 76.8917 19.4166C77.4269 19.5639 77.8941 20.1406 77.717 20.7255L77.7162 20.723Z" fill="#1C98F2"/>
<path d="M42.9867 18.8696C43.386 19.7067 43.7846 20.5414 44.1915 21.47C44.5984 22.3987 45.0054 23.3193 45.3969 24.2501C46.1793 26.1157 46.9142 27.998 47.6017 29.8971C47.6892 30.1734 47.8828 30.4036 48.1401 30.537C48.3973 30.6705 48.697 30.6963 48.9732 30.6088C49.2495 30.5213 49.4797 30.3277 49.6131 30.0704C49.7466 29.8132 49.7724 29.5135 49.6849 29.2373C48.2597 25.3055 46.6285 21.4524 44.8189 17.6799C44.5717 17.1623 43.7456 17.0455 43.3064 17.3537C42.7747 17.7342 42.7183 18.3104 42.9802 18.8662L42.9867 18.8696Z" fill="#1C98F2"/>
<path d="M62.0791 15.8243C62.2324 19.872 62.1218 23.9253 61.7481 27.9586C61.7386 28.2479 61.8432 28.5294 62.0394 28.7423C62.2356 28.9551 62.5076 29.0823 62.7967 29.0964C63.0848 29.1014 63.3637 28.9952 63.5756 28.8C63.7874 28.6047 63.916 28.3354 63.9345 28.0478C64.3082 24.0142 64.4176 19.9604 64.262 15.9124C64.2476 15.3404 63.8361 14.7739 63.2146 14.7769C62.663 14.7805 62.0569 15.2159 62.0791 15.8243Z" fill="#1C98F2"/>
<path fill-rule="evenodd" clip-rule="evenodd" d="M28.486 57.3986C28.231 57.5029 28.0303 57.7078 27.9314 57.9649L27.3692 59.4252C27.2898 59.6315 27.281 59.8582 27.3441 60.0701L31.2578 73.2023C31.4404 73.8148 32.1431 74.0989 32.7325 73.8518C34.0858 73.2844 35.5719 72.9708 37.1313 72.9708C43.4186 72.9708 48.5155 78.0677 48.5155 84.3551C48.5155 89.9359 44.4998 94.5787 39.2003 95.5518C38.5716 95.6672 38.1385 96.2897 38.321 96.9023L40.9414 105.695C41.0847 106.175 41.5618 106.476 42.0571 106.397L58.0447 103.849C76.777 100.863 95.0072 95.3047 112.219 87.3308L123.317 82.1888C123.768 81.98 123.997 81.4719 123.855 80.9958L120.566 69.9589C120.415 69.4506 119.893 69.1538 119.368 69.233C118.809 69.3175 118.237 69.3612 117.654 69.3612C111.367 69.3612 106.27 64.2643 106.27 57.977C106.27 53.3766 108.998 49.4135 112.926 47.6181C113.408 47.3974 113.683 46.8632 113.531 46.3545L110.406 35.868C110.264 35.3898 109.79 35.0898 109.297 35.165L105.022 35.8167C79.8423 39.6552 55.2069 46.4677 31.6325 56.1115L28.486 57.3986Z" fill="#0760A1"/>
<path fill-rule="evenodd" clip-rule="evenodd" d="M110.891 33.7671C110.748 33.2889 110.275 32.9888 109.782 33.0654C81.8101 37.4104 54.3213 45.6273 28.5247 57.2828C28.0696 57.4884 27.8376 57.9989 27.9802 58.4774L31.7425 71.1015C31.925 71.714 32.6277 71.9981 33.2172 71.751C34.5705 71.1835 36.0566 70.87 37.6159 70.87C43.9033 70.87 49.0002 75.9669 49.0002 82.2543C49.0002 87.8351 44.9845 92.4779 39.6849 93.4509C39.0562 93.5664 38.6231 94.1889 38.8057 94.8015L41.4261 103.594C41.5693 104.075 42.0465 104.375 42.5418 104.296L58.5293 101.748C77.2616 98.7623 95.4919 93.2038 112.703 85.2299L123.802 80.088C124.253 79.8791 124.482 79.3711 124.34 78.895L121.051 67.8581C120.899 67.3497 120.378 67.0529 119.853 67.1322C119.294 67.2166 118.721 67.2604 118.139 67.2604C111.851 67.2604 106.754 62.1635 106.754 55.8762C106.754 51.2758 109.483 47.3127 113.41 45.5172C113.893 45.2966 114.168 44.7623 114.016 44.2537L110.891 33.7671Z" fill="#419CED"/>
<path fill-rule="evenodd" clip-rule="evenodd" d="M66.6545 63.1139C66.1164 63.652 65.4185 63.9423 64.6455 63.9423C63.9215 63.9423 63.2105 63.6455 62.6398 63.1107C62.0984 62.5725 61.7919 61.8355 61.7919 61.0886C61.7919 60.3777 62.0919 59.6471 62.6202 59.0829C62.9105 58.7894 63.2562 58.5676 63.6019 58.4502C64.5868 58.0002 65.8946 58.2643 66.6708 59.0797C66.948 59.3569 67.16 59.6602 67.3002 59.9765C67.4535 60.3157 67.5318 60.7005 67.5318 61.0886C67.5318 61.8648 67.222 62.5856 66.6545 63.1139ZM83.4427 59.0663C82.3306 57.9574 80.5206 57.9574 79.4085 59.0663L62.6453 75.8295C61.5332 76.9416 61.5332 78.7516 62.6453 79.867C63.1867 80.4051 63.9009 80.7019 64.664 80.7019C65.4272 80.7019 66.1414 80.4051 66.6795 79.867L83.4427 63.1038C84.5548 61.9884 84.5548 60.1817 83.4427 59.0663ZM82.5144 75.2232C81.4577 74.7797 80.2054 75.021 79.3705 75.8559C79.1976 76.0581 78.953 76.3712 78.7867 76.7397C78.6106 77.1376 78.5877 77.5648 78.5877 77.8518C78.5877 78.1388 78.6106 78.5628 78.7867 78.9607C78.9497 79.3259 79.1454 79.6227 79.4031 79.8804C79.9934 80.4283 80.6782 80.7055 81.4414 80.7055C82.1654 80.7055 82.8764 80.4119 83.4601 79.8673C83.9787 79.3488 84.2624 78.6313 84.2624 77.8518C84.2624 77.0691 83.9787 76.3549 83.4569 75.8331C83.1699 75.5493 82.8242 75.3276 82.5144 75.2232Z" fill="white"/>
<g filter="url(#filter0_b_246_515)">
<path d="M134.567 47.012C129.118 56.4503 117.049 59.6841 107.611 54.2349C98.1727 48.7857 94.9389 36.717 100.388 27.2787C105.837 17.8404 117.906 14.6066 127.344 20.0558C136.783 25.505 140.016 37.5737 134.567 47.012Z" fill="white" fill-opacity="0.6"/>
</g>
<g filter="url(#filter1_b_246_515)">
<path fill-rule="evenodd" clip-rule="evenodd" d="M127.467 20.3768C118.26 15.061 106.487 18.2156 101.171 27.4227C95.8552 36.6299 99.0098 48.403 108.217 53.7187C113.543 56.7937 120.43 57.0307 126.013 54.7802C126.397 54.6253 126.834 54.8112 126.989 55.1954C127.144 55.5796 126.958 56.0165 126.574 56.1714C120.6 58.5794 113.226 58.3428 107.467 55.0178C97.5423 49.2878 94.1419 36.5973 99.8719 26.6727C105.602 16.7482 118.292 13.3478 128.217 19.0777C128.576 19.2848 128.699 19.7435 128.491 20.1022C128.284 20.461 127.826 20.5839 127.467 20.3768Z" fill="#0F75C1"/>
</g>
<path fill-rule="evenodd" clip-rule="evenodd" d="M125.538 31.8728L123.513 28.4767C123.365 28.228 123.053 28.1528 122.816 28.3079C122.579 28.4631 122.506 28.7907 122.655 29.0389L124.68 32.4349C124.828 32.6836 125.14 32.7589 125.377 32.6037C125.614 32.4485 125.687 32.1209 125.538 31.8728Z" fill="#1C98F2"/>
<path fill-rule="evenodd" clip-rule="evenodd" d="M111.363 32.4349L113.388 29.0389C113.537 28.7907 113.464 28.4631 113.227 28.3079C112.99 28.1528 112.678 28.228 112.53 28.4767L110.505 31.8728C110.356 32.1209 110.429 32.4485 110.666 32.6037C110.903 32.7589 111.215 32.6836 111.363 32.4349Z" fill="#1C98F2"/>
<path fill-rule="evenodd" clip-rule="evenodd" d="M109.968 35.2595L110.848 44.7892C110.923 45.605 111.577 46.2272 112.36 46.2272H123.683C124.465 46.2272 125.12 45.605 125.195 44.7892L126.075 35.2595H126.628C127.467 35.2595 128.146 34.5472 128.146 33.6682V33.1786C128.146 32.2997 127.467 31.5874 126.628 31.5874C123.303 31.5874 112.74 31.5874 109.415 31.5874C108.576 31.5874 107.896 32.2997 107.896 33.1786V33.6682C107.896 34.5472 108.576 35.2595 109.415 35.2595H109.968Z" fill="#1C98F2"/>
<path fill-rule="evenodd" clip-rule="evenodd" d="M128.146 33.7051V33.215C128.146 32.3357 127.467 31.623 126.628 31.623C123.303 31.623 112.74 31.623 109.415 31.623C108.576 31.623 107.896 32.3357 107.896 33.215V33.7051C107.896 34.5844 108.576 35.2971 109.415 35.2971H126.628C127.467 35.2971 128.146 34.5844 128.146 33.7051Z" fill="#84DAFF"/>
<path fill-rule="evenodd" clip-rule="evenodd" d="M117.515 37.3781V43.1253C117.515 43.4184 117.742 43.6561 118.022 43.6561C118.301 43.6561 118.528 43.4184 118.528 43.1253V37.3781C118.528 37.085 118.301 36.8472 118.022 36.8472C117.742 36.8472 117.515 37.085 117.515 37.3781Z" fill="#84DAFF"/>
<path fill-rule="evenodd" clip-rule="evenodd" d="M121.465 37.3983L120.585 43.0697C120.54 43.3584 120.727 43.6316 121.003 43.6783C121.279 43.7255 121.539 43.529 121.584 43.2403L122.463 37.569C122.508 37.2802 122.321 37.007 122.045 36.9603C121.77 36.9131 121.51 37.1096 121.465 37.3983Z" fill="#84DAFF"/>
<path fill-rule="evenodd" clip-rule="evenodd" d="M113.582 37.5689L114.462 43.2403C114.506 43.529 114.766 43.7255 115.042 43.6783C115.318 43.6316 115.505 43.3584 115.46 43.0696L114.58 37.3983C114.535 37.1096 114.275 36.9131 114 36.9603C113.724 37.007 113.537 37.2802 113.582 37.5689Z" fill="#84DAFF"/>
<path fill-rule="evenodd" clip-rule="evenodd" d="M88.3056 42.211C87.7742 40.6561 87.2777 39.2205 86.8286 37.9366L88.7164 37.2762C89.1672 38.5649 89.6653 40.0051 90.1982 41.5642C90.3768 42.0868 90.0979 42.6553 89.5753 42.8339C89.0527 43.0125 88.4843 42.7336 88.3056 42.211ZM91.8227 49.5355C92.3473 49.3628 92.9126 49.648 93.0853 50.1726C93.9982 52.9451 94.9424 55.8623 95.8771 58.8177C96.0437 59.3443 95.7518 59.9062 95.2252 60.0727C94.6986 60.2392 94.1368 59.9474 93.9702 59.4208C93.0382 56.4737 92.0963 53.564 91.1856 50.7981C91.0129 50.2735 91.2982 49.7083 91.8227 49.5355ZM97.3095 66.8296C97.8385 66.6712 98.3959 66.9717 98.5543 67.5008C99.4591 70.5226 100.312 73.4762 101.067 76.2441C101.212 76.7769 100.898 77.3266 100.365 77.472C99.8323 77.6173 99.2825 77.3032 99.1372 76.7704C98.3874 74.022 97.5396 71.0846 96.6383 68.0744C96.4799 67.5454 96.7804 66.988 97.3095 66.8296ZM102.077 84.3293C102.617 84.2142 103.148 84.5588 103.264 85.099C103.631 86.8256 103.907 88.3627 104.063 89.6444L102.078 89.8865C101.932 88.6857 101.669 87.2117 101.307 85.5158C101.192 84.9756 101.537 84.4444 102.077 84.3293Z" fill="#C6EEFF"/>
<defs>
<filter id="filter0_b_246_515" x="93.4744" y="13.1421" width="48.0066" height="48.0066" filterUnits="userSpaceOnUse" color-interpolation-filters="sRGB">
<feFlood flood-opacity="0" result="BackgroundImageFix"/>
<feGaussianBlur in="BackgroundImage" stdDeviation="2.13333"/>
<feComposite in2="SourceAlpha" operator="in" result="effect1_backgroundBlur_246_515"/>
<feBlend mode="normal" in="SourceGraphic" in2="effect1_backgroundBlur_246_515" result="shape"/>
</filter>
<filter id="filter1_b_246_515" x="92.8218" y="12.0276" width="40.0369" height="50.0152" filterUnits="userSpaceOnUse" color-interpolation-filters="sRGB">
<feFlood flood-opacity="0" result="BackgroundImageFix"/>
<feGaussianBlur in="BackgroundImage" stdDeviation="2.13333"/>
<feComposite in2="SourceAlpha" operator="in" result="effect1_backgroundBlur_246_515"/>
<feBlend mode="normal" in="SourceGraphic" in2="effect1_backgroundBlur_246_515" result="shape"/>
</filter>
<linearGradient id="paint0_linear_246_515" x1="160.239" y1="27.2646" x2="-13.3072" y2="117.78" gradientUnits="userSpaceOnUse">
<stop offset="0.0647845" stop-color="#1C85E8"/>
<stop offset="1" stop-color="#57C6FF" stop-opacity="0.5"/>
<stop offset="1" stop-color="#57C6FF" stop-opacity="0.5"/>
</linearGradient>
</defs>
</svg>
